  0
SECTION
  2
HEADER
  9
$ACADVER
  1
AC1009
  9
$DWGCODEPAGE
  3
ANSI_1252
  9
$INSBASE
 10
0.0
 20
0.0
 30
0.0
  9
$EXTMIN
 10
1e+20
 20
1e+20
 30
1e+20
  9
$EXTMAX
 10
-1e+20
 20
-1e+20
 30
-1e+20
  9
$LIMMIN
 10
0.0
 20
0.0
  9
$LIMMAX
 10
420.0
 20
297.0
  9
$ORTHOMODE
 70
0
  9
$REGENMODE
 70
1
  9
$FILLMODE
 70
1
  9
$DRAGMODE
 70
2
  9
$QTEXTMODE
 70
0
  9
$MIRRTEXT
 70
1
  9
$OSMODE
 70
20583
  9
$LTSCALE
 40
1.0
  9
$ATTMODE
 70
1
  9
$TEXTSIZE
 40
2.5
  9
$TRACEWID
 40
1.0
  9
$TEXTSTYLE
  7
OpenSans
  9
$CLAYER
  8
0
  9
$CELTYPE
  6
ByLayer
  9
$CECOLOR
 62
256
  9
$DIMSCALE
 40
1.0
  9
$DIMASZ
 40
0.175
  9
$DIMEXO
 40
0.125
  9
$DIMDLI
 40
3.75
  9
$DIMRND
 40
0.0
  9
$DIMDLE
 40
0.0
  9
$DIMEXE
 40
0.375
  9
$DIMTP
 40
0.0
  9
$DIMTM
 40
0.0
  9
$DIMTXT
 40
0.25
  9
$DIMCEN
 40
2.5
  9
$DIMTSZ
 40
0.0
  9
$DIMTOL
 70
0
  9
$DIMLIM
 70
0
  9
$DIMTIH
 70
0
  9
$DIMTOH
 70
0
  9
$DIMSE1
 70
0
  9
$DIMSE2
 70
0
  9
$DIMTAD
 70
1
  9
$DIMZIN
 70
12
  9
$DIMBLK
  1
ARCHTICK
  9
$DIMASO
 70
1
  9
$DIMSHO
 70
1
  9
$DIMPOST
  1

  9
$DIMAPOST
  1

  9
$DIMALT
 70
0
  9
$DIMALTD
 70
3
  9
$DIMALTF
 40
0.03937007874
  9
$DIMLFAC
 40
100.0
  9
$DIMTOFL
 70
1
  9
$DIMTVP
 40
0.0
  9
$DIMTIX
 70
0
  9
$DIMSOXD
 70
0
  9
$DIMSAH
 70
0
  9
$DIMBLK1
  1

  9
$DIMBLK2
  1

  9
$DIMSTYLE
  2
EZDXF
  9
$DIMCLRD
 70
0
  9
$DIMCLRE
 70
0
  9
$DIMCLRT
 70
0
  9
$DIMTFAC
 40
0.5
  9
$DIMGAP
 40
0.1
  9
$COORDS
 70
1
  9
$ATTDIA
 70
0
  9
$ATTREQ
 70
1
  9
$HANDLING
 70
1
  9
$LUNITS
 70
2
  9
$LUPREC
 70
4
  9
$SKETCHINC
 40
1.0
  9
$FILLETRAD
 40
10.0
  9
$AUNITS
 70
0
  9
$AUPREC
 70
2
  9
$MENU
  1
.
  9
$ELEVATION
 40
0.0
  9
$PELEVATION
 40
0.0
  9
$THICKNESS
 40
0.0
  9
$LIMCHECK
 70
0
  9
$CHAMFERA
 40
0.0
  9
$CHAMFERB
 40
0.0
  9
$SKPOLY
 70
0
  9
$TDCREATE
 40
2460286.6330324076
  9
$TDUPDATE
 40
2460286.6330324076
  9
$TDINDWG
 40
0.0
  9
$TDUSRTIMER
 40
0.0
  9
$USRTIMER
 70
1
  9
$ANGBASE
 50
0.0
  9
$ANGDIR
 70
0
  9
$PDMODE
 70
0
  9
$PDSIZE
 40
0.0
  9
$PLINEWID
 40
0.0
  9
$SPLFRAME
 70
0
  9
$SPLINETYPE
 70
6
  9
$SPLINESEGS
 70
8
  9
$HANDSEED
  5
271
  9
$SURFTAB1
 70
6
  9
$SURFTAB2
 70
6
  9
$SURFTYPE
 70
6
  9
$SURFU
 70
6
  9
$SURFV
 70
6
  9
$UCSNAME
  2

  9
$UCSORG
 10
0.0
 20
0.0
 30
0.0
  9
$UCSXDIR
 10
1.0
 20
0.0
 30
0.0
  9
$UCSYDIR
 10
0.0
 20
1.0
 30
0.0
  9
$PUCSNAME
  2

  9
$PUCSORG
 10
0.0
 20
0.0
 30
0.0
  9
$PUCSXDIR
 10
1.0
 20
0.0
 30
0.0
  9
$PUCSYDIR
 10
0.0
 20
1.0
 30
0.0
  9
$USERI1
 70
0
  9
$USERI2
 70
0
  9
$USERI3
 70
0
  9
$USERI4
 70
0
  9
$USERI5
 70
0
  9
$USERR1
 40
0.0
  9
$USERR2
 40
0.0
  9
$USERR3
 40
0.0
  9
$USERR4
 40
0.0
  9
$USERR5
 40
0.0
  9
$WORLDVIEW
 70
1
  9
$SHADEDGE
 70
3
  9
$SHADEDIF
 70
70
  9
$TILEMODE
 70
1
  9
$MAXACTVP
 70
64
  9
$PLIMCHECK
 70
0
  9
$PEXTMIN
 10
1e+20
 20
1e+20
 30
1e+20
  9
$PEXTMAX
 10
-1e+20
 20
-1e+20
 30
-1e+20
  9
$PLIMMIN
 10
0.0
 20
0.0
  9
$PLIMMAX
 10
420.0
 20
297.0
  9
$UNITMODE
 70
0
  9
$VISRETAIN
 70
1
  9
$PLINEGEN
 70
0
  9
$PSLTSCALE
 70
1
  0
ENDSEC
  0
SECTION
  2
TABLES
  0
TABLE
  2
VPORT
 70
1
  0
VPORT
  5
23
  2
*Active
 70
0
 10
0.0
 20
0.0
 11
1.0
 21
1.0
 12
0.0
 22
0.0
 13
0.0
 23
0.0
 14
0.5
 24
0.5
 15
0.5
 25
0.5
 16
0.0
 26
0.0
 36
1.0
 17
0.0
 27
0.0
 37
0.0
 40
1000.0
 41
1.34
 42
50.0
 43
0.0
 44
0.0
 50
0.0
 51
0.0
 71
0
 72
1000
 73
1
 74
3
 75
0
 76
0
 77
0
 78
0
  0
ENDTAB
  0
TABLE
  2
LTYPE
 70
21
  0
LTYPE
  5
24
  2
ByBlock
 70
0
  3

 72
65
 73
0
 40
0.0
  0
LTYPE
  5
25
  2
ByLayer
 70
0
  3

 72
65
 73
0
 40
0.0
  0
LTYPE
  5
26
  2
Continuous
 70
0
  3

 72
65
 73
0
 40
0.0
  0
LTYPE
  5
2D
  2
CENTER
 70
0
  3
Center ____ _ ____ _ ____ _ ____ _ ____ _ ____
 72
65
 73
4
 40
5.08
 49
3.175
 49
-0.635
 49
0.635
 49
-0.635
  0
LTYPE
  5
2E
  2
CENTERX2
 70
0
  3
Center (2x) ________  __  ________  __  ________
 72
65
 73
4
 40
8.89
 49
6.35
 49
-0.635
 49
1.27
 49
-0.635
  0
LTYPE
  5
2F
  2
CENTER2
 70
0
  3
Center (.5x) ____ _ ____ _ ____ _ ____ _ ____
 72
65
 73
4
 40
2.54
 49
1.587
 49
-0.318
 49
0.318
 49
-0.318
  0
LTYPE
  5
30
  2
DASHED
 70
0
  3
Dashed __ __ __ __ __ __ __ __ __ __ __ __ __ _
 72
65
 73
2
 40
1.524
 49
1.27
 49
-0.254
  0
LTYPE
  5
31
  2
DASHEDX2
 70
0
  3
Dashed (2x) ____  ____  ____  ____  ____  ____
 72
65
 73
2
 40
3.048
 49
2.54
 49
-0.508
  0
LTYPE
  5
32
  2
DASHED2
 70
0
  3
Dashed (.5x) _ _ _ _ _ _ _ _ _ _ _ _ _ _
 72
65
 73
2
 40
0.762
 49
0.635
 49
-0.127
  0
LTYPE
  5
33
  2
PHANTOM
 70
0
  3
Phantom ______  __  __  ______  __  __  ______
 72
65
 73
6
 40
6.35
 49
3.175
 49
-0.635
 49
0.635
 49
-0.635
 49
0.635
 49
-0.635
  0
LTYPE
  5
34
  2
PHANTOMX2
 70
0
  3
Phantom (2x)____________    ____    ____    ____________
 72
65
 73
6
 40
10.795
 49
6.35
 49
-0.635
 49
1.27
 49
-0.635
 49
1.27
 49
-0.635
  0
LTYPE
  5
35
  2
PHANTOM2
 70
0
  3
Phantom (.5x) ___ _ _ ___ _ _ ___ _ _ ___ _ _ ___
 72
65
 73
6
 40
3.175
 49
1.587
 49
-0.318
 49
0.318
 49
-0.318
 49
0.318
 49
-0.318
  0
LTYPE
  5
36
  2
DASHDOT
 70
0
  3
Dash dot __ . __ . __ . __ . __ . __ . __ . __
 72
65
 73
4
 40
3.556
 49
2.54
 49
-0.508
 49
0.0
 49
-0.508
  0
LTYPE
  5
37
  2
DASHDOTX2
 70
0
  3
Dash dot (2x) ____  .  ____  .  ____  .  ____
 72
65
 73
4
 40
6.096
 49
5.08
 49
-0.508
 49
0.0
 49
-0.508
  0
LTYPE
  5
38
  2
DASHDOT2
 70
0
  3
Dash dot (.5x) _ . _ . _ . _ . _ . _ . _ . _
 72
65
 73
4
 40
1.778
 49
1.27
 49
-0.254
 49
0.0
 49
-0.254
  0
LTYPE
  5
39
  2
DOT
 70
0
  3
Dot .  .  .  .  .  .  .  .  .  .  .  .  .  .  .  .
 72
65
 73
2
 40
0.508
 49
0.0
 49
-0.508
  0
LTYPE
  5
3A
  2
DOTX2
 70
0
  3
Dot (2x) .    .    .    .    .    .    .    . 
 72
65
 73
2
 40
1.016
 49
0.0
 49
-1.016
  0
LTYPE
  5
3B
  2
DOT2
 70
0
  3
Dot (.5) . . . . . . . . . . . . . . . . . . . 
 72
65
 73
2
 40
0.254
 49
0.0
 49
-0.254
  0
LTYPE
  5
3C
  2
DIVIDE
 70
0
  3
Divide __ . . __ . . __ . . __ . . __ . . __
 72
65
 73
6
 40
4.064
 49
2.54
 49
-0.508
 49
0.0
 49
-0.508
 49
0.0
 49
-0.508
  0
LTYPE
  5
3D
  2
DIVIDEX2
 70
0
  3
Divide (2x) ____  . .  ____  . .  ____  . .  ____
 72
65
 73
6
 40
6.604
 49
5.08
 49
-0.508
 49
0.0
 49
-0.508
 49
0.0
 49
-0.508
  0
LTYPE
  5
3E
  2
DIVIDE2
 70
0
  3
Divide(.5x) _ . _ . _ . _ . _ . _ . _ . _
 72
65
 73
6
 40
2.032
 49
1.27
 49
-0.254
 49
0.0
 49
-0.254
 49
0.0
 49
-0.254
  0
ENDTAB
  0
TABLE
  2
LAYER
 70
2
  0
LAYER
  5
27
  2
0
 70
0
 62
7
  6
Continuous
  0
LAYER
  5
28
  2
Defpoints
 70
0
 62
7
  6
Continuous
  0
ENDTAB
  0
TABLE
  2
STYLE
 70
26
  0
STYLE
  5
29
  2
Standard
 70
0
 40
0.0
 41
1.0
 50
0.0
 71
0
 42
2.5
  3
txt
  4

  0
STYLE
  5
3F
  2
OpenSans-Light
 70
0
 40
0.0
 41
1.0
 50
0.0
 71
0
 42
2.5
  3
OpenSans-Light.ttf
  4

  0
STYLE
  5
40
  2
OpenSans-Light-Italic
 70
0
 40
0.0
 41
1.0
 50
0.0
 71
0
 42
2.5
  3
OpenSans-LightItalic.ttf
  4

  0
STYLE
  5
41
  2
OpenSans
 70
0
 40
0.0
 41
1.0
 50
0.0
 71
0
 42
2.5
  3
OpenSans-Regular.ttf
  4

  0
STYLE
  5
42
  2
OpenSans-Italic
 70
0
 40
0.0
 41
1.0
 50
0.0
 71
0
 42
2.5
  3
OpenSans-Italic.ttf
  4

  0
STYLE
  5
43
  2
OpenSans-SemiBold
 70
0
 40
0.0
 41
1.0
 50
0.0
 71
0
 42
2.5
  3
OpenSans-SemiBold.ttf
  4

  0
STYLE
  5
44
  2
OpenSans-SemiBoldItalic
 70
0
 40
0.0
 41
1.0
 50
0.0
 71
0
 42
2.5
  3
OpenSans-SemiBoldItalic.ttf
  4

  0
STYLE
  5
45
  2
OpenSans-Bold
 70
0
 40
0.0
 41
1.0
 50
0.0
 71
0
 42
2.5
  3
OpenSans-Bold.ttf
  4

  0
STYLE
  5
46
  2
OpenSans-BoldItalic
 70
0
 40
0.0
 41
1.0
 50
0.0
 71
0
 42
2.5
  3
OpenSans-BoldItalic.ttf
  4

  0
STYLE
  5
47
  2
OpenSans-ExtraBold
 70
0
 40
0.0
 41
1.0
 50
0.0
 71
0
 42
2.5
  3
OpenSans-ExtraBold.ttf
  4

  0
STYLE
  5
48
  2
OpenSans-ExtraBoldItalic
 70
0
 40
0.0
 41
1.0
 50
0.0
 71
0
 42
2.5
  3
OpenSans-ExtraBoldItalic.ttf
  4

  0
STYLE
  5
49
  2
OpenSansCondensed-Bold
 70
0
 40
0.0
 41
1.0
 50
0.0
 71
0
 42
2.5
  3
OpenSansCondensed-Bold.ttf
  4

  0
STYLE
  5
4A
  2
OpenSansCondensed-Light
 70
0
 40
0.0
 41
1.0
 50
0.0
 71
0
 42
2.5
  3
OpenSansCondensed-Light.ttf
  4

  0
STYLE
  5
4B
  2
OpenSansCondensed-Italic
 70
0
 40
0.0
 41
1.0
 50
0.0
 71
0
 42
2.5
  3
OpenSansCondensed-LightItalic.ttf
  4

  0
STYLE
  5
4C
  2
LiberationSans
 70
0
 40
0.0
 41
1.0
 50
0.0
 71
0
 42
2.5
  3
LiberationSans-Regular.ttf
  4

  0
STYLE
  5
4D
  2
LiberationSans-Bold
 70
0
 40
0.0
 41
1.0
 50
0.0
 71
0
 42
2.5
  3
LiberationSans-Bold.ttf
  4

  0
STYLE
  5
4E
  2
LiberationSans-BoldItalic
 70
0
 40
0.0
 41
1.0
 50
0.0
 71
0
 42
2.5
  3
LiberationSans-BoldItalic.ttf
  4

  0
STYLE
  5
4F
  2
LiberationSans-Italic
 70
0
 40
0.0
 41
1.0
 50
0.0
 71
0
 42
2.5
  3
LiberationSans-Italic.ttf
  4

  0
STYLE
  5
50
  2
LiberationSerif
 70
0
 40
0.0
 41
1.0
 50
0.0
 71
0
 42
2.5
  3
LiberationSerif-Regular.ttf
  4

  0
STYLE
  5
51
  2
LiberationSerif-Bold
 70
0
 40
0.0
 41
1.0
 50
0.0
 71
0
 42
2.5
  3
LiberationSerif-Bold.ttf
  4

  0
STYLE
  5
52
  2
LiberationSerif-BoldItalic
 70
0
 40
0.0
 41
1.0
 50
0.0
 71
0
 42
2.5
  3
LiberationSerif-BoldItalic.ttf
  4

  0
STYLE
  5
53
  2
LiberationSerif-Italic
 70
0
 40
0.0
 41
1.0
 50
0.0
 71
0
 42
2.5
  3
LiberationSerif-Italic.ttf
  4

  0
STYLE
  5
54
  2
LiberationMono
 70
0
 40
0.0
 41
1.0
 50
0.0
 71
0
 42
2.5
  3
LiberationMono-Regular.ttf
  4

  0
STYLE
  5
55
  2
LiberationMono-Bold
 70
0
 40
0.0
 41
1.0
 50
0.0
 71
0
 42
2.5
  3
LiberationMono-Bold.ttf
  4

  0
STYLE
  5
56
  2
LiberationMono-BoldItalic
 70
0
 40
0.0
 41
1.0
 50
0.0
 71
0
 42
2.5
  3
LiberationMono-BoldItalic.ttf
  4

  0
STYLE
  5
57
  2
LiberationMono-Italic
 70
0
 40
0.0
 41
1.0
 50
0.0
 71
0
 42
2.5
  3
LiberationMono-Italic.ttf
  4

  0
ENDTAB
  0
TABLE
  2
VIEW
 70
0
  0
ENDTAB
  0
TABLE
  2
UCS
 70
0
  0
ENDTAB
  0
TABLE
  2
APPID
 70
3
  0
APPID
  5
2A
  2
ACAD
 70
0
  0
APPID
  5
26F
  2
HATCHBACKGROUNDCOLOR
 70
0
  0
APPID
  5
270
  2
EZDXF
 70
0
  0
ENDTAB
  0
TABLE
  2
DIMSTYLE
 70
12
  0
DIMSTYLE
105
2B
  2
Standard
 70
0
  3

  4

  5

  6

  7

 40
1.0
 41
2.5
 42
0.625
 43
3.75
 44
1.25
 45
0.0
 46
0.0
 47
0.0
 48
0.0
140
2.5
141
2.5
142
0.0
143
0.03937007874
144
1.0
145
0.0
146
1.0
147
0.625
 71
0
 72
0
 73
0
 74
0
 75
0
 76
0
 77
1
 78
8
170
0
171
3
172
1
173
0
174
0
175
0
176
0
177
0
178
0
  0
DIMSTYLE
105
71
  2
EZDXF
 70
0
  3

  4

  5
ARCHTICK
  6

  7

 40
1.0
 41
0.175
 42
0.125
 43
3.75
 44
0.375
 45
0.0
 46
0.0
 47
0.0
 48
0.0
140
0.25
141
2.5
142
0.0
143
0.03937007874
144
100.0
145
0.0
146
0.5
147
0.1
 71
0
 72
0
 73
0
 74
0
 75
0
 76
0
 77
1
 78
12
170
0
171
3
172
1
173
0
174
0
175
0
176
0
177
0
178
0
  0
DIMSTYLE
105
7D
  2
EZ_M_100_H25_CM
 70
0
  3

  4

  5

  6

  7

 40
1.0
 41
0.25
 42
0.125
 43
3.75
 44
0.375
 45
0.0
 46
0.0
 47
0.0
 48
0.0
140
0.25
141
2.5
142
0.125
143
0.03937007874
144
100.0
145
0.0
146
0.5
147
0.1
 71
0
 72
0
 73
0
 74
0
 75
0
 76
0
 77
1
 78
12
170
0
171
3
172
1
173
0
174
0
175
0
176
0
177
0
178
0
  0
DIMSTYLE
105
7E
  2
EZ_M_50_H25_CM
 70
0
  3

  4

  5

  6

  7

 40
1.0
 41
0.125
 42
0.0625
 43
3.75
 44
0.1875
 45
0.0
 46
0.0
 47
0.0
 48
0.0
140
0.125
141
2.5
142
0.0625
143
0.03937007874
144
100.0
145
0.0
146
0.5
147
0.05
 71
0
 72
0
 73
0
 74
0
 75
0
 76
0
 77
1
 78
12
170
0
171
3
172
1
173
0
174
0
175
0
176
0
177
0
178
0
  0
DIMSTYLE
105
7F
  2
EZ_M_25_H25_CM
 70
0
  3

  4

  5

  6

  7

 40
1.0
 41
0.0625
 42
0.03125
 43
3.75
 44
0.09375
 45
0.0
 46
0.0
 47
0.0
 48
0.0
140
0.0625
141
2.5
142
0.03125
143
0.03937007874
144
100.0
145
0.0
146
0.5
147
0.025
 71
0
 72
0
 73
0
 74
0
 75
0
 76
0
 77
1
 78
12
170
0
171
3
172
1
173
0
174
0
175
0
176
0
177
0
178
0
  0
DIMSTYLE
105
80
  2
EZ_M_20_H25_CM
 70
0
  3

  4

  5

  6

  7

 40
1.0
 41
0.05
 42
0.025
 43
3.75
 44
0.07500000000000001
 45
0.0
 46
0.0
 47
0.0
 48
0.0
140
0.05
141
2.5
142
0.025
143
0.03937007874
144
100.0
145
0.0
146
0.5
147
0.020000000000000004
 71
0
 72
0
 73
0
 74
0
 75
0
 76
0
 77
1
 78
12
170
0
171
3
172
1
173
0
174
0
175
0
176
0
177
0
178
0
  0
DIMSTYLE
105
81
  2
EZ_M_10_H25_CM
 70
0
  3

  4

  5

  6

  7

 40
1.0
 41
0.025
 42
0.0125
 43
3.75
 44
0.037500000000000006
 45
0.0
 46
0.0
 47
0.0
 48
0.0
140
0.025
141
2.5
142
0.0125
143
0.03937007874
144
100.0
145
0.0
146
0.5
147
0.010000000000000002
 71
0
 72
0
 73
0
 74
0
 75
0
 76
0
 77
1
 78
12
170
0
171
3
172
1
173
0
174
0
175
0
176
0
177
0
178
0
  0
DIMSTYLE
105
82
  2
EZ_M_5_H25_CM
 70
0
  3

  4

  5

  6

  7

 40
1.0
 41
0.0125
 42
0.00625
 43
3.75
 44
0.018750000000000003
 45
0.0
 46
0.0
 47
0.0
 48
0.0
140
0.0125
141
2.5
142
0.00625
143
0.03937007874
144
100.0
145
0.0
146
0.5
147
0.005000000000000001
 71
0
 72
0
 73
0
 74
0
 75
0
 76
0
 77
1
 78
12
170
0
171
3
172
1
173
0
174
0
175
0
176
0
177
0
178
0
  0
DIMSTYLE
105
83
  2
EZ_M_1_H25_CM
 70
0
  3

  4

  5

  6

  7

 40
1.0
 41
0.0025
 42
0.00125
 43
3.75
 44
0.00375
 45
0.0
 46
0.0
 47
0.0
 48
0.0
140
0.0025
141
2.5
142
0.00125
143
0.03937007874
144
100.0
145
0.0
146
0.5
147
0.001
 71
0
 72
0
 73
0
 74
0
 75
0
 76
0
 77
1
 78
12
170
0
171
3
172
1
173
0
174
0
175
0
176
0
177
0
178
0
  0
DIMSTYLE
105
84
  2
EZ_RADIUS
 70
0
  3

  4

  5
CLOSEDBLANK
  6

  7

 40
1.0
 41
0.25
 42
0.125
 43
3.75
 44
0.375
 45
0.0
 46
0.0
 47
0.0
 48
0.0
140
0.25
141
0.0
142
0.0
143
0.03937007874
144
100.0
145
0.0
146
0.5
147
0.1
 71
0
 72
0
 73
0
 74
0
 75
0
 76
0
 77
1
 78
12
170
0
171
3
172
0
173
0
174
0
175
0
176
0
177
0
178
0
  0
DIMSTYLE
105
8D
  2
EZ_RADIUS_INSIDE
 70
0
  3

  4

  5
CLOSEDBLANK
  6

  7

 40
1.0
 41
0.25
 42
0.125
 43
3.75
 44
0.375
 45
0.0
 46
0.0
 47
0.0
 48
0.0
140
0.25
141
0.0
142
0.0
143
0.03937007874
144
100.0
145
0.0
146
0.5
147
0.1
 71
0
 72
0
 73
0
 74
0
 75
0
 76
0
 77
0
 78
12
170
0
171
3
172
0
173
0
174
1
175
0
176
0
177
0
178
0
  0
DIMSTYLE
105
8E
  2
EZ_CURVED
 70
0
  3

  4

  5

  6

  7

 40
1.0
 41
0.25
 42
0.125
 43
3.75
 44
0.375
 45
0.0
 46
0.0
 47
0.0
 48
0.0
140
0.25
141
2.5
142
0.0
143
0.03937007874
144
100.0
145
0.0
146
0.5
147
0.1
 71
0
 72
0
 73
0
 74
0
 75
0
 76
0
 77
1
 78
12
170
0
171
3
172
1
173
0
174
0
175
0
176
0
177
0
178
0
  0
ENDTAB
  0
ENDSEC
  0
SECTION
  2
BLOCKS
  0
BLOCK
  5
18
  8
0
  2
$Model_Space
 70
0
 10
0.0
 20
0.0
 30
0.0
  3
$Model_Space
  1

1001
EZDXF
1000
CREATED_BY_EZDXF
1000
1.1.3 @ 2023-12-07T06:11:34.863785+00:00
1000
WRITTEN_BY_EZDXF
1000
1.1.3 @ 2023-12-07T06:11:34.895384+00:00
  0
ENDBLK
  5
19
  8
0
  0
BLOCK
  5
1C
  8
0
  2
$Paper_Space
 70
0
 10
0.0
 20
0.0
 30
0.0
  3
$Paper_Space
  1

  0
ENDBLK
  5
1D
  8
0
  0
BLOCK
  5
73
  8
0
  2
_ARCHTICK
 70
0
 10
0.0
 20
0.0
 30
0.0
  3
_ARCHTICK
  1

  0
POLYLINE
  5
75
  8
0
  6
BYBLOCK
 62
0
 66
1
 10
0.0
 20
0.0
 30
0.0
 70
0
 40
0.15
 41
0.15
  0
VERTEX
  5
77
  8
0
  6
BYBLOCK
 10
-0.5
 20
-0.5000000000000001
 30
0.0
 70
0
  0
VERTEX
  5
78
  8
0
  6
BYBLOCK
 10
0.5000000000000001
 20
0.5000000000000001
 30
0.0
 70
0
  0
SEQEND
  5
76
  8
0
  0
ENDBLK
  5
74
  8
0
  0
BLOCK
  5
7A
  8
0
  2
_CLOSEDFILLED
 70
0
 10
0.0
 20
0.0
 30
0.0
  3
_CLOSEDFILLED
  1

  0
SOLID
  5
7C
  8
0
  6
BYBLOCK
 62
0
 10
-1.0
 20
0.1643989837240255
 30
0.0
 11
0.0
 21
0.0
 31
0.0
 12
-1.0
 22
-0.1643989837240255
 32
0.0
 13
-1.0
 23
-0.1643989837240255
 33
0.0
  0
ENDBLK
  5
7B
  8
0
  0
BLOCK
  5
86
  8
0
  2
_CLOSEDBLANK
 70
0
 10
0.0
 20
0.0
 30
0.0
  3
_CLOSEDBLANK
  1

  0
POLYLINE
  5
88
  8
0
  6
BYBLOCK
 62
0
 66
1
 10
0.0
 20
0.0
 30
0.0
 70
1
  0
VERTEX
  5
8A
  8
0
  6
BYBLOCK
 10
-1.0
 20
0.1643989837240255
 30
0.0
 70
0
  0
VERTEX
  5
8B
  8
0
  6
BYBLOCK
 10
0.0
 20
0.0
 30
0.0
 70
0
  0
VERTEX
  5
8C
  8
0
  6
BYBLOCK
 10
-1.0
 20
-0.1643989837240255
 30
0.0
 70
0
  0
SEQEND
  5
89
  8
0
  0
ENDBLK
  5
87
  8
0
  0
BLOCK
  5
91
  8
0
  2
*D1
 70
1
 10
0.0
 20
0.0
 30
0.0
  3
*D1
  1

  0
LINE
  5
93
  8
0
 10
0.0
 20
0.125
 30
0.0
 11
0.0
 21
2.375
 31
0.0
  0
LINE
  5
94
  8
0
 10
3.0
 20
0.125
 30
0.0
 11
3.0
 21
2.375
 31
0.0
  0
INSERT
  5
95
  8
0
  2
_CLOSEDFILLED
 10
0.0
 20
2.0
 30
0.0
 41
0.25
 42
0.25
 50
180.0
  0
INSERT
  5
97
  8
0
  2
_CLOSEDFILLED
 10
3.0
 20
2.0
 30
0.0
 41
0.25
 42
0.25
  0
LINE
  5
99
  8
0
 10
0.25
 20
2.0
 30
0.0
 11
2.75
 21
2.0
 31
0.0
  0
TEXT
  5
9A
  8
0
 10
1.5
 20
2.225
 30
0.0
 40
0.25
  1
300
  7
LiberationMono
 72
1
 11
1.5
 21
2.225
 31
0.0
 73
2
  0
POINT
  5
9B
  8
Defpoints
 10
0.0
 20
2.0
 30
0.0
  0
POINT
  5
9C
  8
Defpoints
 10
0.0
 20
0.0
 30
0.0
  0
POINT
  5
9D
  8
Defpoints
 10
3.0
 20
0.0
 30
0.0
  0
ENDBLK
  5
92
  8
0
  0
BLOCK
  5
A0
  8
0
  2
*D2
 70
1
 10
0.0
 20
0.0
 30
0.0
  3
*D2
  1

  0
LINE
  5
A2
  8
0
 10
0.0
 20
4.125
 30
0.0
 11
0.0
 21
6.375
 31
0.0
  0
LINE
  5
A3
  8
0
 10
3.0
 20
4.125
 30
0.0
 11
3.0
 21
6.375
 31
0.0
  0
INSERT
  5
A4
  8
0
  2
_ARCHTICK
 10
0.0
 20
6.0
 30
0.0
 41
0.25
 42
0.25
 50
180.0
  0
INSERT
  5
A6
  8
0
  2
_ARCHTICK
 10
3.0
 20
6.0
 30
0.0
 41
0.25
 42
0.25
  0
LINE
  5
A8
  8
0
 10
-0.5
 20
6.0
 30
0.0
 11
3.5
 21
6.0
 31
0.0
  0
TEXT
  5
A9
  8
0
 10
1.5
 20
6.225
 30
0.0
 40
0.25
  1
300
  7
LiberationMono
 72
1
 11
1.5
 21
6.225
 31
0.0
 73
2
  0
POINT
  5
AA
  8
Defpoints
 10
0.0
 20
6.0
 30
0.0
  0
POINT
  5
AB
  8
Defpoints
 10
0.0
 20
4.0
 30
0.0
  0
POINT
  5
AC
  8
Defpoints
 10
3.0
 20
4.0
 30
0.0
  0
ENDBLK
  5
A1
  8
0
  0
BLOCK
  5
AF
  8
0
  2
*D3
 70
1
 10
0.0
 20
0.0
 30
0.0
  3
*D3
  1

  0
LINE
  5
B1
  8
0
 10
0.0
 20
8.125
 30
0.0
 11
0.0
 21
10.375
 31
0.0
  0
LINE
  5
B2
  8
0
 10
3.0
 20
8.125
 30
0.0
 11
3.0
 21
10.375
 31
0.0
  0
INSERT
  5
BD
  8
0
  2
_BOXBLANK
 10
0.0
 20
10.0
 30
0.0
 41
0.25
 42
0.25
 50
180.0
  0
INSERT
  5
BF
  8
0
  2
_BOXBLANK
 10
3.0
 20
10.0
 30
0.0
 41
0.25
 42
0.25
  0
LINE
  5
C1
  8
0
 10
0.25
 20
10.0
 30
0.0
 11
2.75
 21
10.0
 31
0.0
  0
TEXT
  5
C2
  8
0
 10
1.5
 20
10.225
 30
0.0
 40
0.25
  1
300
  7
LiberationMono
 72
1
 11
1.5
 21
10.225
 31
0.0
 73
2
  0
POINT
  5
C3
  8
Defpoints
 10
0.0
 20
10.0
 30
0.0
  0
POINT
  5
C4
  8
Defpoints
 10
0.0
 20
8.0
 30
0.0
  0
POINT
  5
C5
  8
Defpoints
 10
3.0
 20
8.0
 30
0.0
  0
ENDBLK
  5
B0
  8
0
  0
BLOCK
  5
B4
  8
0
  2
_BOXBLANK
 70
0
 10
0.0
 20
0.0
 30
0.0
  3
_BOXBLANK
  1

  0
POLYLINE
  5
B6
  8
0
  6
BYBLOCK
 62
0
 66
1
 10
0.0
 20
0.0
 30
0.0
 70
1
  0
VERTEX
  5
B8
  8
0
  6
BYBLOCK
 10
-0.5
 20
-0.5000000000000001
 30
0.0
 70
0
  0
VERTEX
  5
B9
  8
0
  6
BYBLOCK
 10
0.5000000000000001
 20
-0.5000000000000001
 30
0.0
 70
0
  0
VERTEX
  5
BA
  8
0
  6
BYBLOCK
 10
0.5000000000000001
 20
0.5000000000000001
 30
0.0
 70
0
  0
VERTEX
  5
BB
  8
0
  6
BYBLOCK
 10
-0.5
 20
0.5000000000000001
 30
0.0
 70
0
  0
SEQEND
  5
B7
  8
0
  0
LINE
  5
BC
  8
0
  6
BYBLOCK
 62
0
 10
-0.5
 20
6.123233995736766e-17
 30
0.0
 11
-1.0
 21
1.2246467991473532e-16
 31
0.0
  0
ENDBLK
  5
B5
  8
0
  0
BLOCK
  5
C8
  8
0
  2
*D4
 70
1
 10
0.0
 20
0.0
 30
0.0
  3
*D4
  1

  0
LINE
  5
CA
  8
0
 10
0.0
 20
12.125
 30
0.0
 11
0.0
 21
14.375
 31
0.0
  0
LINE
  5
CB
  8
0
 10
3.0
 20
12.125
 30
0.0
 11
3.0
 21
14.375
 31
0.0
  0
INSERT
  5
D1
  8
0
  2
_BOXFILLED
 10
0.0
 20
14.0
 30
0.0
 41
0.25
 42
0.25
 50
180.0
  0
INSERT
  5
D3
  8
0
  2
_BOXFILLED
 10
3.0
 20
14.0
 30
0.0
 41
0.25
 42
0.25
  0
LINE
  5
D5
  8
0
 10
0.25
 20
14.0
 30
0.0
 11
2.75
 21
14.0
 31
0.0
  0
TEXT
  5
D6
  8
0
 10
1.5
 20
14.225
 30
0.0
 40
0.25
  1
300
  7
LiberationMono
 72
1
 11
1.5
 21
14.225
 31
0.0
 73
2
  0
POINT
  5
D7
  8
Defpoints
 10
0.0
 20
14.0
 30
0.0
  0
POINT
  5
D8
  8
Defpoints
 10
0.0
 20
12.0
 30
0.0
  0
POINT
  5
D9
  8
Defpoints
 10
3.0
 20
12.0
 30
0.0
  0
ENDBLK
  5
C9
  8
0
  0
BLOCK
  5
CD
  8
0
  2
_BOXFILLED
 70
0
 10
0.0
 20
0.0
 30
0.0
  3
_BOXFILLED
  1

  0
SOLID
  5
CF
  8
0
  6
BYBLOCK
 62
0
 10
-0.5
 20
-0.5000000000000001
 30
0.0
 11
0.5000000000000001
 21
-0.5000000000000001
 31
0.0
 12
-0.5
 22
0.5000000000000001
 32
0.0
 13
0.5000000000000001
 23
0.5000000000000001
 33
0.0
  0
LINE
  5
D0
  8
0
  6
BYBLOCK
 62
0
 10
-0.5
 20
6.123233995736766e-17
 30
0.0
 11
-1.0
 21
1.2246467991473532e-16
 31
0.0
  0
ENDBLK
  5
CE
  8
0
  0
BLOCK
  5
DC
  8
0
  2
*D5
 70
1
 10
0.0
 20
0.0
 30
0.0
  3
*D5
  1

  0
LINE
  5
DE
  8
0
 10
0.0
 20
16.125
 30
0.0
 11
0.0
 21
18.375
 31
0.0
  0
LINE
  5
DF
  8
0
 10
3.0
 20
16.125
 30
0.0
 11
3.0
 21
18.375
 31
0.0
  0
INSERT
  5
E9
  8
0
  2
_CLOSED
 10
0.0
 20
18.0
 30
0.0
 41
0.25
 42
0.25
 50
180.0
  0
INSERT
  5
EB
  8
0
  2
_CLOSED
 10
3.0
 20
18.0
 30
0.0
 41
0.25
 42
0.25
  0
LINE
  5
ED
  8
0
 10
0.25
 20
18.0
 30
0.0
 11
2.75
 21
18.0
 31
0.0
  0
TEXT
  5
EE
  8
0
 10
1.5
 20
18.225
 30
0.0
 40
0.25
  1
300
  7
LiberationMono
 72
1
 11
1.5
 21
18.225
 31
0.0
 73
2
  0
POINT
  5
EF
  8
Defpoints
 10
0.0
 20
18.0
 30
0.0
  0
POINT
  5
F0
  8
Defpoints
 10
0.0
 20
16.0
 30
0.0
  0
POINT
  5
F1
  8
Defpoints
 10
3.0
 20
16.0
 30
0.0
  0
ENDBLK
  5
DD
  8
0
  0
BLOCK
  5
E1
  8
0
  2
_CLOSED
 70
0
 10
0.0
 20
0.0
 30
0.0
  3
_CLOSED
  1

  0
POLYLINE
  5
E3
  8
0
  6
BYBLOCK
 62
0
 66
1
 10
0.0
 20
0.0
 30
0.0
 70
1
  0
VERTEX
  5
E5
  8
0
  6
BYBLOCK
 10
-1.0
 20
0.1643989837240255
 30
0.0
 70
0
  0
VERTEX
  5
E6
  8
0
  6
BYBLOCK
 10
0.0
 20
0.0
 30
0.0
 70
0
  0
VERTEX
  5
E7
  8
0
  6
BYBLOCK
 10
-1.0
 20
-0.1643989837240255
 30
0.0
 70
0
  0
SEQEND
  5
E4
  8
0
  0
LINE
  5
E8
  8
0
  6
BYBLOCK
 62
0
 10
0.0
 20
0.0
 30
0.0
 11
-1.0
 21
0.0
 31
0.0
  0
ENDBLK
  5
E2
  8
0
  0
BLOCK
  5
F4
  8
0
  2
*D6
 70
1
 10
0.0
 20
0.0
 30
0.0
  3
*D6
  1

  0
LINE
  5
F6
  8
0
 10
0.0
 20
20.125
 30
0.0
 11
0.0
 21
22.375
 31
0.0
  0
LINE
  5
F7
  8
0
 10
3.0
 20
20.125
 30
0.0
 11
3.0
 21
22.375
 31
0.0
  0
INSERT
  5
F8
  8
0
  2
_CLOSEDBLANK
 10
0.0
 20
22.0
 30
0.0
 41
0.25
 42
0.25
 50
180.0
  0
INSERT
  5
FA
  8
0
  2
_CLOSEDBLANK
 10
3.0
 20
22.0
 30
0.0
 41
0.25
 42
0.25
  0
LINE
  5
FC
  8
0
 10
0.25
 20
22.0
 30
0.0
 11
2.75
 21
22.0
 31
0.0
  0
TEXT
  5
FD
  8
0
 10
1.5
 20
22.225
 30
0.0
 40
0.25
  1
300
  7
LiberationMono
 72
1
 11
1.5
 21
22.225
 31
0.0
 73
2
  0
POINT
  5
FE
  8
Defpoints
 10
0.0
 20
22.0
 30
0.0
  0
POINT
  5
FF
  8
Defpoints
 10
0.0
 20
20.0
 30
0.0
  0
POINT
  5
100
  8
Defpoints
 10
3.0
 20
20.0
 30
0.0
  0
ENDBLK
  5
F5
  8
0
  0
BLOCK
  5
103
  8
0
  2
*D7
 70
1
 10
0.0
 20
0.0
 30
0.0
  3
*D7
  1

  0
LINE
  5
105
  8
0
 10
0.0
 20
24.125
 30
0.0
 11
0.0
 21
26.375
 31
0.0
  0
LINE
  5
106
  8
0
 10
3.0
 20
24.125
 30
0.0
 11
3.0
 21
26.375
 31
0.0
  0
INSERT
  5
10F
  8
0
  2
_DATUMBLANK
 10
0.0
 20
26.0
 30
0.0
 41
0.25
 42
0.25
 50
180.0
  0
INSERT
  5
111
  8
0
  2
_DATUMBLANK
 10
3.0
 20
26.0
 30
0.0
 41
0.25
 42
0.25
  0
LINE
  5
113
  8
0
 10
0.25
 20
26.0
 30
0.0
 11
2.75
 21
26.0
 31
0.0
  0
TEXT
  5
114
  8
0
 10
1.5
 20
26.225
 30
0.0
 40
0.25
  1
300
  7
LiberationMono
 72
1
 11
1.5
 21
26.225
 31
0.0
 73
2
  0
POINT
  5
115
  8
Defpoints
 10
0.0
 20
26.0
 30
0.0
  0
POINT
  5
116
  8
Defpoints
 10
0.0
 20
24.0
 30
0.0
  0
POINT
  5
117
  8
Defpoints
 10
3.0
 20
24.0
 30
0.0
  0
ENDBLK
  5
104
  8
0
  0
BLOCK
  5
108
  8
0
  2
_DATUMBLANK
 70
0
 10
0.0
 20
0.0
 30
0.0
  3
_DATUMBLANK
  1

  0
POLYLINE
  5
10A
  8
0
  6
BYBLOCK
 62
0
 66
1
 10
0.0
 20
0.0
 30
0.0
 70
1
  0
VERTEX
  5
10C
  8
0
  6
BYBLOCK
 10
3.5352507945885664e-17
 20
0.577350269
 30
0.0
 70
0
  0
VERTEX
  5
10D
  8
0
  6
BYBLOCK
 10
3.5352507945885664e-17
 20
-0.577350269
 30
0.0
 70
0
  0
VERTEX
  5
10E
  8
0
  6
BYBLOCK
 10
-1.0
 20
1.2246467991473532e-16
 30
0.0
 70
0
  0
SEQEND
  5
10B
  8
0
  0
ENDBLK
  5
109
  8
0
  0
BLOCK
  5
11A
  8
0
  2
*D8
 70
1
 10
0.0
 20
0.0
 30
0.0
  3
*D8
  1

  0
LINE
  5
11C
  8
0
 10
0.0
 20
28.125
 30
0.0
 11
0.0
 21
30.375
 31
0.0
  0
LINE
  5
11D
  8
0
 10
3.0
 20
28.125
 30
0.0
 11
3.0
 21
30.375
 31
0.0
  0
INSERT
  5
122
  8
0
  2
_DATUMFILLED
 10
0.0
 20
30.0
 30
0.0
 41
0.25
 42
0.25
 50
180.0
  0
INSERT
  5
124
  8
0
  2
_DATUMFILLED
 10
3.0
 20
30.0
 30
0.0
 41
0.25
 42
0.25
  0
LINE
  5
126
  8
0
 10
0.25
 20
30.0
 30
0.0
 11
2.75
 21
30.0
 31
0.0
  0
TEXT
  5
127
  8
0
 10
1.5
 20
30.225
 30
0.0
 40
0.25
  1
300
  7
LiberationMono
 72
1
 11
1.5
 21
30.225
 31
0.0
 73
2
  0
POINT
  5
128
  8
Defpoints
 10
0.0
 20
30.0
 30
0.0
  0
POINT
  5
129
  8
Defpoints
 10
0.0
 20
28.0
 30
0.0
  0
POINT
  5
12A
  8
Defpoints
 10
3.0
 20
28.0
 30
0.0
  0
ENDBLK
  5
11B
  8
0
  0
BLOCK
  5
11F
  8
0
  2
_DATUMFILLED
 70
0
 10
0.0
 20
0.0
 30
0.0
  3
_DATUMFILLED
  1

  0
SOLID
  5
121
  8
0
  6
BYBLOCK
 62
0
 10
3.5352507945885664e-17
 20
0.577350269
 30
0.0
 11
3.5352507945885664e-17
 21
-0.577350269
 31
0.0
 12
-1.0
 22
1.2246467991473532e-16
 32
0.0
 13
-1.0
 23
1.2246467991473532e-16
 33
0.0
  0
ENDBLK
  5
120
  8
0
  0
BLOCK
  5
12D
  8
0
  2
*D9
 70
1
 10
0.0
 20
0.0
 30
0.0
  3
*D9
  1

  0
LINE
  5
12F
  8
0
 10
0.0
 20
32.125
 30
0.0
 11
0.0
 21
34.375
 31
0.0
  0
LINE
  5
130
  8
0
 10
3.0
 20
32.125
 30
0.0
 11
3.0
 21
34.375
 31
0.0
  0
INSERT
  5
139
  8
0
  2
_DOT
 10
0.0
 20
34.0
 30
0.0
 41
0.25
 42
0.25
 50
180.0
  0
INSERT
  5
13B
  8
0
  2
_DOT
 10
3.0
 20
34.0
 30
0.0
 41
0.25
 42
0.25
  0
LINE
  5
13D
  8
0
 10
0.25
 20
34.0
 30
0.0
 11
2.75
 21
34.0
 31
0.0
  0
TEXT
  5
13E
  8
0
 10
1.5
 20
34.225
 30
0.0
 40
0.25
  1
300
  7
LiberationMono
 72
1
 11
1.5
 21
34.225
 31
0.0
 73
2
  0
POINT
  5
13F
  8
Defpoints
 10
0.0
 20
34.0
 30
0.0
  0
POINT
  5
140
  8
Defpoints
 10
0.0
 20
32.0
 30
0.0
  0
POINT
  5
141
  8
Defpoints
 10
3.0
 20
32.0
 30
0.0
  0
ENDBLK
  5
12E
  8
0
  0
BLOCK
  5
132
  8
0
  2
_DOT
 70
0
 10
0.0
 20
0.0
 30
0.0
  3
_DOT
  1

  0
LINE
  5
134
  8
0
  6
BYBLOCK
 62
0
 10
-0.5
 20
6.123233995736766e-17
 30
0.0
 11
-1.0
 21
1.2246467991473532e-16
 31
0.0
  0
POLYLINE
  5
135
  8
0
  6
BYBLOCK
 62
0
 66
1
 10
0.0
 20
0.0
 30
0.0
 70
1
 40
0.5
 41
0.5
  0
VERTEX
  5
137
  8
0
  6
BYBLOCK
 10
-0.25
 20
0.0
 30
0.0
 42
1.0
 70
0
  0
VERTEX
  5
138
  8
0
  6
BYBLOCK
 10
0.25
 20
0.0
 30
0.0
 42
1.0
 70
0
  0
SEQEND
  5
136
  8
0
  0
ENDBLK
  5
133
  8
0
  0
BLOCK
  5
144
  8
0
  2
*D10
 70
1
 10
0.0
 20
0.0
 30
0.0
  3
*D10
  1

  0
LINE
  5
146
  8
0
 10
0.0
 20
36.125
 30
0.0
 11
0.0
 21
38.375
 31
0.0
  0
LINE
  5
147
  8
0
 10
3.0
 20
36.125
 30
0.0
 11
3.0
 21
38.375
 31
0.0
  0
INSERT
  5
14D
  8
0
  2
_DOTBLANK
 10
0.0
 20
38.0
 30
0.0
 41
0.25
 42
0.25
 50
180.0
  0
INSERT
  5
14F
  8
0
  2
_DOTBLANK
 10
3.0
 20
38.0
 30
0.0
 41
0.25
 42
0.25
  0
LINE
  5
151
  8
0
 10
0.25
 20
38.0
 30
0.0
 11
2.75
 21
38.0
 31
0.0
  0
TEXT
  5
152
  8
0
 10
1.5
 20
38.225
 30
0.0
 40
0.25
  1
300
  7
LiberationMono
 72
1
 11
1.5
 21
38.225
 31
0.0
 73
2
  0
POINT
  5
153
  8
Defpoints
 10
0.0
 20
38.0
 30
0.0
  0
POINT
  5
154
  8
Defpoints
 10
0.0
 20
36.0
 30
0.0
  0
POINT
  5
155
  8
Defpoints
 10
3.0
 20
36.0
 30
0.0
  0
ENDBLK
  5
145
  8
0
  0
BLOCK
  5
149
  8
0
  2
_DOTBLANK
 70
0
 10
0.0
 20
0.0
 30
0.0
  3
_DOTBLANK
  1

  0
CIRCLE
  5
14B
  8
0
  6
BYBLOCK
 62
0
 10
0.0
 20
0.0
 30
0.0
 40
0.5
  0
LINE
  5
14C
  8
0
  6
BYBLOCK
 62
0
 10
-0.5
 20
6.123233995736766e-17
 30
0.0
 11
-1.0
 21
1.2246467991473532e-16
 31
0.0
  0
ENDBLK
  5
14A
  8
0
  0
BLOCK
  5
158
  8
0
  2
*D11
 70
1
 10
0.0
 20
0.0
 30
0.0
  3
*D11
  1

  0
LINE
  5
15A
  8
0
 10
0.0
 20
40.125
 30
0.0
 11
0.0
 21
42.375
 31
0.0
  0
LINE
  5
15B
  8
0
 10
3.0
 20
40.125
 30
0.0
 11
3.0
 21
42.375
 31
0.0
  0
INSERT
  5
163
  8
0
  2
_DOTSMALL
 10
0.0
 20
42.0
 30
0.0
 41
0.25
 42
0.25
 50
180.0
  0
INSERT
  5
165
  8
0
  2
_DOTSMALL
 10
3.0
 20
42.0
 30
0.0
 41
0.25
 42
0.25
  0
LINE
  5
167
  8
0
 10
-0.5
 20
42.0
 30
0.0
 11
3.5
 21
42.0
 31
0.0
  0
TEXT
  5
168
  8
0
 10
1.5
 20
42.225
 30
0.0
 40
0.25
  1
300
  7
LiberationMono
 72
1
 11
1.5
 21
42.225
 31
0.0
 73
2
  0
POINT
  5
169
  8
Defpoints
 10
0.0
 20
42.0
 30
0.0
  0
POINT
  5
16A
  8
Defpoints
 10
0.0
 20
40.0
 30
0.0
  0
POINT
  5
16B
  8
Defpoints
 10
3.0
 20
40.0
 30
0.0
  0
ENDBLK
  5
159
  8
0
  0
BLOCK
  5
15D
  8
0
  2
_DOTSMALL
 70
0
 10
0.0
 20
0.0
 30
0.0
  3
_DOTSMALL
  1

  0
POLYLINE
  5
15F
  8
0
  6
BYBLOCK
 62
0
 66
1
 10
0.0
 20
0.0
 30
0.0
 70
1
 40
0.125
 41
0.125
  0
VERTEX
  5
161
  8
0
  6
BYBLOCK
 10
-0.0625
 20
0.0
 30
0.0
 42
1.0
 70
0
  0
VERTEX
  5
162
  8
0
  6
BYBLOCK
 10
0.0625
 20
0.0
 30
0.0
 42
1.0
 70
0
  0
SEQEND
  5
160
  8
0
  0
ENDBLK
  5
15E
  8
0
  0
BLOCK
  5
16E
  8
0
  2
*D12
 70
1
 10
0.0
 20
0.0
 30
0.0
  3
*D12
  1

  0
LINE
  5
170
  8
0
 10
0.0
 20
44.125
 30
0.0
 11
0.0
 21
46.375
 31
0.0
  0
LINE
  5
171
  8
0
 10
3.0
 20
44.125
 30
0.0
 11
3.0
 21
46.375
 31
0.0
  0
INSERT
  5
17C
  8
0
  2
EZ_ARROW
 10
0.0
 20
46.0
 30
0.0
 41
0.25
 42
0.25
 50
180.0
  0
INSERT
  5
17E
  8
0
  2
EZ_ARROW
 10
3.0
 20
46.0
 30
0.0
 41
0.25
 42
0.25
  0
LINE
  5
180
  8
0
 10
0.25
 20
46.0
 30
0.0
 11
2.75
 21
46.0
 31
0.0
  0
TEXT
  5
181
  8
0
 10
1.5
 20
46.225
 30
0.0
 40
0.25
  1
300
  7
LiberationMono
 72
1
 11
1.5
 21
46.225
 31
0.0
 73
2
  0
POINT
  5
182
  8
Defpoints
 10
0.0
 20
46.0
 30
0.0
  0
POINT
  5
183
  8
Defpoints
 10
0.0
 20
44.0
 30
0.0
  0
POINT
  5
184
  8
Defpoints
 10
3.0
 20
44.0
 30
0.0
  0
ENDBLK
  5
16F
  8
0
  0
BLOCK
  5
173
  8
0
  2
EZ_ARROW
 70
0
 10
0.0
 20
0.0
 30
0.0
  3
EZ_ARROW
  1

  0
POLYLINE
  5
175
  8
0
  6
BYBLOCK
 62
0
 66
1
 10
0.0
 20
0.0
 30
0.0
 70
1
  0
VERTEX
  5
177
  8
0
  6
BYBLOCK
 10
-1.0
 20
0.1643989837240255
 30
0.0
 70
0
  0
VERTEX
  5
178
  8
0
  6
BYBLOCK
 10
0.0
 20
0.0
 30
0.0
 70
0
  0
VERTEX
  5
179
  8
0
  6
BYBLOCK
 10
-1.0
 20
-0.1643989837240255
 30
0.0
 70
0
  0
VERTEX
  5
17A
  8
0
  6
BYBLOCK
 10
-0.8356010162759746
 20
1.0233161099466477e-16
 30
0.0
 70
0
  0
SEQEND
  5
176
  8
0
  0
LINE
  5
17B
  8
0
  6
BYBLOCK
 62
0
 10
0.0
 20
0.0
 30
0.0
 11
-1.0
 21
1.2246467991473532e-16
 31
0.0
  0
ENDBLK
  5
174
  8
0
  0
BLOCK
  5
187
  8
0
  2
*D13
 70
1
 10
0.0
 20
0.0
 30
0.0
  3
*D13
  1

  0
LINE
  5
189
  8
0
 10
0.0
 20
48.125
 30
0.0
 11
0.0
 21
50.375
 31
0.0
  0
LINE
  5
18A
  8
0
 10
3.0
 20
48.125
 30
0.0
 11
3.0
 21
50.375
 31
0.0
  0
INSERT
  5
195
  8
0
  2
EZ_ARROW_BLANK
 10
0.0
 20
50.0
 30
0.0
 41
0.25
 42
0.25
 50
180.0
  0
INSERT
  5
197
  8
0
  2
EZ_ARROW_BLANK
 10
3.0
 20
50.0
 30
0.0
 41
0.25
 42
0.25
  0
LINE
  5
199
  8
0
 10
0.25
 20
50.0
 30
0.0
 11
2.75
 21
50.0
 31
0.0
  0
TEXT
  5
19A
  8
0
 10
1.5
 20
50.225
 30
0.0
 40
0.25
  1
300
  7
LiberationMono
 72
1
 11
1.5
 21
50.225
 31
0.0
 73
2
  0
POINT
  5
19B
  8
Defpoints
 10
0.0
 20
50.0
 30
0.0
  0
POINT
  5
19C
  8
Defpoints
 10
0.0
 20
48.0
 30
0.0
  0
POINT
  5
19D
  8
Defpoints
 10
3.0
 20
48.0
 30
0.0
  0
ENDBLK
  5
188
  8
0
  0
BLOCK
  5
18C
  8
0
  2
EZ_ARROW_BLANK
 70
0
 10
0.0
 20
0.0
 30
0.0
  3
EZ_ARROW_BLANK
  1

  0
POLYLINE
  5
18E
  8
0
  6
BYBLOCK
 62
0
 66
1
 10
0.0
 20
0.0
 30
0.0
 70
1
  0
VERTEX
  5
190
  8
0
  6
BYBLOCK
 10
-1.0
 20
0.1643989837240255
 30
0.0
 70
0
  0
VERTEX
  5
191
  8
0
  6
BYBLOCK
 10
0.0
 20
0.0
 30
0.0
 70
0
  0
VERTEX
  5
192
  8
0
  6
BYBLOCK
 10
-1.0
 20
-0.1643989837240255
 30
0.0
 70
0
  0
VERTEX
  5
193
  8
0
  6
BYBLOCK
 10
-0.8356010162759746
 20
1.0233161099466477e-16
 30
0.0
 70
0
  0
SEQEND
  5
18F
  8
0
  0
LINE
  5
194
  8
0
  6
BYBLOCK
 62
0
 10
-0.8356010162759746
 20
1.0233161099466477e-16
 30
0.0
 11
-1.0
 21
1.2246467991473532e-16
 31
0.0
  0
ENDBLK
  5
18D
  8
0
  0
BLOCK
  5
1A0
  8
0
  2
*D14
 70
1
 10
0.0
 20
0.0
 30
0.0
  3
*D14
  1

  0
LINE
  5
1A2
  8
0
 10
0.0
 20
52.125
 30
0.0
 11
0.0
 21
54.375
 31
0.0
  0
LINE
  5
1A3
  8
0
 10
3.0
 20
52.125
 30
0.0
 11
3.0
 21
54.375
 31
0.0
  0
INSERT
  5
1A9
  8
0
  2
EZ_ARROW_FILLED
 10
0.0
 20
54.0
 30
0.0
 41
0.25
 42
0.25
 50
180.0
  0
INSERT
  5
1AB
  8
0
  2
EZ_ARROW_FILLED
 10
3.0
 20
54.0
 30
0.0
 41
0.25
 42
0.25
  0
LINE
  5
1AD
  8
0
 10
0.25
 20
54.0
 30
0.0
 11
2.75
 21
54.0
 31
0.0
  0
TEXT
  5
1AE
  8
0
 10
1.5
 20
54.225
 30
0.0
 40
0.25
  1
300
  7
LiberationMono
 72
1
 11
1.5
 21
54.225
 31
0.0
 73
2
  0
POINT
  5
1AF
  8
Defpoints
 10
0.0
 20
54.0
 30
0.0
  0
POINT
  5
1B0
  8
Defpoints
 10
0.0
 20
52.0
 30
0.0
  0
POINT
  5
1B1
  8
Defpoints
 10
3.0
 20
52.0
 30
0.0
  0
ENDBLK
  5
1A1
  8
0
  0
BLOCK
  5
1A5
  8
0
  2
EZ_ARROW_FILLED
 70
0
 10
0.0
 20
0.0
 30
0.0
  3
EZ_ARROW_FILLED
  1

  0
SOLID
  5
1A7
  8
0
  6
BYBLOCK
 62
0
 10
-1.0
 20
0.1643989837240255
 30
0.0
 11
0.0
 21
0.0
 31
0.0
 12
-0.8356010162759746
 22
1.0233161099466477e-16
 32
0.0
 13
-1.0
 23
-0.1643989837240255
 33
0.0
  0
LINE
  5
1A8
  8
0
  6
BYBLOCK
 62
0
 10
-0.8356010162759746
 20
1.0233161099466477e-16
 30
0.0
 11
-1.0
 21
1.2246467991473532e-16
 31
0.0
  0
ENDBLK
  5
1A6
  8
0
  0
BLOCK
  5
1B4
  8
0
  2
*D15
 70
1
 10
0.0
 20
0.0
 30
0.0
  3
*D15
  1

  0
LINE
  5
1B6
  8
0
 10
0.0
 20
56.125
 30
0.0
 11
0.0
 21
58.375
 31
0.0
  0
LINE
  5
1B7
  8
0
 10
3.0
 20
56.125
 30
0.0
 11
3.0
 21
58.375
 31
0.0
  0
INSERT
  5
1BD
  8
0
  2
_INTEGRAL
 10
0.0
 20
58.0
 30
0.0
 41
0.25
 42
0.25
 50
180.0
  0
INSERT
  5
1BF
  8
0
  2
_INTEGRAL
 10
3.0
 20
58.0
 30
0.0
 41
0.25
 42
0.25
  0
LINE
  5
1C1
  8
0
 10
-0.5
 20
58.0
 30
0.0
 11
3.5
 21
58.0
 31
0.0
  0
TEXT
  5
1C2
  8
0
 10
1.5
 20
58.225
 30
0.0
 40
0.25
  1
300
  7
LiberationMono
 72
1
 11
1.5
 21
58.225
 31
0.0
 73
2
  0
POINT
  5
1C3
  8
Defpoints
 10
0.0
 20
58.0
 30
0.0
  0
POINT
  5
1C4
  8
Defpoints
 10
0.0
 20
56.0
 30
0.0
  0
POINT
  5
1C5
  8
Defpoints
 10
3.0
 20
56.0
 30
0.0
  0
ENDBLK
  5
1B5
  8
0
  0
BLOCK
  5
1B9
  8
0
  2
_INTEGRAL
 70
0
 10
0.0
 20
0.0
 30
0.0
  3
_INTEGRAL
  1

  0
ARC
  5
1BB
  8
0
  6
BYBLOCK
 62
0
 10
-0.3535534
 20
4.329780396376638e-17
 30
0.0
 40
0.3535534
 50
-90.0
 51
0.0
  0
ARC
  5
1BC
  8
0
  6
BYBLOCK
 62
0
 10
0.3535534
 20
0.0
 30
0.0
 40
0.3535534
 50
90.0
 51
180.0
  0
ENDBLK
  5
1BA
  8
0
  0
BLOCK
  5
1C8
  8
0
  2
*D16
 70
1
 10
0.0
 20
0.0
 30
0.0
  3
*D16
  1

  0
LINE
  5
1CA
  8
0
 10
0.0
 20
60.125
 30
0.0
 11
0.0
 21
62.375
 31
0.0
  0
LINE
  5
1CB
  8
0
 10
3.0
 20
60.125
 30
0.0
 11
3.0
 21
62.375
 31
0.0
  0
INSERT
  5
1CF
  8
0
  2
_NONE
 10
0.0
 20
62.0
 30
0.0
 41
0.25
 42
0.25
 50
180.0
  0
INSERT
  5
1D1
  8
0
  2
_NONE
 10
3.0
 20
62.0
 30
0.0
 41
0.25
 42
0.25
  0
LINE
  5
1D3
  8
0
 10
-0.5
 20
62.0
 30
0.0
 11
3.5
 21
62.0
 31
0.0
  0
TEXT
  5
1D4
  8
0
 10
1.5
 20
62.225
 30
0.0
 40
0.25
  1
300
  7
LiberationMono
 72
1
 11
1.5
 21
62.225
 31
0.0
 73
2
  0
POINT
  5
1D5
  8
Defpoints
 10
0.0
 20
62.0
 30
0.0
  0
POINT
  5
1D6
  8
Defpoints
 10
0.0
 20
60.0
 30
0.0
  0
POINT
  5
1D7
  8
Defpoints
 10
3.0
 20
60.0
 30
0.0
  0
ENDBLK
  5
1C9
  8
0
  0
BLOCK
  5
1CD
  8
0
  2
_NONE
 70
0
 10
0.0
 20
0.0
 30
0.0
  3
_NONE
  1

  0
ENDBLK
  5
1CE
  8
0
  0
BLOCK
  5
1DA
  8
0
  2
*D17
 70
1
 10
0.0
 20
0.0
 30
0.0
  3
*D17
  1

  0
LINE
  5
1DC
  8
0
 10
0.0
 20
64.125
 30
0.0
 11
0.0
 21
66.375
 31
0.0
  0
LINE
  5
1DD
  8
0
 10
3.0
 20
64.125
 30
0.0
 11
3.0
 21
66.375
 31
0.0
  0
INSERT
  5
1E2
  8
0
  2
_OBLIQUE
 10
0.0
 20
66.0
 30
0.0
 41
0.25
 42
0.25
 50
180.0
  0
INSERT
  5
1E4
  8
0
  2
_OBLIQUE
 10
3.0
 20
66.0
 30
0.0
 41
0.25
 42
0.25
  0
LINE
  5
1E6
  8
0
 10
-0.5
 20
66.0
 30
0.0
 11
3.5
 21
66.0
 31
0.0
  0
TEXT
  5
1E7
  8
0
 10
1.5
 20
66.225
 30
0.0
 40
0.25
  1
300
  7
LiberationMono
 72
1
 11
1.5
 21
66.225
 31
0.0
 73
2
  0
POINT
  5
1E8
  8
Defpoints
 10
0.0
 20
66.0
 30
0.0
  0
POINT
  5
1E9
  8
Defpoints
 10
0.0
 20
64.0
 30
0.0
  0
POINT
  5
1EA
  8
Defpoints
 10
3.0
 20
64.0
 30
0.0
  0
ENDBLK
  5
1DB
  8
0
  0
BLOCK
  5
1DF
  8
0
  2
_OBLIQUE
 70
0
 10
0.0
 20
0.0
 30
0.0
  3
_OBLIQUE
  1

  0
LINE
  5
1E1
  8
0
  6
BYBLOCK
 62
0
 10
-0.5
 20
-0.5000000000000001
 30
0.0
 11
0.5000000000000001
 21
0.5000000000000001
 31
0.0
  0
ENDBLK
  5
1E0
  8
0
  0
BLOCK
  5
1ED
  8
0
  2
*D18
 70
1
 10
0.0
 20
0.0
 30
0.0
  3
*D18
  1

  0
LINE
  5
1EF
  8
0
 10
0.0
 20
68.125
 30
0.0
 11
0.0
 21
70.375
 31
0.0
  0
LINE
  5
1F0
  8
0
 10
3.0
 20
68.125
 30
0.0
 11
3.0
 21
70.375
 31
0.0
  0
INSERT
  5
1FA
  8
0
  2
_OPEN
 10
0.0
 20
70.0
 30
0.0
 41
0.25
 42
0.25
 50
180.0
  0
INSERT
  5
1FC
  8
0
  2
_OPEN
 10
3.0
 20
70.0
 30
0.0
 41
0.25
 42
0.25
  0
LINE
  5
1FE
  8
0
 10
0.25
 20
70.0
 30
0.0
 11
2.75
 21
70.0
 31
0.0
  0
TEXT
  5
1FF
  8
0
 10
1.5
 20
70.225
 30
0.0
 40
0.25
  1
300
  7
LiberationMono
 72
1
 11
1.5
 21
70.225
 31
0.0
 73
2
  0
POINT
  5
200
  8
Defpoints
 10
0.0
 20
70.0
 30
0.0
  0
POINT
  5
201
  8
Defpoints
 10
0.0
 20
68.0
 30
0.0
  0
POINT
  5
202
  8
Defpoints
 10
3.0
 20
68.0
 30
0.0
  0
ENDBLK
  5
1EE
  8
0
  0
BLOCK
  5
1F2
  8
0
  2
_OPEN
 70
0
 10
0.0
 20
0.0
 30
0.0
  3
_OPEN
  1

  0
POLYLINE
  5
1F4
  8
0
  6
BYBLOCK
 62
0
 66
1
 10
0.0
 20
0.0
 30
0.0
 70
0
  0
VERTEX
  5
1F6
  8
0
  6
BYBLOCK
 10
-1.0
 20
0.1643989837240255
 30
0.0
 70
0
  0
VERTEX
  5
1F7
  8
0
  6
BYBLOCK
 10
0.0
 20
0.0
 30
0.0
 70
0
  0
VERTEX
  5
1F8
  8
0
  6
BYBLOCK
 10
-1.0
 20
-0.1643989837240255
 30
0.0
 70
0
  0
SEQEND
  5
1F5
  8
0
  0
LINE
  5
1F9
  8
0
  6
BYBLOCK
 62
0
 10
0.0
 20
0.0
 30
0.0
 11
-1.0
 21
1.2246467991473532e-16
 31
0.0
  0
ENDBLK
  5
1F3
  8
0
  0
BLOCK
  5
205
  8
0
  2
*D19
 70
1
 10
0.0
 20
0.0
 30
0.0
  3
*D19
  1

  0
LINE
  5
207
  8
0
 10
0.0
 20
72.125
 30
0.0
 11
0.0
 21
74.375
 31
0.0
  0
LINE
  5
208
  8
0
 10
3.0
 20
72.125
 30
0.0
 11
3.0
 21
74.375
 31
0.0
  0
INSERT
  5
212
  8
0
  2
_OPEN30
 10
0.0
 20
74.0
 30
0.0
 41
0.25
 42
0.25
 50
180.0
  0
INSERT
  5
214
  8
0
  2
_OPEN30
 10
3.0
 20
74.0
 30
0.0
 41
0.25
 42
0.25
  0
LINE
  5
216
  8
0
 10
0.25
 20
74.0
 30
0.0
 11
2.75
 21
74.0
 31
0.0
  0
TEXT
  5
217
  8
0
 10
1.5
 20
74.225
 30
0.0
 40
0.25
  1
300
  7
LiberationMono
 72
1
 11
1.5
 21
74.225
 31
0.0
 73
2
  0
POINT
  5
218
  8
Defpoints
 10
0.0
 20
74.0
 30
0.0
  0
POINT
  5
219
  8
Defpoints
 10
0.0
 20
72.0
 30
0.0
  0
POINT
  5
21A
  8
Defpoints
 10
3.0
 20
72.0
 30
0.0
  0
ENDBLK
  5
206
  8
0
  0
BLOCK
  5
20A
  8
0
  2
_OPEN30
 70
0
 10
0.0
 20
0.0
 30
0.0
  3
_OPEN30
  1

  0
POLYLINE
  5
20C
  8
0
  6
BYBLOCK
 62
0
 66
1
 10
0.0
 20
0.0
 30
0.0
 70
0
  0
VERTEX
  5
20E
  8
0
  6
BYBLOCK
 10
-0.9999999999999999
 20
0.2588190451025208
 30
0.0
 70
0
  0
VERTEX
  5
20F
  8
0
  6
BYBLOCK
 10
0.0
 20
0.0
 30
0.0
 70
0
  0
VERTEX
  5
210
  8
0
  6
BYBLOCK
 10
-0.9999999999999999
 20
-0.2588190451025208
 30
0.0
 70
0
  0
SEQEND
  5
20D
  8
0
  0
LINE
  5
211
  8
0
  6
BYBLOCK
 62
0
 10
0.0
 20
0.0
 30
0.0
 11
-1.0
 21
1.2246467991473532e-16
 31
0.0
  0
ENDBLK
  5
20B
  8
0
  0
BLOCK
  5
21D
  8
0
  2
*D20
 70
1
 10
0.0
 20
0.0
 30
0.0
  3
*D20
  1

  0
LINE
  5
21F
  8
0
 10
0.0
 20
76.125
 30
0.0
 11
0.0
 21
78.375
 31
0.0
  0
LINE
  5
220
  8
0
 10
3.0
 20
76.125
 30
0.0
 11
3.0
 21
78.375
 31
0.0
  0
INSERT
  5
22A
  8
0
  2
_OPEN90
 10
0.0
 20
78.0
 30
0.0
 41
0.25
 42
0.25
 50
180.0
  0
INSERT
  5
22C
  8
0
  2
_OPEN90
 10
3.0
 20
78.0
 30
0.0
 41
0.25
 42
0.25
  0
LINE
  5
22E
  8
0
 10
0.25
 20
78.0
 30
0.0
 11
2.75
 21
78.0
 31
0.0
  0
TEXT
  5
22F
  8
0
 10
1.5
 20
78.225
 30
0.0
 40
0.25
  1
300
  7
LiberationMono
 72
1
 11
1.5
 21
78.225
 31
0.0
 73
2
  0
POINT
  5
230
  8
Defpoints
 10
0.0
 20
78.0
 30
0.0
  0
POINT
  5
231
  8
Defpoints
 10
0.0
 20
76.0
 30
0.0
  0
POINT
  5
232
  8
Defpoints
 10
3.0
 20
76.0
 30
0.0
  0
ENDBLK
  5
21E
  8
0
  0
BLOCK
  5
222
  8
0
  2
_OPEN90
 70
0
 10
0.0
 20
0.0
 30
0.0
  3
_OPEN90
  1

  0
POLYLINE
  5
224
  8
0
  6
BYBLOCK
 62
0
 66
1
 10
0.0
 20
0.0
 30
0.0
 70
0
  0
VERTEX
  5
226
  8
0
  6
BYBLOCK
 10
-0.9999999999999998
 20
0.7071067811865476
 30
0.0
 70
0
  0
VERTEX
  5
227
  8
0
  6
BYBLOCK
 10
0.0
 20
0.0
 30
0.0
 70
0
  0
VERTEX
  5
228
  8
0
  6
BYBLOCK
 10
-0.9999999999999998
 20
-0.7071067811865476
 30
0.0
 70
0
  0
SEQEND
  5
225
  8
0
  0
LINE
  5
229
  8
0
  6
BYBLOCK
 62
0
 10
0.0
 20
0.0
 30
0.0
 11
-1.0
 21
1.2246467991473532e-16
 31
0.0
  0
ENDBLK
  5
223
  8
0
  0
BLOCK
  5
235
  8
0
  2
*D21
 70
1
 10
0.0
 20
0.0
 30
0.0
  3
*D21
  1

  0
LINE
  5
237
  8
0
 10
0.0
 20
80.125
 30
0.0
 11
0.0
 21
82.375
 31
0.0
  0
LINE
  5
238
  8
0
 10
3.0
 20
80.125
 30
0.0
 11
3.0
 21
82.375
 31
0.0
  0
INSERT
  5
23E
  8
0
  2
_ORIGIN
 10
0.0
 20
82.0
 30
0.0
 41
0.25
 42
0.25
 50
180.0
  0
INSERT
  5
240
  8
0
  2
_ORIGIN
 10
3.0
 20
82.0
 30
0.0
 41
0.25
 42
0.25
  0
LINE
  5
242
  8
0
 10
0.25
 20
82.0
 30
0.0
 11
2.75
 21
82.0
 31
0.0
  0
TEXT
  5
243
  8
0
 10
1.5
 20
82.225
 30
0.0
 40
0.25
  1
300
  7
LiberationMono
 72
1
 11
1.5
 21
82.225
 31
0.0
 73
2
  0
POINT
  5
244
  8
Defpoints
 10
0.0
 20
82.0
 30
0.0
  0
POINT
  5
245
  8
Defpoints
 10
0.0
 20
80.0
 30
0.0
  0
POINT
  5
246
  8
Defpoints
 10
3.0
 20
80.0
 30
0.0
  0
ENDBLK
  5
236
  8
0
  0
BLOCK
  5
23A
  8
0
  2
_ORIGIN
 70
0
 10
0.0
 20
0.0
 30
0.0
  3
_ORIGIN
  1

  0
CIRCLE
  5
23C
  8
0
  6
BYBLOCK
 62
0
 10
0.0
 20
0.0
 30
0.0
 40
0.5
  0
LINE
  5
23D
  8
0
  6
BYBLOCK
 62
0
 10
0.0
 20
0.0
 30
0.0
 11
-1.0
 21
1.2246467991473532e-16
 31
0.0
  0
ENDBLK
  5
23B
  8
0
  0
BLOCK
  5
249
  8
0
  2
*D22
 70
1
 10
0.0
 20
0.0
 30
0.0
  3
*D22
  1

  0
LINE
  5
24B
  8
0
 10
0.0
 20
84.125
 30
0.0
 11
0.0
 21
86.375
 31
0.0
  0
LINE
  5
24C
  8
0
 10
3.0
 20
84.125
 30
0.0
 11
3.0
 21
86.375
 31
0.0
  0
INSERT
  5
253
  8
0
  2
_ORIGIN2
 10
0.0
 20
86.0
 30
0.0
 41
0.25
 42
0.25
 50
180.0
  0
INSERT
  5
255
  8
0
  2
_ORIGIN2
 10
3.0
 20
86.0
 30
0.0
 41
0.25
 42
0.25
  0
LINE
  5
257
  8
0
 10
0.25
 20
86.0
 30
0.0
 11
2.75
 21
86.0
 31
0.0
  0
TEXT
  5
258
  8
0
 10
1.5
 20
86.225
 30
0.0
 40
0.25
  1
300
  7
LiberationMono
 72
1
 11
1.5
 21
86.225
 31
0.0
 73
2
  0
POINT
  5
259
  8
Defpoints
 10
0.0
 20
86.0
 30
0.0
  0
POINT
  5
25A
  8
Defpoints
 10
0.0
 20
84.0
 30
0.0
  0
POINT
  5
25B
  8
Defpoints
 10
3.0
 20
84.0
 30
0.0
  0
ENDBLK
  5
24A
  8
0
  0
BLOCK
  5
24E
  8
0
  2
_ORIGIN2
 70
0
 10
0.0
 20
0.0
 30
0.0
  3
_ORIGIN2
  1

  0
CIRCLE
  5
250
  8
0
  6
BYBLOCK
 62
0
 10
0.0
 20
0.0
 30
0.0
 40
0.5
  0
CIRCLE
  5
251
  8
0
  6
BYBLOCK
 62
0
 10
0.0
 20
0.0
 30
0.0
 40
0.25
  0
LINE
  5
252
  8
0
  6
BYBLOCK
 62
0
 10
-0.5
 20
6.123233995736766e-17
 30
0.0
 11
-1.0
 21
1.2246467991473532e-16
 31
0.0
  0
ENDBLK
  5
24F
  8
0
  0
BLOCK
  5
25E
  8
0
  2
*D23
 70
1
 10
0.0
 20
0.0
 30
0.0
  3
*D23
  1

  0
LINE
  5
260
  8
0
 10
0.0
 20
88.125
 30
0.0
 11
0.0
 21
90.375
 31
0.0
  0
LINE
  5
261
  8
0
 10
3.0
 20
88.125
 30
0.0
 11
3.0
 21
90.375
 31
0.0
  0
INSERT
  5
266
  8
0
  2
_SMALL
 10
0.0
 20
90.0
 30
0.0
 41
0.25
 42
0.25
 50
180.0
  0
INSERT
  5
268
  8
0
  2
_SMALL
 10
3.0
 20
90.0
 30
0.0
 41
0.25
 42
0.25
  0
LINE
  5
26A
  8
0
 10
-0.5
 20
90.0
 30
0.0
 11
3.5
 21
90.0
 31
0.0
  0
TEXT
  5
26B
  8
0
 10
1.5
 20
90.225
 30
0.0
 40
0.25
  1
300
  7
LiberationMono
 72
1
 11
1.5
 21
90.225
 31
0.0
 73
2
  0
POINT
  5
26C
  8
Defpoints
 10
0.0
 20
90.0
 30
0.0
  0
POINT
  5
26D
  8
Defpoints
 10
0.0
 20
88.0
 30
0.0
  0
POINT
  5
26E
  8
Defpoints
 10
3.0
 20
88.0
 30
0.0
  0
ENDBLK
  5
25F
  8
0
  0
BLOCK
  5
263
  8
0
  2
_SMALL
 70
0
 10
0.0
 20
0.0
 30
0.0
  3
_SMALL
  1

  0
CIRCLE
  5
265
  8
0
  6
BYBLOCK
 62
0
 10
0.0
 20
0.0
 30
0.0
 40
0.25
  0
ENDBLK
  5
264
  8
0
  0
ENDSEC
  0
SECTION
  2
ENTITIES
  0
DIMENSION
  5
8F
  8
0
  2
*D1
  3
EZDXF
 10
0.0
 20
2.0
 30
0.0
 11
1.5
 21
2.225
 31
0.0
 70
32
  1
<>
 13
0.0
 23
0.0
 33
0.0
 14
3.0
 24
0.0
 34
0.0
 15
0.0
 25
0.0
 35
0.0
 16
0.0
 26
0.0
 36
0.0
 50
0.0
1001
ACAD
1000
DSTYLE
1002
{
1070
46
1040
0.5
1070
41
1040
0.25
1070
5
1000

1070
173
1070
0
1070
142
1040
0.0
1002
}
  0
DIMENSION
  5
9E
  8
0
  2
*D2
  3
EZDXF
 10
0.0
 20
6.0
 30
0.0
 11
1.5
 21
6.225
 31
0.0
 70
32
  1
<>
 13
0.0
 23
4.0
 33
0.0
 14
3.0
 24
4.0
 34
0.0
 15
0.0
 25
0.0
 35
0.0
 16
0.0
 26
0.0
 36
0.0
 50
0.0
1001
ACAD
1000
DSTYLE
1002
{
1070
46
1040
0.5
1070
41
1040
0.25
1070
5
1000
ARCHTICK
1070
173
1070
0
1070
142
1040
0.0
1002
}
  0
DIMENSION
  5
AD
  8
0
  2
*D3
  3
EZDXF
 10
0.0
 20
10.0
 30
0.0
 11
1.5
 21
10.225
 31
0.0
 70
32
  1
<>
 13
0.0
 23
8.0
 33
0.0
 14
3.0
 24
8.0
 34
0.0
 15
0.0
 25
0.0
 35
0.0
 16
0.0
 26
0.0
 36
0.0
 50
0.0
1001
ACAD
1000
DSTYLE
1002
{
1070
46
1040
0.5
1070
41
1040
0.25
1070
5
1000
BOXBLANK
1070
173
1070
0
1070
142
1040
0.0
1002
}
  0
DIMENSION
  5
C6
  8
0
  2
*D4
  3
EZDXF
 10
0.0
 20
14.0
 30
0.0
 11
1.5
 21
14.225
 31
0.0
 70
32
  1
<>
 13
0.0
 23
12.0
 33
0.0
 14
3.0
 24
12.0
 34
0.0
 15
0.0
 25
0.0
 35
0.0
 16
0.0
 26
0.0
 36
0.0
 50
0.0
1001
ACAD
1000
DSTYLE
1002
{
1070
46
1040
0.5
1070
41
1040
0.25
1070
5
1000
BOXFILLED
1070
173
1070
0
1070
142
1040
0.0
1002
}
  0
DIMENSION
  5
DA
  8
0
  2
*D5
  3
EZDXF
 10
0.0
 20
18.0
 30
0.0
 11
1.5
 21
18.225
 31
0.0
 70
32
  1
<>
 13
0.0
 23
16.0
 33
0.0
 14
3.0
 24
16.0
 34
0.0
 15
0.0
 25
0.0
 35
0.0
 16
0.0
 26
0.0
 36
0.0
 50
0.0
1001
ACAD
1000
DSTYLE
1002
{
1070
46
1040
0.5
1070
41
1040
0.25
1070
5
1000
CLOSED
1070
173
1070
0
1070
142
1040
0.0
1002
}
  0
DIMENSION
  5
F2
  8
0
  2
*D6
  3
EZDXF
 10
0.0
 20
22.0
 30
0.0
 11
1.5
 21
22.225
 31
0.0
 70
32
  1
<>
 13
0.0
 23
20.0
 33
0.0
 14
3.0
 24
20.0
 34
0.0
 15
0.0
 25
0.0
 35
0.0
 16
0.0
 26
0.0
 36
0.0
 50
0.0
1001
ACAD
1000
DSTYLE
1002
{
1070
46
1040
0.5
1070
41
1040
0.25
1070
5
1000
CLOSEDBLANK
1070
173
1070
0
1070
142
1040
0.0
1002
}
  0
DIMENSION
  5
101
  8
0
  2
*D7
  3
EZDXF
 10
0.0
 20
26.0
 30
0.0
 11
1.5
 21
26.225
 31
0.0
 70
32
  1
<>
 13
0.0
 23
24.0
 33
0.0
 14
3.0
 24
24.0
 34
0.0
 15
0.0
 25
0.0
 35
0.0
 16
0.0
 26
0.0
 36
0.0
 50
0.0
1001
ACAD
1000
DSTYLE
1002
{
1070
46
1040
0.5
1070
41
1040
0.25
1070
5
1000
DATUMBLANK
1070
173
1070
0
1070
142
1040
0.0
1002
}
  0
DIMENSION
  5
118
  8
0
  2
*D8
  3
EZDXF
 10
0.0
 20
30.0
 30
0.0
 11
1.5
 21
30.225
 31
0.0
 70
32
  1
<>
 13
0.0
 23
28.0
 33
0.0
 14
3.0
 24
28.0
 34
0.0
 15
0.0
 25
0.0
 35
0.0
 16
0.0
 26
0.0
 36
0.0
 50
0.0
1001
ACAD
1000
DSTYLE
1002
{
1070
46
1040
0.5
1070
41
1040
0.25
1070
5
1000
DATUMFILLED
1070
173
1070
0
1070
142
1040
0.0
1002
}
  0
DIMENSION
  5
12B
  8
0
  2
*D9
  3
EZDXF
 10
0.0
 20
34.0
 30
0.0
 11
1.5
 21
34.225
 31
0.0
 70
32
  1
<>
 13
0.0
 23
32.0
 33
0.0
 14
3.0
 24
32.0
 34
0.0
 15
0.0
 25
0.0
 35
0.0
 16
0.0
 26
0.0
 36
0.0
 50
0.0
1001
ACAD
1000
DSTYLE
1002
{
1070
46
1040
0.5
1070
41
1040
0.25
1070
5
1000
DOT
1070
173
1070
0
1070
142
1040
0.0
1002
}
  0
DIMENSION
  5
142
  8
0
  2
*D10
  3
EZDXF
 10
0.0
 20
38.0
 30
0.0
 11
1.5
 21
38.225
 31
0.0
 70
32
  1
<>
 13
0.0
 23
36.0
 33
0.0
 14
3.0
 24
36.0
 34
0.0
 15
0.0
 25
0.0
 35
0.0
 16
0.0
 26
0.0
 36
0.0
 50
0.0
1001
ACAD
1000
DSTYLE
1002
{
1070
46
1040
0.5
1070
41
1040
0.25
1070
5
1000
DOTBLANK
1070
173
1070
0
1070
142
1040
0.0
1002
}
  0
DIMENSION
  5
156
  8
0
  2
*D11
  3
EZDXF
 10
0.0
 20
42.0
 30
0.0
 11
1.5
 21
42.225
 31
0.0
 70
32
  1
<>
 13
0.0
 23
40.0
 33
0.0
 14
3.0
 24
40.0
 34
0.0
 15
0.0
 25
0.0
 35
0.0
 16
0.0
 26
0.0
 36
0.0
 50
0.0
1001
ACAD
1000
DSTYLE
1002
{
1070
46
1040
0.5
1070
41
1040
0.25
1070
5
1000
DOTSMALL
1070
173
1070
0
1070
142
1040
0.0
1002
}
  0
DIMENSION
  5
16C
  8
0
  2
*D12
  3
EZDXF
 10
0.0
 20
46.0
 30
0.0
 11
1.5
 21
46.225
 31
0.0
 70
32
  1
<>
 13
0.0
 23
44.0
 33
0.0
 14
3.0
 24
44.0
 34
0.0
 15
0.0
 25
0.0
 35
0.0
 16
0.0
 26
0.0
 36
0.0
 50
0.0
1001
ACAD
1000
DSTYLE
1002
{
1070
46
1040
0.5
1070
41
1040
0.25
1070
5
1000
EZ_ARROW
1070
173
1070
0
1070
142
1040
0.0
1002
}
  0
DIMENSION
  5
185
  8
0
  2
*D13
  3
EZDXF
 10
0.0
 20
50.0
 30
0.0
 11
1.5
 21
50.225
 31
0.0
 70
32
  1
<>
 13
0.0
 23
48.0
 33
0.0
 14
3.0
 24
48.0
 34
0.0
 15
0.0
 25
0.0
 35
0.0
 16
0.0
 26
0.0
 36
0.0
 50
0.0
1001
ACAD
1000
DSTYLE
1002
{
1070
46
1040
0.5
1070
41
1040
0.25
1070
5
1000
EZ_ARROW_BLANK
1070
173
1070
0
1070
142
1040
0.0
1002
}
  0
DIMENSION
  5
19E
  8
0
  2
*D14
  3
EZDXF
 10
0.0
 20
54.0
 30
0.0
 11
1.5
 21
54.225
 31
0.0
 70
32
  1
<>
 13
0.0
 23
52.0
 33
0.0
 14
3.0
 24
52.0
 34
0.0
 15
0.0
 25
0.0
 35
0.0
 16
0.0
 26
0.0
 36
0.0
 50
0.0
1001
ACAD
1000
DSTYLE
1002
{
1070
46
1040
0.5
1070
41
1040
0.25
1070
5
1000
EZ_ARROW_FILLED
1070
173
1070
0
1070
142
1040
0.0
1002
}
  0
DIMENSION
  5
1B2
  8
0
  2
*D15
  3
EZDXF
 10
0.0
 20
58.0
 30
0.0
 11
1.5
 21
58.225
 31
0.0
 70
32
  1
<>
 13
0.0
 23
56.0
 33
0.0
 14
3.0
 24
56.0
 34
0.0
 15
0.0
 25
0.0
 35
0.0
 16
0.0
 26
0.0
 36
0.0
 50
0.0
1001
ACAD
1000
DSTYLE
1002
{
1070
46
1040
0.5
1070
41
1040
0.25
1070
5
1000
INTEGRAL
1070
173
1070
0
1070
142
1040
0.0
1002
}
  0
DIMENSION
  5
1C6
  8
0
  2
*D16
  3
EZDXF
 10
0.0
 20
62.0
 30
0.0
 11
1.5
 21
62.225
 31
0.0
 70
32
  1
<>
 13
0.0
 23
60.0
 33
0.0
 14
3.0
 24
60.0
 34
0.0
 15
0.0
 25
0.0
 35
0.0
 16
0.0
 26
0.0
 36
0.0
 50
0.0
1001
ACAD
1000
DSTYLE
1002
{
1070
46
1040
0.5
1070
41
1040
0.25
1070
5
1000
NONE
1070
173
1070
0
1070
142
1040
0.0
1002
}
  0
DIMENSION
  5
1D8
  8
0
  2
*D17
  3
EZDXF
 10
0.0
 20
66.0
 30
0.0
 11
1.5
 21
66.225
 31
0.0
 70
32
  1
<>
 13
0.0
 23
64.0
 33
0.0
 14
3.0
 24
64.0
 34
0.0
 15
0.0
 25
0.0
 35
0.0
 16
0.0
 26
0.0
 36
0.0
 50
0.0
1001
ACAD
1000
DSTYLE
1002
{
1070
46
1040
0.5
1070
41
1040
0.25
1070
5
1000
OBLIQUE
1070
173
1070
0
1070
142
1040
0.0
1002
}
  0
DIMENSION
  5
1EB
  8
0
  2
*D18
  3
EZDXF
 10
0.0
 20
70.0
 30
0.0
 11
1.5
 21
70.225
 31
0.0
 70
32
  1
<>
 13
0.0
 23
68.0
 33
0.0
 14
3.0
 24
68.0
 34
0.0
 15
0.0
 25
0.0
 35
0.0
 16
0.0
 26
0.0
 36
0.0
 50
0.0
1001
ACAD
1000
DSTYLE
1002
{
1070
46
1040
0.5
1070
41
1040
0.25
1070
5
1000
OPEN
1070
173
1070
0
1070
142
1040
0.0
1002
}
  0
DIMENSION
  5
203
  8
0
  2
*D19
  3
EZDXF
 10
0.0
 20
74.0
 30
0.0
 11
1.5
 21
74.225
 31
0.0
 70
32
  1
<>
 13
0.0
 23
72.0
 33
0.0
 14
3.0
 24
72.0
 34
0.0
 15
0.0
 25
0.0
 35
0.0
 16
0.0
 26
0.0
 36
0.0
 50
0.0
1001
ACAD
1000
DSTYLE
1002
{
1070
46
1040
0.5
1070
41
1040
0.25
1070
5
1000
OPEN30
1070
173
1070
0
1070
142
1040
0.0
1002
}
  0
DIMENSION
  5
21B
  8
0
  2
*D20
  3
EZDXF
 10
0.0
 20
78.0
 30
0.0
 11
1.5
 21
78.225
 31
0.0
 70
32
  1
<>
 13
0.0
 23
76.0
 33
0.0
 14
3.0
 24
76.0
 34
0.0
 15
0.0
 25
0.0
 35
0.0
 16
0.0
 26
0.0
 36
0.0
 50
0.0
1001
ACAD
1000
DSTYLE
1002
{
1070
46
1040
0.5
1070
41
1040
0.25
1070
5
1000
OPEN90
1070
173
1070
0
1070
142
1040
0.0
1002
}
  0
DIMENSION
  5
233
  8
0
  2
*D21
  3
EZDXF
 10
0.0
 20
82.0
 30
0.0
 11
1.5
 21
82.225
 31
0.0
 70
32
  1
<>
 13
0.0
 23
80.0
 33
0.0
 14
3.0
 24
80.0
 34
0.0
 15
0.0
 25
0.0
 35
0.0
 16
0.0
 26
0.0
 36
0.0
 50
0.0
1001
ACAD
1000
DSTYLE
1002
{
1070
46
1040
0.5
1070
41
1040
0.25
1070
5
1000
ORIGIN
1070
173
1070
0
1070
142
1040
0.0
1002
}
  0
DIMENSION
  5
247
  8
0
  2
*D22
  3
EZDXF
 10
0.0
 20
86.0
 30
0.0
 11
1.5
 21
86.225
 31
0.0
 70
32
  1
<>
 13
0.0
 23
84.0
 33
0.0
 14
3.0
 24
84.0
 34
0.0
 15
0.0
 25
0.0
 35
0.0
 16
0.0
 26
0.0
 36
0.0
 50
0.0
1001
ACAD
1000
DSTYLE
1002
{
1070
46
1040
0.5
1070
41
1040
0.25
1070
5
1000
ORIGIN2
1070
173
1070
0
1070
142
1040
0.0
1002
}
  0
DIMENSION
  5
25C
  8
0
  2
*D23
  3
EZDXF
 10
0.0
 20
90.0
 30
0.0
 11
1.5
 21
90.225
 31
0.0
 70
32
  1
<>
 13
0.0
 23
88.0
 33
0.0
 14
3.0
 24
88.0
 34
0.0
 15
0.0
 25
0.0
 35
0.0
 16
0.0
 26
0.0
 36
0.0
 50
0.0
1001
ACAD
1000
DSTYLE
1002
{
1070
46
1040
0.5
1070
41
1040
0.25
1070
5
1000
SMALL
1070
173
1070
0
1070
142
1040
0.0
1002
}
  0
ENDSEC
  0
EOF
