  0
SECTION
  2
HEADER
  9
$ACADVER
  1
AC1021
  9
$ACADMAINTVER
 70
25
  9
$DWGCODEPAGE
  3
ANSI_1252
  9
$LASTSAVEDBY
  1
ezdxf
  9
$INSBASE
 10
0.0
 20
0.0
 30
0.0
  9
$EXTMIN
 10
1e+20
 20
1e+20
 30
1e+20
  9
$EXTMAX
 10
-1e+20
 20
-1e+20
 30
-1e+20
  9
$LIMMIN
 10
0.0
 20
0.0
  9
$LIMMAX
 10
420.0
 20
297.0
  9
$ORTHOMODE
 70
0
  9
$REGENMODE
 70
1
  9
$FILLMODE
 70
1
  9
$QTEXTMODE
 70
0
  9
$MIRRTEXT
 70
1
  9
$LTSCALE
 40
1.0
  9
$ATTMODE
 70
1
  9
$TEXTSIZE
 40
2.5
  9
$TRACEWID
 40
1.0
  9
$TEXTSTYLE
  7
OpenSans
  9
$CLAYER
  8
0
  9
$CELTYPE
  6
ByLayer
  9
$CECOLOR
 62
256
  9
$CELTSCALE
 40
1.0
  9
$DISPSILH
 70
0
  9
$DIMSCALE
 40
1.0
  9
$DIMASZ
 40
0.175
  9
$DIMEXO
 40
0.125
  9
$DIMDLI
 40
3.75
  9
$DIMRND
 40
0.0
  9
$DIMDLE
 40
0.0
  9
$DIMEXE
 40
0.375
  9
$DIMTP
 40
0.0
  9
$DIMTM
 40
0.0
  9
$DIMTXT
 40
0.25
  9
$DIMCEN
 40
2.5
  9
$DIMTSZ
 40
0.0
  9
$DIMTOL
 70
0
  9
$DIMLIM
 70
0
  9
$DIMTIH
 70
0
  9
$DIMTOH
 70
0
  9
$DIMSE1
 70
0
  9
$DIMSE2
 70
0
  9
$DIMTAD
 70
1
  9
$DIMZIN
 70
12
  9
$DIMBLK
  1
ARCHTICK
  9
$DIMASO
 70
1
  9
$DIMSHO
 70
1
  9
$DIMPOST
  1

  9
$DIMAPOST
  1

  9
$DIMALT
 70
0
  9
$DIMALTD
 70
3
  9
$DIMALTF
 40
0.03937007874
  9
$DIMLFAC
 40
100.0
  9
$DIMTOFL
 70
1
  9
$DIMTVP
 40
0.0
  9
$DIMTIX
 70
0
  9
$DIMSOXD
 70
0
  9
$DIMSAH
 70
0
  9
$DIMBLK1
  1

  9
$DIMBLK2
  1

  9
$DIMSTYLE
  2
EZDXF
  9
$DIMCLRD
 70
0
  9
$DIMCLRE
 70
0
  9
$DIMCLRT
 70
0
  9
$DIMTFAC
 40
0.5
  9
$DIMGAP
 40
0.1
  9
$DIMJUST
 70
0
  9
$DIMSD1
 70
0
  9
$DIMSD2
 70
0
  9
$DIMTOLJ
 70
0
  9
$DIMTZIN
 70
8
  9
$DIMALTZ
 70
0
  9
$DIMALTTZ
 70
0
  9
$DIMUPT
 70
1
  9
$DIMDEC
 70
2
  9
$DIMTDEC
 70
2
  9
$DIMALTU
 70
2
  9
$DIMALTTD
 70
3
  9
$DIMTXSTY
  7
OpenSansCondensed-Light
  9
$DIMAUNIT
 70
0
  9
$DIMADEC
 70
2
  9
$DIMALTRND
 40
0.0
  9
$DIMAZIN
 70
3
  9
$DIMDSEP
 70
46
  9
$DIMATFIT
 70
3
  9
$DIMFRAC
 70
0
  9
$DIMLDRBLK
  1

  9
$DIMLUNIT
 70
2
  9
$DIMLWD
 70
-2
  9
$DIMLWE
 70
-2
  9
$DIMTMOVE
 70
2
  9
$DIMFXL
 40
1.0
  9
$DIMFXLON
 70
0
  9
$DIMJOGANG
 40
0.785398163397
  9
$DIMTFILL
 70
0
  9
$DIMTFILLCLR
 70
0
  9
$DIMARCSYM
 70
0
  9
$DIMLTYPE
  6

  9
$DIMLTEX1
  6

  9
$DIMLTEX2
  6

  9
$LUNITS
 70
2
  9
$LUPREC
 70
4
  9
$SKETCHINC
 40
1.0
  9
$FILLETRAD
 40
10.0
  9
$AUNITS
 70
0
  9
$AUPREC
 70
2
  9
$MENU
  1
.
  9
$ELEVATION
 40
0.0
  9
$PELEVATION
 40
0.0
  9
$THICKNESS
 40
0.0
  9
$LIMCHECK
 70
0
  9
$CHAMFERA
 40
0.0
  9
$CHAMFERB
 40
0.0
  9
$CHAMFERC
 40
0.0
  9
$CHAMFERD
 40
0.0
  9
$SKPOLY
 70
0
  9
$TDCREATE
 40
2460286.6330324076
  9
$TDUCREATE
 40
2458532.153996898
  9
$TDUPDATE
 40
2460286.6330324076
  9
$TDUUPDATE
 40
2458532.1544311
  9
$TDINDWG
 40
0.0
  9
$TDUSRTIMER
 40
0.0
  9
$USRTIMER
 70
1
  9
$ANGBASE
 50
0.0
  9
$ANGDIR
 70
0
  9
$PDMODE
 70
0
  9
$PDSIZE
 40
0.0
  9
$PLINEWID
 40
0.0
  9
$SPLFRAME
 70
0
  9
$SPLINETYPE
 70
6
  9
$SPLINESEGS
 70
8
  9
$HANDSEED
  5
1FB
  9
$SURFTAB1
 70
6
  9
$SURFTAB2
 70
6
  9
$SURFTYPE
 70
6
  9
$SURFU
 70
6
  9
$SURFV
 70
6
  9
$UCSBASE
  2

  9
$UCSNAME
  2

  9
$UCSORG
 10
0.0
 20
0.0
 30
0.0
  9
$UCSXDIR
 10
1.0
 20
0.0
 30
0.0
  9
$UCSYDIR
 10
0.0
 20
1.0
 30
0.0
  9
$UCSORTHOREF
  2

  9
$UCSORTHOVIEW
 70
0
  9
$UCSORGTOP
 10
0.0
 20
0.0
 30
0.0
  9
$UCSORGBOTTOM
 10
0.0
 20
0.0
 30
0.0
  9
$UCSORGLEFT
 10
0.0
 20
0.0
 30
0.0
  9
$UCSORGRIGHT
 10
0.0
 20
0.0
 30
0.0
  9
$UCSORGFRONT
 10
0.0
 20
0.0
 30
0.0
  9
$UCSORGBACK
 10
0.0
 20
0.0
 30
0.0
  9
$PUCSBASE
  2

  9
$PUCSNAME
  2

  9
$PUCSORG
 10
0.0
 20
0.0
 30
0.0
  9
$PUCSXDIR
 10
1.0
 20
0.0
 30
0.0
  9
$PUCSYDIR
 10
0.0
 20
1.0
 30
0.0
  9
$PUCSORTHOREF
  2

  9
$PUCSORTHOVIEW
 70
0
  9
$PUCSORGTOP
 10
0.0
 20
0.0
 30
0.0
  9
$PUCSORGBOTTOM
 10
0.0
 20
0.0
 30
0.0
  9
$PUCSORGLEFT
 10
0.0
 20
0.0
 30
0.0
  9
$PUCSORGRIGHT
 10
0.0
 20
0.0
 30
0.0
  9
$PUCSORGFRONT
 10
0.0
 20
0.0
 30
0.0
  9
$PUCSORGBACK
 10
0.0
 20
0.0
 30
0.0
  9
$USERI1
 70
0
  9
$USERI2
 70
0
  9
$USERI3
 70
0
  9
$USERI4
 70
0
  9
$USERI5
 70
0
  9
$USERR1
 40
0.0
  9
$USERR2
 40
0.0
  9
$USERR3
 40
0.0
  9
$USERR4
 40
0.0
  9
$USERR5
 40
0.0
  9
$WORLDVIEW
 70
1
  9
$SHADEDGE
 70
3
  9
$SHADEDIF
 70
70
  9
$TILEMODE
 70
1
  9
$MAXACTVP
 70
64
  9
$PINSBASE
 10
0.0
 20
0.0
 30
0.0
  9
$PLIMCHECK
 70
0
  9
$PEXTMIN
 10
1e+20
 20
1e+20
 30
1e+20
  9
$PEXTMAX
 10
-1e+20
 20
-1e+20
 30
-1e+20
  9
$PLIMMIN
 10
0.0
 20
0.0
  9
$PLIMMAX
 10
420.0
 20
297.0
  9
$UNITMODE
 70
0
  9
$VISRETAIN
 70
1
  9
$PLINEGEN
 70
0
  9
$PSLTSCALE
 70
1
  9
$TREEDEPTH
 70
3020
  9
$CMLSTYLE
  2
Standard
  9
$CMLJUST
 70
0
  9
$CMLSCALE
 40
20.0
  9
$PROXYGRAPHICS
 70
1
  9
$MEASUREMENT
 70
1
  9
$CELWEIGHT
370
-1
  9
$ENDCAPS
280
0
  9
$JOINSTYLE
280
0
  9
$LWDISPLAY
290
0
  9
$INSUNITS
 70
6
  9
$HYPERLINKBASE
  1

  9
$STYLESHEET
  1

  9
$XEDIT
290
1
  9
$CEPSNTYPE
380
0
  9
$PSTYLEMODE
290
1
  9
$FINGERPRINTGUID
  2
{7E870435-D49B-49A5-922F-92DB4172BD1B}
  9
$VERSIONGUID
  2
{9001A3E5-A076-44FF-A2A3-8C72911AC26F}
  9
$EXTNAMES
290
1
  9
$PSVPSCALE
 40
0.0
  9
$OLESTARTUP
290
0
  9
$SORTENTS
280
127
  9
$INDEXCTL
280
0
  9
$HIDETEXT
280
1
  9
$XCLIPFRAME
290
0
  9
$HALOGAP
280
0
  9
$OBSCOLOR
 70
257
  9
$OBSLTYPE
280
0
  9
$INTERSECTIONDISPLAY
280
0
  9
$INTERSECTIONCOLOR
 70
257
  9
$DIMASSOC
280
2
  9
$PROJECTNAME
  1

  9
$CAMERADISPLAY
290
0
  9
$LENSLENGTH
 40
50.0
  9
$CAMERAHEIGHT
 40
0.0
  9
$STEPSPERSEC
 40
24.0
  9
$STEPSIZE
 40
100.0
  9
$3DDWFPREC
 40
2.0
  9
$PSOLWIDTH
 40
0.005
  9
$PSOLHEIGHT
 40
0.08
  9
$LOFTANG1
 40
1.570796326795
  9
$LOFTANG2
 40
1.570796326795
  9
$LOFTMAG1
 40
0.0
  9
$LOFTMAG2
 40
0.0
  9
$LOFTPARAM
 70
7
  9
$LOFTNORMALS
280
1
  9
$LATITUDE
 40
37.795
  9
$LONGITUDE
 40
-122.394
  9
$NORTHDIRECTION
 40
0.0
  9
$TIMEZONE
 70
-8000
  9
$LIGHTGLYPHDISPLAY
280
1
  9
$TILEMODELIGHTSYNCH
280
1
  9
$CMATERIAL
347
20
  9
$SOLIDHIST
280
0
  9
$SHOWHIST
280
1
  9
$DWFFRAME
280
2
  9
$DGNFRAME
280
2
  9
$REALWORLDSCALE
290
1
  9
$INTERFERECOLOR
 62
256
  9
$CSHADOW
280
0
  9
$SHADOWPLANELOCATION
 40
0.0
  0
ENDSEC
  0
SECTION
  2
CLASSES
  0
CLASS
  1
ACDBDICTIONARYWDFLT
  2
AcDbDictionaryWithDefault
  3
ObjectDBX Classes
 90
0
 91
0
280
0
281
0
  0
CLASS
  1
SUN
  2
AcDbSun
  3
SCENEOE
 90
1153
 91
0
280
0
281
0
  0
CLASS
  1
VISUALSTYLE
  2
AcDbVisualStyle
  3
ObjectDBX Classes
 90
4095
 91
0
280
0
281
0
  0
CLASS
  1
MATERIAL
  2
AcDbMaterial
  3
ObjectDBX Classes
 90
1153
 91
0
280
0
281
0
  0
CLASS
  1
SCALE
  2
AcDbScale
  3
ObjectDBX Classes
 90
1153
 91
0
280
0
281
0
  0
CLASS
  1
TABLESTYLE
  2
AcDbTableStyle
  3
ObjectDBX Classes
 90
4095
 91
0
280
0
281
0
  0
CLASS
  1
MLEADERSTYLE
  2
AcDbMLeaderStyle
  3
ACDB_MLEADERSTYLE_CLASS
 90
4095
 91
0
280
0
281
0
  0
CLASS
  1
DICTIONARYVAR
  2
AcDbDictionaryVar
  3
ObjectDBX Classes
 90
0
 91
0
280
0
281
0
  0
CLASS
  1
CELLSTYLEMAP
  2
AcDbCellStyleMap
  3
ObjectDBX Classes
 90
1152
 91
0
280
0
281
0
  0
CLASS
  1
MENTALRAYRENDERSETTINGS
  2
AcDbMentalRayRenderSettings
  3
SCENEOE
 90
1024
 91
0
280
0
281
0
  0
CLASS
  1
ACDBDETAILVIEWSTYLE
  2
AcDbDetailViewStyle
  3
ObjectDBX Classes
 90
1025
 91
0
280
0
281
0
  0
CLASS
  1
ACDBSECTIONVIEWSTYLE
  2
AcDbSectionViewStyle
  3
ObjectDBX Classes
 90
1025
 91
0
280
0
281
0
  0
CLASS
  1
RASTERVARIABLES
  2
AcDbRasterVariables
  3
ISM
 90
0
 91
0
280
0
281
0
  0
CLASS
  1
ACDBPLACEHOLDER
  2
AcDbPlaceHolder
  3
ObjectDBX Classes
 90
0
 91
0
280
0
281
0
  0
CLASS
  1
LAYOUT
  2
AcDbLayout
  3
ObjectDBX Classes
 90
0
 91
0
280
0
281
0
  0
ENDSEC
  0
SECTION
  2
TABLES
  0
TABLE
  2
VPORT
  5
8
330
0
100
AcDbSymbolTable
 70
1
  0
VPORT
  5
23
330
8
100
AcDbSymbolTableRecord
100
AcDbViewportTableRecord
  2
*Active
 70
0
 10
0.0
 20
0.0
 11
1.0
 21
1.0
 12
0.0
 22
0.0
 13
0.0
 23
0.0
 14
0.5
 24
0.5
 15
0.5
 25
0.5
 16
0.0
 26
0.0
 36
1.0
 17
0.0
 27
0.0
 37
0.0
 40
1000.0
 41
1.34
 42
50.0
 43
0.0
 44
0.0
 50
0.0
 51
0.0
 71
0
 72
1000
 73
1
 74
3
 75
0
 76
0
 77
0
 78
0
281
0
 65
0
146
0.0
  0
ENDTAB
  0
TABLE
  2
LTYPE
  5
2
330
0
100
AcDbSymbolTable
 70
21
  0
LTYPE
  5
24
330
2
100
AcDbSymbolTableRecord
100
AcDbLinetypeTableRecord
  2
ByBlock
 70
0
  3

 72
65
 73
0
 40
0.0
  0
LTYPE
  5
25
330
2
100
AcDbSymbolTableRecord
100
AcDbLinetypeTableRecord
  2
ByLayer
 70
0
  3

 72
65
 73
0
 40
0.0
  0
LTYPE
  5
26
330
2
100
AcDbSymbolTableRecord
100
AcDbLinetypeTableRecord
  2
Continuous
 70
0
  3

 72
65
 73
0
 40
0.0
  0
LTYPE
  5
2F
330
2
100
AcDbSymbolTableRecord
100
AcDbLinetypeTableRecord
  2
CENTER
 70
0
  3
Center ____ _ ____ _ ____ _ ____ _ ____ _ ____
 72
65
 73
4
 40
5.08
 49
3.175
 74
0
 49
-0.635
 74
0
 49
0.635
 74
0
 49
-0.635
 74
0
  0
LTYPE
  5
30
330
2
100
AcDbSymbolTableRecord
100
AcDbLinetypeTableRecord
  2
CENTERX2
 70
0
  3
Center (2x) ________  __  ________  __  ________
 72
65
 73
4
 40
8.89
 49
6.35
 74
0
 49
-0.635
 74
0
 49
1.27
 74
0
 49
-0.635
 74
0
  0
LTYPE
  5
31
330
2
100
AcDbSymbolTableRecord
100
AcDbLinetypeTableRecord
  2
CENTER2
 70
0
  3
Center (.5x) ____ _ ____ _ ____ _ ____ _ ____
 72
65
 73
4
 40
2.54
 49
1.587
 74
0
 49
-0.318
 74
0
 49
0.318
 74
0
 49
-0.318
 74
0
  0
LTYPE
  5
32
330
2
100
AcDbSymbolTableRecord
100
AcDbLinetypeTableRecord
  2
DASHED
 70
0
  3
Dashed __ __ __ __ __ __ __ __ __ __ __ __ __ _
 72
65
 73
2
 40
1.524
 49
1.27
 74
0
 49
-0.254
 74
0
  0
LTYPE
  5
33
330
2
100
AcDbSymbolTableRecord
100
AcDbLinetypeTableRecord
  2
DASHEDX2
 70
0
  3
Dashed (2x) ____  ____  ____  ____  ____  ____
 72
65
 73
2
 40
3.048
 49
2.54
 74
0
 49
-0.508
 74
0
  0
LTYPE
  5
34
330
2
100
AcDbSymbolTableRecord
100
AcDbLinetypeTableRecord
  2
DASHED2
 70
0
  3
Dashed (.5x) _ _ _ _ _ _ _ _ _ _ _ _ _ _
 72
65
 73
2
 40
0.762
 49
0.635
 74
0
 49
-0.127
 74
0
  0
LTYPE
  5
35
330
2
100
AcDbSymbolTableRecord
100
AcDbLinetypeTableRecord
  2
PHANTOM
 70
0
  3
Phantom ______  __  __  ______  __  __  ______
 72
65
 73
6
 40
6.35
 49
3.175
 74
0
 49
-0.635
 74
0
 49
0.635
 74
0
 49
-0.635
 74
0
 49
0.635
 74
0
 49
-0.635
 74
0
  0
LTYPE
  5
36
330
2
100
AcDbSymbolTableRecord
100
AcDbLinetypeTableRecord
  2
PHANTOMX2
 70
0
  3
Phantom (2x)____________    ____    ____    ____________
 72
65
 73
6
 40
10.795
 49
6.35
 74
0
 49
-0.635
 74
0
 49
1.27
 74
0
 49
-0.635
 74
0
 49
1.27
 74
0
 49
-0.635
 74
0
  0
LTYPE
  5
37
330
2
100
AcDbSymbolTableRecord
100
AcDbLinetypeTableRecord
  2
PHANTOM2
 70
0
  3
Phantom (.5x) ___ _ _ ___ _ _ ___ _ _ ___ _ _ ___
 72
65
 73
6
 40
3.175
 49
1.587
 74
0
 49
-0.318
 74
0
 49
0.318
 74
0
 49
-0.318
 74
0
 49
0.318
 74
0
 49
-0.318
 74
0
  0
LTYPE
  5
38
330
2
100
AcDbSymbolTableRecord
100
AcDbLinetypeTableRecord
  2
DASHDOT
 70
0
  3
Dash dot __ . __ . __ . __ . __ . __ . __ . __
 72
65
 73
4
 40
3.556
 49
2.54
 74
0
 49
-0.508
 74
0
 49
0.0
 74
0
 49
-0.508
 74
0
  0
LTYPE
  5
39
330
2
100
AcDbSymbolTableRecord
100
AcDbLinetypeTableRecord
  2
DASHDOTX2
 70
0
  3
Dash dot (2x) ____  .  ____  .  ____  .  ____
 72
65
 73
4
 40
6.096
 49
5.08
 74
0
 49
-0.508
 74
0
 49
0.0
 74
0
 49
-0.508
 74
0
  0
LTYPE
  5
3A
330
2
100
AcDbSymbolTableRecord
100
AcDbLinetypeTableRecord
  2
DASHDOT2
 70
0
  3
Dash dot (.5x) _ . _ . _ . _ . _ . _ . _ . _
 72
65
 73
4
 40
1.778
 49
1.27
 74
0
 49
-0.254
 74
0
 49
0.0
 74
0
 49
-0.254
 74
0
  0
LTYPE
  5
3B
330
2
100
AcDbSymbolTableRecord
100
AcDbLinetypeTableRecord
  2
DOT
 70
0
  3
Dot .  .  .  .  .  .  .  .  .  .  .  .  .  .  .  .
 72
65
 73
2
 40
0.508
 49
0.0
 74
0
 49
-0.508
 74
0
  0
LTYPE
  5
3C
330
2
100
AcDbSymbolTableRecord
100
AcDbLinetypeTableRecord
  2
DOTX2
 70
0
  3
Dot (2x) .    .    .    .    .    .    .    . 
 72
65
 73
2
 40
1.016
 49
0.0
 74
0
 49
-1.016
 74
0
  0
LTYPE
  5
3D
330
2
100
AcDbSymbolTableRecord
100
AcDbLinetypeTableRecord
  2
DOT2
 70
0
  3
Dot (.5) . . . . . . . . . . . . . . . . . . . 
 72
65
 73
2
 40
0.254
 49
0.0
 74
0
 49
-0.254
 74
0
  0
LTYPE
  5
3E
330
2
100
AcDbSymbolTableRecord
100
AcDbLinetypeTableRecord
  2
DIVIDE
 70
0
  3
Divide __ . . __ . . __ . . __ . . __ . . __
 72
65
 73
6
 40
4.064
 49
2.54
 74
0
 49
-0.508
 74
0
 49
0.0
 74
0
 49
-0.508
 74
0
 49
0.0
 74
0
 49
-0.508
 74
0
  0
LTYPE
  5
3F
330
2
100
AcDbSymbolTableRecord
100
AcDbLinetypeTableRecord
  2
DIVIDEX2
 70
0
  3
Divide (2x) ____  . .  ____  . .  ____  . .  ____
 72
65
 73
6
 40
6.604
 49
5.08
 74
0
 49
-0.508
 74
0
 49
0.0
 74
0
 49
-0.508
 74
0
 49
0.0
 74
0
 49
-0.508
 74
0
  0
LTYPE
  5
40
330
2
100
AcDbSymbolTableRecord
100
AcDbLinetypeTableRecord
  2
DIVIDE2
 70
0
  3
Divide(.5x) _ . _ . _ . _ . _ . _ . _ . _
 72
65
 73
6
 40
2.032
 49
1.27
 74
0
 49
-0.254
 74
0
 49
0.0
 74
0
 49
-0.254
 74
0
 49
0.0
 74
0
 49
-0.254
 74
0
  0
ENDTAB
  0
TABLE
  2
LAYER
  5
1
330
0
100
AcDbSymbolTable
 70
2
  0
LAYER
  5
27
330
1
100
AcDbSymbolTableRecord
100
AcDbLayerTableRecord
  2
0
 70
0
 62
7
  6
Continuous
370
-3
390
13
347
21
  0
LAYER
  5
28
330
1
100
AcDbSymbolTableRecord
100
AcDbLayerTableRecord
  2
Defpoints
 70
0
 62
7
  6
Continuous
290
0
370
-3
390
13
347
21
  0
ENDTAB
  0
TABLE
  2
STYLE
  5
5
330
0
100
AcDbSymbolTable
 70
26
  0
STYLE
  5
29
330
5
100
AcDbSymbolTableRecord
100
AcDbTextStyleTableRecord
  2
Standard
 70
0
 40
0.0
 41
1.0
 50
0.0
 71
0
 42
2.5
  3
txt
  4

  0
STYLE
  5
41
330
5
100
AcDbSymbolTableRecord
100
AcDbTextStyleTableRecord
  2
OpenSans-Light
 70
0
 40
0.0
 41
1.0
 50
0.0
 71
0
 42
2.5
  3
OpenSans-Light.ttf
  4

  0
STYLE
  5
42
330
5
100
AcDbSymbolTableRecord
100
AcDbTextStyleTableRecord
  2
OpenSans-Light-Italic
 70
0
 40
0.0
 41
1.0
 50
0.0
 71
0
 42
2.5
  3
OpenSans-LightItalic.ttf
  4

  0
STYLE
  5
43
330
5
100
AcDbSymbolTableRecord
100
AcDbTextStyleTableRecord
  2
OpenSans
 70
0
 40
0.0
 41
1.0
 50
0.0
 71
0
 42
2.5
  3
OpenSans-Regular.ttf
  4

  0
STYLE
  5
44
330
5
100
AcDbSymbolTableRecord
100
AcDbTextStyleTableRecord
  2
OpenSans-Italic
 70
0
 40
0.0
 41
1.0
 50
0.0
 71
0
 42
2.5
  3
OpenSans-Italic.ttf
  4

  0
STYLE
  5
45
330
5
100
AcDbSymbolTableRecord
100
AcDbTextStyleTableRecord
  2
OpenSans-SemiBold
 70
0
 40
0.0
 41
1.0
 50
0.0
 71
0
 42
2.5
  3
OpenSans-SemiBold.ttf
  4

  0
STYLE
  5
46
330
5
100
AcDbSymbolTableRecord
100
AcDbTextStyleTableRecord
  2
OpenSans-SemiBoldItalic
 70
0
 40
0.0
 41
1.0
 50
0.0
 71
0
 42
2.5
  3
OpenSans-SemiBoldItalic.ttf
  4

  0
STYLE
  5
47
330
5
100
AcDbSymbolTableRecord
100
AcDbTextStyleTableRecord
  2
OpenSans-Bold
 70
0
 40
0.0
 41
1.0
 50
0.0
 71
0
 42
2.5
  3
OpenSans-Bold.ttf
  4

  0
STYLE
  5
48
330
5
100
AcDbSymbolTableRecord
100
AcDbTextStyleTableRecord
  2
OpenSans-BoldItalic
 70
0
 40
0.0
 41
1.0
 50
0.0
 71
0
 42
2.5
  3
OpenSans-BoldItalic.ttf
  4

  0
STYLE
  5
49
330
5
100
AcDbSymbolTableRecord
100
AcDbTextStyleTableRecord
  2
OpenSans-ExtraBold
 70
0
 40
0.0
 41
1.0
 50
0.0
 71
0
 42
2.5
  3
OpenSans-ExtraBold.ttf
  4

  0
STYLE
  5
4A
330
5
100
AcDbSymbolTableRecord
100
AcDbTextStyleTableRecord
  2
OpenSans-ExtraBoldItalic
 70
0
 40
0.0
 41
1.0
 50
0.0
 71
0
 42
2.5
  3
OpenSans-ExtraBoldItalic.ttf
  4

  0
STYLE
  5
4B
330
5
100
AcDbSymbolTableRecord
100
AcDbTextStyleTableRecord
  2
OpenSansCondensed-Bold
 70
0
 40
0.0
 41
1.0
 50
0.0
 71
0
 42
2.5
  3
OpenSansCondensed-Bold.ttf
  4

  0
STYLE
  5
4C
330
5
100
AcDbSymbolTableRecord
100
AcDbTextStyleTableRecord
  2
OpenSansCondensed-Light
 70
0
 40
0.0
 41
1.0
 50
0.0
 71
0
 42
2.5
  3
OpenSansCondensed-Light.ttf
  4

  0
STYLE
  5
4D
330
5
100
AcDbSymbolTableRecord
100
AcDbTextStyleTableRecord
  2
OpenSansCondensed-Italic
 70
0
 40
0.0
 41
1.0
 50
0.0
 71
0
 42
2.5
  3
OpenSansCondensed-LightItalic.ttf
  4

  0
STYLE
  5
4E
330
5
100
AcDbSymbolTableRecord
100
AcDbTextStyleTableRecord
  2
LiberationSans
 70
0
 40
0.0
 41
1.0
 50
0.0
 71
0
 42
2.5
  3
LiberationSans-Regular.ttf
  4

  0
STYLE
  5
4F
330
5
100
AcDbSymbolTableRecord
100
AcDbTextStyleTableRecord
  2
LiberationSans-Bold
 70
0
 40
0.0
 41
1.0
 50
0.0
 71
0
 42
2.5
  3
LiberationSans-Bold.ttf
  4

  0
STYLE
  5
50
330
5
100
AcDbSymbolTableRecord
100
AcDbTextStyleTableRecord
  2
LiberationSans-BoldItalic
 70
0
 40
0.0
 41
1.0
 50
0.0
 71
0
 42
2.5
  3
LiberationSans-BoldItalic.ttf
  4

  0
STYLE
  5
51
330
5
100
AcDbSymbolTableRecord
100
AcDbTextStyleTableRecord
  2
LiberationSans-Italic
 70
0
 40
0.0
 41
1.0
 50
0.0
 71
0
 42
2.5
  3
LiberationSans-Italic.ttf
  4

  0
STYLE
  5
52
330
5
100
AcDbSymbolTableRecord
100
AcDbTextStyleTableRecord
  2
LiberationSerif
 70
0
 40
0.0
 41
1.0
 50
0.0
 71
0
 42
2.5
  3
LiberationSerif-Regular.ttf
  4

  0
STYLE
  5
53
330
5
100
AcDbSymbolTableRecord
100
AcDbTextStyleTableRecord
  2
LiberationSerif-Bold
 70
0
 40
0.0
 41
1.0
 50
0.0
 71
0
 42
2.5
  3
LiberationSerif-Bold.ttf
  4

  0
STYLE
  5
54
330
5
100
AcDbSymbolTableRecord
100
AcDbTextStyleTableRecord
  2
LiberationSerif-BoldItalic
 70
0
 40
0.0
 41
1.0
 50
0.0
 71
0
 42
2.5
  3
LiberationSerif-BoldItalic.ttf
  4

  0
STYLE
  5
55
330
5
100
AcDbSymbolTableRecord
100
AcDbTextStyleTableRecord
  2
LiberationSerif-Italic
 70
0
 40
0.0
 41
1.0
 50
0.0
 71
0
 42
2.5
  3
LiberationSerif-Italic.ttf
  4

  0
STYLE
  5
56
330
5
100
AcDbSymbolTableRecord
100
AcDbTextStyleTableRecord
  2
LiberationMono
 70
0
 40
0.0
 41
1.0
 50
0.0
 71
0
 42
2.5
  3
LiberationMono-Regular.ttf
  4

  0
STYLE
  5
57
330
5
100
AcDbSymbolTableRecord
100
AcDbTextStyleTableRecord
  2
LiberationMono-Bold
 70
0
 40
0.0
 41
1.0
 50
0.0
 71
0
 42
2.5
  3
LiberationMono-Bold.ttf
  4

  0
STYLE
  5
58
330
5
100
AcDbSymbolTableRecord
100
AcDbTextStyleTableRecord
  2
LiberationMono-BoldItalic
 70
0
 40
0.0
 41
1.0
 50
0.0
 71
0
 42
2.5
  3
LiberationMono-BoldItalic.ttf
  4

  0
STYLE
  5
59
330
5
100
AcDbSymbolTableRecord
100
AcDbTextStyleTableRecord
  2
LiberationMono-Italic
 70
0
 40
0.0
 41
1.0
 50
0.0
 71
0
 42
2.5
  3
LiberationMono-Italic.ttf
  4

  0
ENDTAB
  0
TABLE
  2
VIEW
  5
7
330
0
100
AcDbSymbolTable
 70
0
  0
ENDTAB
  0
TABLE
  2
UCS
  5
6
330
0
100
AcDbSymbolTable
 70
0
  0
ENDTAB
  0
TABLE
  2
APPID
  5
3
330
0
100
AcDbSymbolTable
 70
3
  0
APPID
  5
2A
330
3
100
AcDbSymbolTableRecord
100
AcDbRegAppTableRecord
  2
ACAD
 70
0
  0
APPID
  5
1F8
330
3
100
AcDbSymbolTableRecord
100
AcDbRegAppTableRecord
  2
HATCHBACKGROUNDCOLOR
 70
0
  0
APPID
  5
1F9
330
3
100
AcDbSymbolTableRecord
100
AcDbRegAppTableRecord
  2
EZDXF
 70
0
  0
ENDTAB
  0
TABLE
  2
DIMSTYLE
  5
4
330
0
100
AcDbSymbolTable
 70
14
100
AcDbDimStyleTable
  0
DIMSTYLE
105
2B
330
4
100
AcDbSymbolTableRecord
100
AcDbDimStyleTableRecord
  2
Standard
 70
0
 40
1.0
 41
2.5
 42
0.625
 43
3.75
 44
1.25
 45
0.0
 46
0.0
 47
0.0
 48
0.0
 49
2.5
140
2.5
141
2.5
142
0.0
143
0.03937007874
144
1.0
145
0.0
146
1.0
147
0.625
148
0.0
 69
0
 70
0
 71
0
 72
0
 73
0
 74
0
 75
0
 76
0
 77
1
 78
8
 79
3
170
0
171
3
172
1
173
0
174
0
175
0
176
0
177
0
178
0
179
2
271
2
272
2
273
2
274
3
275
0
276
0
277
2
278
44
279
0
280
0
281
0
282
0
283
0
284
8
285
0
286
0
288
0
289
3
290
0
371
-2
372
-2
  0
DIMSTYLE
105
73
330
4
100
AcDbSymbolTableRecord
100
AcDbDimStyleTableRecord
  2
EZDXF
 70
0
 40
1.0
 41
0.175
 42
0.125
 43
3.75
 44
0.375
 45
0.0
 46
0.0
 47
0.0
 48
0.0
 49
2.5
140
0.25
141
2.5
142
0.0
143
0.03937007874
144
100.0
145
0.0
146
0.5
147
0.1
148
0.0
 69
0
 70
0
 71
0
 72
0
 73
0
 74
0
 75
0
 76
0
 77
1
 78
12
 79
3
170
0
171
3
172
1
173
0
174
0
175
0
176
0
177
0
178
0
179
2
271
2
272
2
273
2
274
3
275
0
276
0
277
2
278
46
279
2
280
0
281
0
282
0
283
0
284
8
285
0
286
0
288
1
289
3
290
0
340
4C
342
74
371
-2
372
-2
  0
DIMSTYLE
105
7C
330
4
100
AcDbSymbolTableRecord
100
AcDbDimStyleTableRecord
  2
EZ_M_100_H25_CM
 70
0
 40
1.0
 41
0.25
 42
0.125
 43
3.75
 44
0.375
 45
0.0
 46
0.0
 47
0.0
 48
0.0
 49
2.5
140
0.25
141
2.5
142
0.125
143
0.03937007874
144
100.0
145
0.0
146
0.5
147
0.1
148
0.0
 69
0
 70
0
 71
0
 72
0
 73
0
 74
0
 75
0
 76
0
 77
1
 78
12
 79
3
170
0
171
3
172
1
173
0
174
0
175
0
176
0
177
0
178
0
179
2
271
2
272
2
273
2
274
3
275
0
276
0
277
2
278
46
279
2
280
0
281
0
282
0
283
0
284
8
285
0
286
0
288
1
289
3
290
0
340
4C
371
-2
372
-2
  0
DIMSTYLE
105
7D
330
4
100
AcDbSymbolTableRecord
100
AcDbDimStyleTableRecord
  2
EZ_M_50_H25_CM
 70
0
 40
1.0
 41
0.125
 42
0.0625
 43
3.75
 44
0.1875
 45
0.0
 46
0.0
 47
0.0
 48
0.0
 49
2.5
140
0.125
141
2.5
142
0.0625
143
0.03937007874
144
100.0
145
0.0
146
0.5
147
0.05
148
0.0
 69
0
 70
0
 71
0
 72
0
 73
0
 74
0
 75
0
 76
0
 77
1
 78
12
 79
3
170
0
171
3
172
1
173
0
174
0
175
0
176
0
177
0
178
0
179
2
271
2
272
2
273
2
274
3
275
0
276
0
277
2
278
46
279
2
280
0
281
0
282
0
283
0
284
8
285
0
286
0
288
1
289
3
290
0
340
4C
371
-2
372
-2
  0
DIMSTYLE
105
7E
330
4
100
AcDbSymbolTableRecord
100
AcDbDimStyleTableRecord
  2
EZ_M_25_H25_CM
 70
0
 40
1.0
 41
0.0625
 42
0.03125
 43
3.75
 44
0.09375
 45
0.0
 46
0.0
 47
0.0
 48
0.0
 49
2.5
140
0.0625
141
2.5
142
0.03125
143
0.03937007874
144
100.0
145
0.0
146
0.5
147
0.025
148
0.0
 69
0
 70
0
 71
0
 72
0
 73
0
 74
0
 75
0
 76
0
 77
1
 78
12
 79
3
170
0
171
3
172
1
173
0
174
0
175
0
176
0
177
0
178
0
179
2
271
2
272
2
273
2
274
3
275
0
276
0
277
2
278
46
279
2
280
0
281
0
282
0
283
0
284
8
285
0
286
0
288
1
289
3
290
0
340
4C
371
-2
372
-2
  0
DIMSTYLE
105
7F
330
4
100
AcDbSymbolTableRecord
100
AcDbDimStyleTableRecord
  2
EZ_M_20_H25_CM
 70
0
 40
1.0
 41
0.05
 42
0.025
 43
3.75
 44
0.07500000000000001
 45
0.0
 46
0.0
 47
0.0
 48
0.0
 49
2.5
140
0.05
141
2.5
142
0.025
143
0.03937007874
144
100.0
145
0.0
146
0.5
147
0.020000000000000004
148
0.0
 69
0
 70
0
 71
0
 72
0
 73
0
 74
0
 75
0
 76
0
 77
1
 78
12
 79
3
170
0
171
3
172
1
173
0
174
0
175
0
176
0
177
0
178
0
179
2
271
2
272
2
273
2
274
3
275
0
276
0
277
2
278
46
279
2
280
0
281
0
282
0
283
0
284
8
285
0
286
0
288
1
289
3
290
0
340
4C
371
-2
372
-2
  0
DIMSTYLE
105
80
330
4
100
AcDbSymbolTableRecord
100
AcDbDimStyleTableRecord
  2
EZ_M_10_H25_CM
 70
0
 40
1.0
 41
0.025
 42
0.0125
 43
3.75
 44
0.037500000000000006
 45
0.0
 46
0.0
 47
0.0
 48
0.0
 49
2.5
140
0.025
141
2.5
142
0.0125
143
0.03937007874
144
100.0
145
0.0
146
0.5
147
0.010000000000000002
148
0.0
 69
0
 70
0
 71
0
 72
0
 73
0
 74
0
 75
0
 76
0
 77
1
 78
12
 79
3
170
0
171
3
172
1
173
0
174
0
175
0
176
0
177
0
178
0
179
2
271
2
272
2
273
2
274
3
275
0
276
0
277
2
278
46
279
2
280
0
281
0
282
0
283
0
284
8
285
0
286
0
288
1
289
3
290
0
340
4C
371
-2
372
-2
  0
DIMSTYLE
105
81
330
4
100
AcDbSymbolTableRecord
100
AcDbDimStyleTableRecord
  2
EZ_M_5_H25_CM
 70
0
 40
1.0
 41
0.0125
 42
0.00625
 43
3.75
 44
0.018750000000000003
 45
0.0
 46
0.0
 47
0.0
 48
0.0
 49
2.5
140
0.0125
141
2.5
142
0.00625
143
0.03937007874
144
100.0
145
0.0
146
0.5
147
0.005000000000000001
148
0.0
 69
0
 70
0
 71
0
 72
0
 73
0
 74
0
 75
0
 76
0
 77
1
 78
12
 79
3
170
0
171
3
172
1
173
0
174
0
175
0
176
0
177
0
178
0
179
2
271
2
272
2
273
2
274
3
275
0
276
0
277
2
278
46
279
2
280
0
281
0
282
0
283
0
284
8
285
0
286
0
288
1
289
3
290
0
340
4C
371
-2
372
-2
  0
DIMSTYLE
105
82
330
4
100
AcDbSymbolTableRecord
100
AcDbDimStyleTableRecord
  2
EZ_M_1_H25_CM
 70
0
 40
1.0
 41
0.0025
 42
0.00125
 43
3.75
 44
0.00375
 45
0.0
 46
0.0
 47
0.0
 48
0.0
 49
2.5
140
0.0025
141
2.5
142
0.00125
143
0.03937007874
144
100.0
145
0.0
146
0.5
147
0.001
148
0.0
 69
0
 70
0
 71
0
 72
0
 73
0
 74
0
 75
0
 76
0
 77
1
 78
12
 79
3
170
0
171
3
172
1
173
0
174
0
175
0
176
0
177
0
178
0
179
2
271
2
272
2
273
2
274
3
275
0
276
0
277
2
278
46
279
2
280
0
281
0
282
0
283
0
284
8
285
0
286
0
288
1
289
3
290
0
340
4C
371
-2
372
-2
  0
DIMSTYLE
105
83
330
4
100
AcDbSymbolTableRecord
100
AcDbDimStyleTableRecord
  2
EZ_RADIUS
 70
0
 40
1.0
 41
0.25
 42
0.125
 43
3.75
 44
0.375
 45
0.0
 46
0.0
 47
0.0
 48
0.0
 49
2.5
140
0.25
141
0.0
142
0.0
143
0.03937007874
144
100.0
145
0.0
146
0.5
147
0.1
148
0.0
 69
0
 70
0
 71
0
 72
0
 73
0
 74
0
 75
0
 76
0
 77
1
 78
12
 79
3
170
0
171
3
172
0
173
0
174
0
175
0
176
0
177
0
178
0
179
2
271
2
272
2
273
2
274
3
275
0
276
0
277
2
278
46
279
1
280
0
281
0
282
0
283
0
284
8
285
0
286
0
288
1
289
3
290
0
340
4C
342
84
371
-2
372
-2
  0
DIMSTYLE
105
88
330
4
100
AcDbSymbolTableRecord
100
AcDbDimStyleTableRecord
  2
EZ_RADIUS_INSIDE
 70
0
 40
1.0
 41
0.25
 42
0.125
 43
3.75
 44
0.375
 45
0.0
 46
0.0
 47
0.0
 48
0.0
 49
2.5
140
0.25
141
0.0
142
0.0
143
0.03937007874
144
100.0
145
0.0
146
0.5
147
0.1
148
0.0
 69
0
 70
0
 71
0
 72
0
 73
0
 74
0
 75
0
 76
0
 77
0
 78
12
 79
3
170
0
171
3
172
0
173
0
174
1
175
0
176
0
177
0
178
0
179
2
271
2
272
2
273
2
274
3
275
0
276
0
277
2
278
46
279
0
280
0
281
0
282
0
283
0
284
8
285
0
286
0
288
1
289
0
290
0
340
4C
342
84
371
-2
372
-2
  0
DIMSTYLE
105
89
330
4
100
AcDbSymbolTableRecord
100
AcDbDimStyleTableRecord
  2
EZ_CURVED
 70
0
 40
1.0
 41
0.25
 42
0.125
 43
3.75
 44
0.375
 45
0.0
 46
0.0
 47
0.0
 48
0.0
 49
2.5
140
0.25
141
2.5
142
0.0
143
0.03937007874
144
100.0
145
0.0
146
0.5
147
0.1
148
0.0
 69
0
 70
0
 71
0
 72
0
 73
0
 74
0
 75
0
 76
0
 77
1
 78
12
 79
2
 90
2
170
0
171
3
172
1
173
0
174
0
175
0
176
0
177
0
178
0
179
2
271
2
272
2
273
2
274
3
275
0
276
0
277
2
278
46
279
2
280
0
281
0
282
0
283
0
284
8
285
0
286
0
288
1
289
3
290
0
340
4C
371
-2
372
-2
  0
DIMSTYLE
105
8B
330
4
100
AcDbSymbolTableRecord
100
AcDbDimStyleTableRecord
  2
WITHTFILL
 70
0
 40
1.0
 41
0.175
 42
0.125
 43
3.75
 44
0.375
 45
0.0
 46
0.0
 47
0.0
 48
0.0
 49
2.5
140
0.25
141
2.5
142
0.0
143
0.03937007874
144
100.0
145
0.0
146
0.5
147
0.1
148
0.0
 69
1
 70
0
 71
0
 72
0
 73
0
 74
0
 75
0
 76
0
 77
1
 78
12
 79
3
170
0
171
3
172
1
173
0
174
0
175
0
176
0
177
0
178
0
179
2
271
2
272
2
273
2
274
3
275
0
276
0
277
2
278
46
279
2
280
0
281
0
282
0
283
0
284
8
285
0
286
0
288
1
289
3
290
0
340
4C
342
74
371
-2
372
-2
  0
DIMSTYLE
105
8C
330
4
100
AcDbSymbolTableRecord
100
AcDbDimStyleTableRecord
  2
WITHTXT
 70
0
 40
1.0
 41
0.175
 42
0.125
 43
3.75
 44
0.375
 45
0.5
 46
0.0
 47
0.0
 48
0.0
 49
2.5
140
0.25
141
2.5
142
0.0
143
0.03937007874
144
100.0
145
0.0
146
0.5
147
0.1
148
0.0
 69
1
 70
0
 71
0
 72
0
 73
0
 74
0
 75
0
 76
0
 77
0
 78
12
 79
3
170
0
171
3
172
1
173
0
174
0
175
0
176
0
177
0
178
0
179
2
271
2
272
2
273
2
274
3
275
0
276
0
277
2
278
46
279
2
280
0
281
0
282
0
283
0
284
8
285
0
286
0
288
1
289
3
290
0
340
29
342
171
371
-2
372
-2
  0
ENDTAB
  0
TABLE
  2
BLOCK_RECORD
  5
9
330
0
100
AcDbSymbolTable
 70
33
  0
BLOCK_RECORD
  5
17
330
9
100
AcDbSymbolTableRecord
100
AcDbBlockTableRecord
  2
*Model_Space
340
1A
 70
0
280
1
281
0
  0
BLOCK_RECORD
  5
1B
330
9
100
AcDbSymbolTableRecord
100
AcDbBlockTableRecord
  2
*Paper_Space
340
1E
 70
0
280
1
281
0
  0
BLOCK_RECORD
  5
74
330
9
100
AcDbSymbolTableRecord
100
AcDbBlockTableRecord
  2
_ARCHTICK
340
0
 70
0
280
1
281
0
  0
BLOCK_RECORD
  5
78
330
9
100
AcDbSymbolTableRecord
100
AcDbBlockTableRecord
  2
_CLOSEDFILLED
340
0
 70
0
280
1
281
0
  0
BLOCK_RECORD
  5
84
330
9
100
AcDbSymbolTableRecord
100
AcDbBlockTableRecord
  2
_CLOSEDBLANK
340
0
 70
0
280
1
281
0
  0
BLOCK_RECORD
  5
8E
330
9
100
AcDbSymbolTableRecord
100
AcDbBlockTableRecord
  2
*D1
340
0
 70
0
280
1
281
0
  0
BLOCK_RECORD
  5
9D
330
9
100
AcDbSymbolTableRecord
100
AcDbBlockTableRecord
  2
*D2
340
0
 70
0
280
1
281
0
  0
BLOCK_RECORD
  5
A9
330
9
100
AcDbSymbolTableRecord
100
AcDbBlockTableRecord
  2
*D3
340
0
 70
0
280
1
281
0
  0
BLOCK_RECORD
  5
B5
330
9
100
AcDbSymbolTableRecord
100
AcDbBlockTableRecord
  2
*D4
340
0
 70
0
280
1
281
0
  0
BLOCK_RECORD
  5
C1
330
9
100
AcDbSymbolTableRecord
100
AcDbBlockTableRecord
  2
*D5
340
0
 70
0
280
1
281
0
  0
BLOCK_RECORD
  5
CD
330
9
100
AcDbSymbolTableRecord
100
AcDbBlockTableRecord
  2
*D6
340
0
 70
0
280
1
281
0
  0
BLOCK_RECORD
  5
D9
330
9
100
AcDbSymbolTableRecord
100
AcDbBlockTableRecord
  2
*D7
340
0
 70
0
280
1
281
0
  0
BLOCK_RECORD
  5
E5
330
9
100
AcDbSymbolTableRecord
100
AcDbBlockTableRecord
  2
*D8
340
0
 70
0
280
1
281
0
  0
BLOCK_RECORD
  5
F1
330
9
100
AcDbSymbolTableRecord
100
AcDbBlockTableRecord
  2
*D9
340
0
 70
0
280
1
281
0
  0
BLOCK_RECORD
  5
FD
330
9
100
AcDbSymbolTableRecord
100
AcDbBlockTableRecord
  2
*D10
340
0
 70
0
280
1
281
0
  0
BLOCK_RECORD
  5
10C
330
9
100
AcDbSymbolTableRecord
100
AcDbBlockTableRecord
  2
*D11
340
0
 70
0
280
1
281
0
  0
BLOCK_RECORD
  5
118
330
9
100
AcDbSymbolTableRecord
100
AcDbBlockTableRecord
  2
*D12
340
0
 70
0
280
1
281
0
  0
BLOCK_RECORD
  5
124
330
9
100
AcDbSymbolTableRecord
100
AcDbBlockTableRecord
  2
*D13
340
0
 70
0
280
1
281
0
  0
BLOCK_RECORD
  5
130
330
9
100
AcDbSymbolTableRecord
100
AcDbBlockTableRecord
  2
*D14
340
0
 70
0
280
1
281
0
  0
BLOCK_RECORD
  5
13C
330
9
100
AcDbSymbolTableRecord
100
AcDbBlockTableRecord
  2
*D15
340
0
 70
0
280
1
281
0
  0
BLOCK_RECORD
  5
148
330
9
100
AcDbSymbolTableRecord
100
AcDbBlockTableRecord
  2
*D16
340
0
 70
0
280
1
281
0
  0
BLOCK_RECORD
  5
154
330
9
100
AcDbSymbolTableRecord
100
AcDbBlockTableRecord
  2
*D17
340
0
 70
0
280
1
281
0
  0
BLOCK_RECORD
  5
160
330
9
100
AcDbSymbolTableRecord
100
AcDbBlockTableRecord
  2
*D18
340
0
 70
0
280
1
281
0
  0
BLOCK_RECORD
  5
16C
330
9
100
AcDbSymbolTableRecord
100
AcDbBlockTableRecord
  2
*D19
340
0
 70
0
280
1
281
0
  0
BLOCK_RECORD
  5
171
330
9
100
AcDbSymbolTableRecord
100
AcDbBlockTableRecord
  2
_CLOSED
340
0
 70
0
280
1
281
0
  0
BLOCK_RECORD
  5
181
330
9
100
AcDbSymbolTableRecord
100
AcDbBlockTableRecord
  2
*D20
340
0
 70
0
280
1
281
0
  0
BLOCK_RECORD
  5
190
330
9
100
AcDbSymbolTableRecord
100
AcDbBlockTableRecord
  2
*D21
340
0
 70
0
280
1
281
0
  0
BLOCK_RECORD
  5
19F
330
9
100
AcDbSymbolTableRecord
100
AcDbBlockTableRecord
  2
*D22
340
0
 70
0
280
1
281
0
  0
BLOCK_RECORD
  5
1AF
330
9
100
AcDbSymbolTableRecord
100
AcDbBlockTableRecord
  2
*D23
340
0
 70
0
280
1
281
0
  0
BLOCK_RECORD
  5
1BD
330
9
100
AcDbSymbolTableRecord
100
AcDbBlockTableRecord
  2
*D24
340
0
 70
0
280
1
281
0
  0
BLOCK_RECORD
  5
1CD
330
9
100
AcDbSymbolTableRecord
100
AcDbBlockTableRecord
  2
*D25
340
0
 70
0
280
1
281
0
  0
BLOCK_RECORD
  5
1DB
330
9
100
AcDbSymbolTableRecord
100
AcDbBlockTableRecord
  2
*D26
340
0
 70
0
280
1
281
0
  0
BLOCK_RECORD
  5
1EA
330
9
100
AcDbSymbolTableRecord
100
AcDbBlockTableRecord
  2
*D27
340
0
 70
0
280
1
281
0
  0
ENDTAB
  0
ENDSEC
  0
SECTION
  2
BLOCKS
  0
BLOCK
  5
18
330
17
100
AcDbEntity
  8
0
100
AcDbBlockBegin
  2
*Model_Space
 70
0
 10
0.0
 20
0.0
 30
0.0
  3
*Model_Space
  1

  0
ENDBLK
  5
19
330
17
100
AcDbEntity
  8
0
100
AcDbBlockEnd
  0
BLOCK
  5
1C
330
1B
100
AcDbEntity
  8
0
100
AcDbBlockBegin
  2
*Paper_Space
 70
0
 10
0.0
 20
0.0
 30
0.0
  3
*Paper_Space
  1

  0
ENDBLK
  5
1D
330
1B
100
AcDbEntity
  8
0
100
AcDbBlockEnd
  0
BLOCK
  5
75
330
74
100
AcDbEntity
  8
0
100
AcDbBlockBegin
  2
_ARCHTICK
 70
0
 10
0.0
 20
0.0
 30
0.0
  3
_ARCHTICK
  1

  0
LWPOLYLINE
  5
77
330
74
100
AcDbEntity
  8
0
  6
BYBLOCK
 62
0
100
AcDbPolyline
 90
2
 70
0
 43
0.15
 10
-0.5
 20
-0.5000000000000001
 10
0.5000000000000001
 20
0.5000000000000001
  0
ENDBLK
  5
76
330
74
100
AcDbEntity
  8
0
100
AcDbBlockEnd
  0
BLOCK
  5
79
330
78
100
AcDbEntity
  8
0
100
AcDbBlockBegin
  2
_CLOSEDFILLED
 70
0
 10
0.0
 20
0.0
 30
0.0
  3
_CLOSEDFILLED
  1

  0
SOLID
  5
7B
330
78
100
AcDbEntity
  8
0
  6
BYBLOCK
 62
0
100
AcDbTrace
 10
-1.0
 20
0.1643989837240255
 30
0.0
 11
0.0
 21
0.0
 31
0.0
 12
-1.0
 22
-0.1643989837240255
 32
0.0
 13
-1.0
 23
-0.1643989837240255
 33
0.0
  0
ENDBLK
  5
7A
330
78
100
AcDbEntity
  8
0
100
AcDbBlockEnd
  0
BLOCK
  5
85
330
84
100
AcDbEntity
  8
0
100
AcDbBlockBegin
  2
_CLOSEDBLANK
 70
0
 10
0.0
 20
0.0
 30
0.0
  3
_CLOSEDBLANK
  1

  0
LWPOLYLINE
  5
87
330
84
100
AcDbEntity
  8
0
  6
BYBLOCK
 62
0
100
AcDbPolyline
 90
3
 70
1
 10
-1.0
 20
0.1643989837240255
 10
0.0
 20
0.0
 10
-1.0
 20
-0.1643989837240255
  0
ENDBLK
  5
86
330
84
100
AcDbEntity
  8
0
100
AcDbBlockEnd
  0
BLOCK
  5
8F
330
8E
100
AcDbEntity
  8
0
100
AcDbBlockBegin
  2
*D1
 70
1
 10
0.0
 20
0.0
 30
0.0
  3
*D1
  1

  0
LINE
  5
91
330
8E
100
AcDbEntity
  8
0
100
AcDbLine
 10
0.602177970418829
 20
14.615104946073734
 30
0.0
 11
0.602177970418829
 21
22.375
 31
0.0
  0
LINE
  5
92
330
8E
100
AcDbEntity
  8
0
100
AcDbLine
 10
1.161365775178218
 20
17.55553791696831
 30
0.0
 11
1.161365775178218
 21
22.375
 31
0.0
  0
INSERT
  5
93
330
8E
100
AcDbEntity
  8
0
100
AcDbBlockReference
  2
_ARCHTICK
 10
0.602177970418829
 20
22.0
 30
0.0
 41
0.175
 42
0.175
 50
180.0
  0
INSERT
  5
95
330
8E
100
AcDbEntity
  8
0
100
AcDbBlockReference
  2
_ARCHTICK
 10
1.161365775178218
 20
22.0
 30
0.0
 41
0.175
 42
0.175
  0
LINE
  5
97
330
8E
100
AcDbEntity
  8
0
100
AcDbLine
 10
0.602177970418829
 20
22.0
 30
0.0
 11
1.161365775178218
 21
22.0
 31
0.0
  0
MTEXT
  5
98
330
8E
100
AcDbEntity
  8
0
100
AcDbMText
 10
0.8817718727985235
 20
22.575000000000003
 30
0.0
 40
0.25
 71
5
  1
55.92
  7
OpenSansCondensed-Light
 45
1.1
 90
3
 63
1
  0
POINT
  5
99
330
8E
100
AcDbEntity
  8
Defpoints
100
AcDbPoint
 10
0.602177970418829
 20
22.0
 30
0.0
  0
POINT
  5
9A
330
8E
100
AcDbEntity
  8
Defpoints
100
AcDbPoint
 10
0.602177970418829
 20
14.490104946073734
 30
0.0
  0
POINT
  5
9B
330
8E
100
AcDbEntity
  8
Defpoints
100
AcDbPoint
 10
1.161365775178218
 20
17.43053791696831
 30
0.0
  0
ENDBLK
  5
90
330
8E
100
AcDbEntity
  8
0
100
AcDbBlockEnd
  0
BLOCK
  5
9E
330
9D
100
AcDbEntity
  8
0
100
AcDbBlockBegin
  2
*D2
 70
1
 10
0.0
 20
0.0
 30
0.0
  3
*D2
  1

  0
LINE
  5
A0
330
9D
100
AcDbEntity
  8
0
100
AcDbLine
 10
7.519627322613271
 20
16.30188872817675
 30
0.0
 11
7.519627322613271
 21
22.375
 31
0.0
  0
INSERT
  5
A1
330
9D
100
AcDbEntity
  8
0
100
AcDbBlockReference
  2
_ARCHTICK
 10
7.519627322613271
 20
22.0
 30
0.0
 41
0.175
 42
0.175
  0
LINE
  5
A3
330
9D
100
AcDbEntity
  8
0
100
AcDbLine
 10
1.161365775178218
 20
22.0
 30
0.0
 11
7.519627322613271
 21
22.0
 31
0.0
  0
MTEXT
  5
A4
330
9D
100
AcDbEntity
  8
0
100
AcDbMText
 10
4.340496548895745
 20
22.225
 30
0.0
 40
0.25
 71
5
  1
635.83
  7
OpenSansCondensed-Light
 45
1.1
 90
3
 63
1
  0
POINT
  5
A5
330
9D
100
AcDbEntity
  8
Defpoints
100
AcDbPoint
 10
1.161365775178218
 20
22.0
 30
0.0
  0
POINT
  5
A6
330
9D
100
AcDbEntity
  8
Defpoints
100
AcDbPoint
 10
1.161365775178218
 20
17.43053791696831
 30
0.0
  0
POINT
  5
A7
330
9D
100
AcDbEntity
  8
Defpoints
100
AcDbPoint
 10
7.519627322613271
 20
16.17688872817675
 30
0.0
  0
ENDBLK
  5
9F
330
9D
100
AcDbEntity
  8
0
100
AcDbBlockEnd
  0
BLOCK
  5
AA
330
A9
100
AcDbEntity
  8
0
100
AcDbBlockBegin
  2
*D3
 70
1
 10
0.0
 20
0.0
 30
0.0
  3
*D3
  1

  0
LINE
  5
AC
330
A9
100
AcDbEntity
  8
0
100
AcDbLine
 10
9.190464721456728
 20
3.5460136859146756
 30
0.0
 11
9.190464721456728
 21
22.375
 31
0.0
  0
INSERT
  5
AD
330
A9
100
AcDbEntity
  8
0
100
AcDbBlockReference
  2
_ARCHTICK
 10
9.190464721456728
 20
22.0
 30
0.0
 41
0.175
 42
0.175
  0
LINE
  5
AF
330
A9
100
AcDbEntity
  8
0
100
AcDbLine
 10
7.519627322613271
 20
22.0
 30
0.0
 11
9.190464721456728
 21
22.0
 31
0.0
  0
MTEXT
  5
B0
330
A9
100
AcDbEntity
  8
0
100
AcDbMText
 10
8.355046022035
 20
22.225
 30
0.0
 40
0.25
 71
5
  1
167.08
  7
OpenSansCondensed-Light
 45
1.1
 90
3
 63
1
  0
POINT
  5
B1
330
A9
100
AcDbEntity
  8
Defpoints
100
AcDbPoint
 10
7.519627322613271
 20
22.0
 30
0.0
  0
POINT
  5
B2
330
A9
100
AcDbEntity
  8
Defpoints
100
AcDbPoint
 10
7.519627322613271
 20
16.17688872817675
 30
0.0
  0
POINT
  5
B3
330
A9
100
AcDbEntity
  8
Defpoints
100
AcDbPoint
 10
9.190464721456728
 20
3.4210136859146756
 30
0.0
  0
ENDBLK
  5
AB
330
A9
100
AcDbEntity
  8
0
100
AcDbBlockEnd
  0
BLOCK
  5
B6
330
B5
100
AcDbEntity
  8
0
100
AcDbBlockBegin
  2
*D4
 70
1
 10
0.0
 20
0.0
 30
0.0
  3
*D4
  1

  0
LINE
  5
B8
330
B5
100
AcDbEntity
  8
0
100
AcDbLine
 10
9.197286120047197
 20
15.581924387238951
 30
0.0
 11
9.197286120047197
 21
22.375
 31
0.0
  0
INSERT
  5
B9
330
B5
100
AcDbEntity
  8
0
100
AcDbBlockReference
  2
_ARCHTICK
 10
9.197286120047197
 20
22.0
 30
0.0
 41
0.175
 42
0.175
 50
180.0
  0
LINE
  5
BB
330
B5
100
AcDbEntity
  8
0
100
AcDbLine
 10
9.190464721456728
 20
22.0
 30
0.0
 11
9.197286120047197
 21
22.0
 31
0.0
  0
MTEXT
  5
BC
330
B5
100
AcDbEntity
  8
0
100
AcDbMText
 10
9.193875420751962
 20
22.575000000000003
 30
0.0
 40
0.25
 71
5
  1
.68
  7
OpenSansCondensed-Light
 45
1.1
 90
3
 63
1
  0
POINT
  5
BD
330
B5
100
AcDbEntity
  8
Defpoints
100
AcDbPoint
 10
9.190464721456728
 20
22.0
 30
0.0
  0
POINT
  5
BE
330
B5
100
AcDbEntity
  8
Defpoints
100
AcDbPoint
 10
9.190464721456728
 20
3.4210136859146756
 30
0.0
  0
POINT
  5
BF
330
B5
100
AcDbEntity
  8
Defpoints
100
AcDbPoint
 10
9.197286120047197
 20
15.456924387238951
 30
0.0
  0
ENDBLK
  5
B7
330
B5
100
AcDbEntity
  8
0
100
AcDbBlockEnd
  0
BLOCK
  5
C2
330
C1
100
AcDbEntity
  8
0
100
AcDbBlockBegin
  2
*D5
 70
1
 10
0.0
 20
0.0
 30
0.0
  3
*D5
  1

  0
LINE
  5
C4
330
C1
100
AcDbEntity
  8
0
100
AcDbLine
 10
9.621173183766814
 20
12.032956265434676
 30
0.0
 11
9.621173183766814
 21
22.375
 31
0.0
  0
INSERT
  5
C5
330
C1
100
AcDbEntity
  8
0
100
AcDbBlockReference
  2
_ARCHTICK
 10
9.621173183766814
 20
22.0
 30
0.0
 41
0.175
 42
0.175
 50
180.0
  0
LINE
  5
C7
330
C1
100
AcDbEntity
  8
0
100
AcDbLine
 10
9.197286120047197
 20
22.0
 30
0.0
 11
9.621173183766814
 21
22.0
 31
0.0
  0
MTEXT
  5
C8
330
C1
100
AcDbEntity
  8
0
100
AcDbMText
 10
9.409229651907005
 20
21.525000000000002
 30
0.0
 40
0.25
 71
5
  1
42.39
  7
OpenSansCondensed-Light
 45
1.1
 90
3
 63
1
  0
POINT
  5
C9
330
C1
100
AcDbEntity
  8
Defpoints
100
AcDbPoint
 10
9.197286120047197
 20
22.0
 30
0.0
  0
POINT
  5
CA
330
C1
100
AcDbEntity
  8
Defpoints
100
AcDbPoint
 10
9.197286120047197
 20
15.456924387238951
 30
0.0
  0
POINT
  5
CB
330
C1
100
AcDbEntity
  8
Defpoints
100
AcDbPoint
 10
9.621173183766814
 20
11.907956265434676
 30
0.0
  0
ENDBLK
  5
C3
330
C1
100
AcDbEntity
  8
0
100
AcDbBlockEnd
  0
BLOCK
  5
CE
330
CD
100
AcDbEntity
  8
0
100
AcDbBlockBegin
  2
*D6
 70
1
 10
0.0
 20
0.0
 30
0.0
  3
*D6
  1

  0
LINE
  5
D0
330
CD
100
AcDbEntity
  8
0
100
AcDbLine
 10
10.205778143250049
 20
13.416956556891888
 30
0.0
 11
10.205778143250049
 21
22.375
 31
0.0
  0
INSERT
  5
D1
330
CD
100
AcDbEntity
  8
0
100
AcDbBlockReference
  2
_ARCHTICK
 10
10.205778143250049
 20
22.0
 30
0.0
 41
0.175
 42
0.175
  0
LINE
  5
D3
330
CD
100
AcDbEntity
  8
0
100
AcDbLine
 10
9.621173183766814
 20
22.0
 30
0.0
 11
10.205778143250049
 21
22.0
 31
0.0
  0
MTEXT
  5
D4
330
CD
100
AcDbEntity
  8
0
100
AcDbMText
 10
9.913475663508432
 20
22.575000000000003
 30
0.0
 40
0.25
 71
5
  1
58.46
  7
OpenSansCondensed-Light
 45
1.1
 90
3
 63
1
  0
POINT
  5
D5
330
CD
100
AcDbEntity
  8
Defpoints
100
AcDbPoint
 10
9.621173183766814
 20
22.0
 30
0.0
  0
POINT
  5
D6
330
CD
100
AcDbEntity
  8
Defpoints
100
AcDbPoint
 10
9.621173183766814
 20
11.907956265434676
 30
0.0
  0
POINT
  5
D7
330
CD
100
AcDbEntity
  8
Defpoints
100
AcDbPoint
 10
10.205778143250049
 20
13.291956556891888
 30
0.0
  0
ENDBLK
  5
CF
330
CD
100
AcDbEntity
  8
0
100
AcDbBlockEnd
  0
BLOCK
  5
DA
330
D9
100
AcDbEntity
  8
0
100
AcDbBlockBegin
  2
*D7
 70
1
 10
0.0
 20
0.0
 30
0.0
  3
*D7
  1

  0
LINE
  5
DC
330
D9
100
AcDbEntity
  8
0
100
AcDbLine
 10
12.076504574234361
 20
9.883843709360661
 30
0.0
 11
12.076504574234361
 21
22.375
 31
0.0
  0
INSERT
  5
DD
330
D9
100
AcDbEntity
  8
0
100
AcDbBlockReference
  2
_ARCHTICK
 10
12.076504574234361
 20
22.0
 30
0.0
 41
0.175
 42
0.175
  0
LINE
  5
DF
330
D9
100
AcDbEntity
  8
0
100
AcDbLine
 10
10.205778143250049
 20
22.0
 30
0.0
 11
12.076504574234361
 21
22.0
 31
0.0
  0
MTEXT
  5
E0
330
D9
100
AcDbEntity
  8
0
100
AcDbMText
 10
11.141141358742205
 20
22.225
 30
0.0
 40
0.25
 71
5
  1
187.07
  7
OpenSansCondensed-Light
 45
1.1
 90
3
 63
1
  0
POINT
  5
E1
330
D9
100
AcDbEntity
  8
Defpoints
100
AcDbPoint
 10
10.205778143250049
 20
22.0
 30
0.0
  0
POINT
  5
E2
330
D9
100
AcDbEntity
  8
Defpoints
100
AcDbPoint
 10
10.205778143250049
 20
13.291956556891888
 30
0.0
  0
POINT
  5
E3
330
D9
100
AcDbEntity
  8
Defpoints
100
AcDbPoint
 10
12.076504574234361
 20
9.758843709360661
 30
0.0
  0
ENDBLK
  5
DB
330
D9
100
AcDbEntity
  8
0
100
AcDbBlockEnd
  0
BLOCK
  5
E6
330
E5
100
AcDbEntity
  8
0
100
AcDbBlockBegin
  2
*D8
 70
1
 10
0.0
 20
0.0
 30
0.0
  3
*D8
  1

  0
LINE
  5
E8
330
E5
100
AcDbEntity
  8
0
100
AcDbLine
 10
15.242940710467987
 20
16.967448653841128
 30
0.0
 11
15.242940710467987
 21
22.375
 31
0.0
  0
INSERT
  5
E9
330
E5
100
AcDbEntity
  8
0
100
AcDbBlockReference
  2
_ARCHTICK
 10
15.242940710467987
 20
22.0
 30
0.0
 41
0.175
 42
0.175
  0
LINE
  5
EB
330
E5
100
AcDbEntity
  8
0
100
AcDbLine
 10
12.076504574234361
 20
22.0
 30
0.0
 11
15.242940710467987
 21
22.0
 31
0.0
  0
MTEXT
  5
EC
330
E5
100
AcDbEntity
  8
0
100
AcDbMText
 10
13.659722642351174
 20
22.225
 30
0.0
 40
0.25
 71
5
  1
316.64
  7
OpenSansCondensed-Light
 45
1.1
 90
3
 63
1
  0
POINT
  5
ED
330
E5
100
AcDbEntity
  8
Defpoints
100
AcDbPoint
 10
12.076504574234361
 20
22.0
 30
0.0
  0
POINT
  5
EE
330
E5
100
AcDbEntity
  8
Defpoints
100
AcDbPoint
 10
12.076504574234361
 20
9.758843709360661
 30
0.0
  0
POINT
  5
EF
330
E5
100
AcDbEntity
  8
Defpoints
100
AcDbPoint
 10
15.242940710467987
 20
16.842448653841128
 30
0.0
  0
ENDBLK
  5
E7
330
E5
100
AcDbEntity
  8
0
100
AcDbBlockEnd
  0
BLOCK
  5
F2
330
F1
100
AcDbEntity
  8
0
100
AcDbBlockBegin
  2
*D9
 70
1
 10
0.0
 20
0.0
 30
0.0
  3
*D9
  1

  0
LINE
  5
F4
330
F1
100
AcDbEntity
  8
0
100
AcDbLine
 10
17.33531887509123
 20
12.920832439745777
 30
0.0
 11
17.33531887509123
 21
22.375
 31
0.0
  0
INSERT
  5
F5
330
F1
100
AcDbEntity
  8
0
100
AcDbBlockReference
  2
_ARCHTICK
 10
17.33531887509123
 20
22.0
 30
0.0
 41
0.175
 42
0.175
  0
LINE
  5
F7
330
F1
100
AcDbEntity
  8
0
100
AcDbLine
 10
15.242940710467987
 20
22.0
 30
0.0
 11
17.33531887509123
 21
22.0
 31
0.0
  0
MTEXT
  5
F8
330
F1
100
AcDbEntity
  8
0
100
AcDbMText
 10
16.289129792779608
 20
22.225
 30
0.0
 40
0.25
 71
5
  1
209.24
  7
OpenSansCondensed-Light
 45
1.1
 90
3
 63
1
  0
POINT
  5
F9
330
F1
100
AcDbEntity
  8
Defpoints
100
AcDbPoint
 10
15.242940710467987
 20
22.0
 30
0.0
  0
POINT
  5
FA
330
F1
100
AcDbEntity
  8
Defpoints
100
AcDbPoint
 10
15.242940710467987
 20
16.842448653841128
 30
0.0
  0
POINT
  5
FB
330
F1
100
AcDbEntity
  8
Defpoints
100
AcDbPoint
 10
17.33531887509123
 20
12.795832439745777
 30
0.0
  0
ENDBLK
  5
F3
330
F1
100
AcDbEntity
  8
0
100
AcDbBlockEnd
  0
BLOCK
  5
FE
330
FD
100
AcDbEntity
  8
0
100
AcDbBlockBegin
  2
*D10
 70
1
 10
0.0
 20
0.0
 30
0.0
  3
*D10
  1

  0
LINE
  5
100
330
FD
100
AcDbEntity
  8
0
100
AcDbLine
 10
9.065464721456728
 20
3.4210136859146756
 30
0.0
 11
-2.375
 21
3.4210136859146756
 31
0.0
  0
LINE
  5
101
330
FD
100
AcDbEntity
  8
0
100
AcDbLine
 10
11.951504574234361
 20
9.758843709360661
 30
0.0
 11
-2.375
 21
9.758843709360661
 31
0.0
  0
INSERT
  5
102
330
FD
100
AcDbEntity
  8
0
100
AcDbBlockReference
  2
_ARCHTICK
 10
-2.0
 20
3.4210136859146756
 30
0.0
 41
0.175
 42
0.175
 50
270.0
  0
INSERT
  5
104
330
FD
100
AcDbEntity
  8
0
100
AcDbBlockReference
  2
_ARCHTICK
 10
-2.0
 20
9.758843709360661
 30
0.0
 41
0.175
 42
0.175
 50
90.0
  0
LINE
  5
106
330
FD
100
AcDbEntity
  8
0
100
AcDbLine
 10
-2.0
 20
3.4210136859146756
 30
0.0
 11
-2.0
 21
9.758843709360661
 31
0.0
  0
MTEXT
  5
107
330
FD
100
AcDbEntity
  8
0
100
AcDbMText
 10
-2.225
 20
6.589928697637669
 30
0.0
 40
0.25
 71
5
  1
633.78
  7
OpenSansCondensed-Light
 50
90.0
 45
1.1
 90
3
 63
1
  0
POINT
  5
108
330
FD
100
AcDbEntity
  8
Defpoints
100
AcDbPoint
 10
-2.0
 20
3.4210136859146756
 30
0.0
  0
POINT
  5
109
330
FD
100
AcDbEntity
  8
Defpoints
100
AcDbPoint
 10
9.190464721456728
 20
3.4210136859146756
 30
0.0
  0
POINT
  5
10A
330
FD
100
AcDbEntity
  8
Defpoints
100
AcDbPoint
 10
12.076504574234361
 20
9.758843709360661
 30
0.0
  0
ENDBLK
  5
FF
330
FD
100
AcDbEntity
  8
0
100
AcDbBlockEnd
  0
BLOCK
  5
10D
330
10C
100
AcDbEntity
  8
0
100
AcDbBlockBegin
  2
*D11
 70
1
 10
0.0
 20
0.0
 30
0.0
  3
*D11
  1

  0
LINE
  5
10F
330
10C
100
AcDbEntity
  8
0
100
AcDbLine
 10
9.496173183766814
 20
11.907956265434676
 30
0.0
 11
-2.375
 21
11.907956265434676
 31
0.0
  0
INSERT
  5
110
330
10C
100
AcDbEntity
  8
0
100
AcDbBlockReference
  2
_ARCHTICK
 10
-2.0
 20
11.907956265434676
 30
0.0
 41
0.175
 42
0.175
 50
90.0
  0
LINE
  5
112
330
10C
100
AcDbEntity
  8
0
100
AcDbLine
 10
-2.0
 20
9.758843709360661
 30
0.0
 11
-2.0
 21
11.907956265434676
 31
0.0
  0
MTEXT
  5
113
330
10C
100
AcDbEntity
  8
0
100
AcDbMText
 10
-2.225
 20
10.83339998739767
 30
0.0
 40
0.25
 71
5
  1
214.91
  7
OpenSansCondensed-Light
 50
90.0
 45
1.1
 90
3
 63
1
  0
POINT
  5
114
330
10C
100
AcDbEntity
  8
Defpoints
100
AcDbPoint
 10
-2.0
 20
9.758843709360661
 30
0.0
  0
POINT
  5
115
330
10C
100
AcDbEntity
  8
Defpoints
100
AcDbPoint
 10
12.076504574234361
 20
9.758843709360661
 30
0.0
  0
POINT
  5
116
330
10C
100
AcDbEntity
  8
Defpoints
100
AcDbPoint
 10
9.621173183766814
 20
11.907956265434676
 30
0.0
  0
ENDBLK
  5
10E
330
10C
100
AcDbEntity
  8
0
100
AcDbBlockEnd
  0
BLOCK
  5
119
330
118
100
AcDbEntity
  8
0
100
AcDbBlockBegin
  2
*D12
 70
1
 10
0.0
 20
0.0
 30
0.0
  3
*D12
  1

  0
LINE
  5
11B
330
118
100
AcDbEntity
  8
0
100
AcDbLine
 10
17.21031887509123
 20
12.795832439745777
 30
0.0
 11
-2.375
 21
12.795832439745777
 31
0.0
  0
INSERT
  5
11C
330
118
100
AcDbEntity
  8
0
100
AcDbBlockReference
  2
_ARCHTICK
 10
-2.0
 20
12.795832439745777
 30
0.0
 41
0.175
 42
0.175
 50
90.0
  0
LINE
  5
11E
330
118
100
AcDbEntity
  8
0
100
AcDbLine
 10
-2.0
 20
11.907956265434676
 30
0.0
 11
-2.0
 21
12.795832439745777
 31
0.0
  0
MTEXT
  5
11F
330
118
100
AcDbEntity
  8
0
100
AcDbMText
 10
-2.575
 20
12.351894352590225
 30
0.0
 40
0.25
 71
5
  1
88.79
  7
OpenSansCondensed-Light
 50
90.0
 45
1.1
 90
3
 63
1
  0
POINT
  5
120
330
118
100
AcDbEntity
  8
Defpoints
100
AcDbPoint
 10
-2.0
 20
11.907956265434676
 30
0.0
  0
POINT
  5
121
330
118
100
AcDbEntity
  8
Defpoints
100
AcDbPoint
 10
9.621173183766814
 20
11.907956265434676
 30
0.0
  0
POINT
  5
122
330
118
100
AcDbEntity
  8
Defpoints
100
AcDbPoint
 10
17.33531887509123
 20
12.795832439745777
 30
0.0
  0
ENDBLK
  5
11A
330
118
100
AcDbEntity
  8
0
100
AcDbBlockEnd
  0
BLOCK
  5
125
330
124
100
AcDbEntity
  8
0
100
AcDbBlockBegin
  2
*D13
 70
1
 10
0.0
 20
0.0
 30
0.0
  3
*D13
  1

  0
LINE
  5
127
330
124
100
AcDbEntity
  8
0
100
AcDbLine
 10
10.080778143250049
 20
13.291956556891888
 30
0.0
 11
-2.375
 21
13.291956556891888
 31
0.0
  0
INSERT
  5
128
330
124
100
AcDbEntity
  8
0
100
AcDbBlockReference
  2
_ARCHTICK
 10
-2.0
 20
13.291956556891888
 30
0.0
 41
0.175
 42
0.175
 50
90.0
  0
LINE
  5
12A
330
124
100
AcDbEntity
  8
0
100
AcDbLine
 10
-2.0
 20
12.795832439745777
 30
0.0
 11
-2.0
 21
13.291956556891888
 31
0.0
  0
MTEXT
  5
12B
330
124
100
AcDbEntity
  8
0
100
AcDbMText
 10
-1.5250000000000001
 20
13.043894498318831
 30
0.0
 40
0.25
 71
5
  1
49.61
  7
OpenSansCondensed-Light
 50
90.0
 45
1.1
 90
3
 63
1
  0
POINT
  5
12C
330
124
100
AcDbEntity
  8
Defpoints
100
AcDbPoint
 10
-2.0
 20
12.795832439745777
 30
0.0
  0
POINT
  5
12D
330
124
100
AcDbEntity
  8
Defpoints
100
AcDbPoint
 10
17.33531887509123
 20
12.795832439745777
 30
0.0
  0
POINT
  5
12E
330
124
100
AcDbEntity
  8
Defpoints
100
AcDbPoint
 10
10.205778143250049
 20
13.291956556891888
 30
0.0
  0
ENDBLK
  5
126
330
124
100
AcDbEntity
  8
0
100
AcDbBlockEnd
  0
BLOCK
  5
131
330
130
100
AcDbEntity
  8
0
100
AcDbBlockBegin
  2
*D14
 70
1
 10
0.0
 20
0.0
 30
0.0
  3
*D14
  1

  0
LINE
  5
133
330
130
100
AcDbEntity
  8
0
100
AcDbLine
 10
0.47717797041882903
 20
14.490104946073734
 30
0.0
 11
-2.375
 21
14.490104946073734
 31
0.0
  0
INSERT
  5
134
330
130
100
AcDbEntity
  8
0
100
AcDbBlockReference
  2
_ARCHTICK
 10
-2.0
 20
14.490104946073734
 30
0.0
 41
0.175
 42
0.175
 50
90.0
  0
LINE
  5
136
330
130
100
AcDbEntity
  8
0
100
AcDbLine
 10
-2.0
 20
13.291956556891888
 30
0.0
 11
-2.0
 21
14.490104946073734
 31
0.0
  0
MTEXT
  5
137
330
130
100
AcDbEntity
  8
0
100
AcDbMText
 10
-2.575
 20
13.89103075148281
 30
0.0
 40
0.25
 71
5
  1
119.81
  7
OpenSansCondensed-Light
 50
90.0
 45
1.1
 90
3
 63
1
  0
POINT
  5
138
330
130
100
AcDbEntity
  8
Defpoints
100
AcDbPoint
 10
-2.0
 20
13.291956556891888
 30
0.0
  0
POINT
  5
139
330
130
100
AcDbEntity
  8
Defpoints
100
AcDbPoint
 10
10.205778143250049
 20
13.291956556891888
 30
0.0
  0
POINT
  5
13A
330
130
100
AcDbEntity
  8
Defpoints
100
AcDbPoint
 10
0.602177970418829
 20
14.490104946073734
 30
0.0
  0
ENDBLK
  5
132
330
130
100
AcDbEntity
  8
0
100
AcDbBlockEnd
  0
BLOCK
  5
13D
330
13C
100
AcDbEntity
  8
0
100
AcDbBlockBegin
  2
*D15
 70
1
 10
0.0
 20
0.0
 30
0.0
  3
*D15
  1

  0
LINE
  5
13F
330
13C
100
AcDbEntity
  8
0
100
AcDbLine
 10
9.072286120047197
 20
15.456924387238951
 30
0.0
 11
-2.375
 21
15.456924387238951
 31
0.0
  0
INSERT
  5
140
330
13C
100
AcDbEntity
  8
0
100
AcDbBlockReference
  2
_ARCHTICK
 10
-2.0
 20
15.456924387238951
 30
0.0
 41
0.175
 42
0.175
 50
90.0
  0
LINE
  5
142
330
13C
100
AcDbEntity
  8
0
100
AcDbLine
 10
-2.0
 20
14.490104946073734
 30
0.0
 11
-2.0
 21
15.456924387238951
 31
0.0
  0
MTEXT
  5
143
330
13C
100
AcDbEntity
  8
0
100
AcDbMText
 10
-1.5250000000000001
 20
14.973514666656342
 30
0.0
 40
0.25
 71
5
  1
96.68
  7
OpenSansCondensed-Light
 50
90.0
 45
1.1
 90
3
 63
1
  0
POINT
  5
144
330
13C
100
AcDbEntity
  8
Defpoints
100
AcDbPoint
 10
-2.0
 20
14.490104946073734
 30
0.0
  0
POINT
  5
145
330
13C
100
AcDbEntity
  8
Defpoints
100
AcDbPoint
 10
0.602177970418829
 20
14.490104946073734
 30
0.0
  0
POINT
  5
146
330
13C
100
AcDbEntity
  8
Defpoints
100
AcDbPoint
 10
9.197286120047197
 20
15.456924387238951
 30
0.0
  0
ENDBLK
  5
13E
330
13C
100
AcDbEntity
  8
0
100
AcDbBlockEnd
  0
BLOCK
  5
149
330
148
100
AcDbEntity
  8
0
100
AcDbBlockBegin
  2
*D16
 70
1
 10
0.0
 20
0.0
 30
0.0
  3
*D16
  1

  0
LINE
  5
14B
330
148
100
AcDbEntity
  8
0
100
AcDbLine
 10
7.394627322613271
 20
16.17688872817675
 30
0.0
 11
-2.375
 21
16.17688872817675
 31
0.0
  0
INSERT
  5
14C
330
148
100
AcDbEntity
  8
0
100
AcDbBlockReference
  2
_ARCHTICK
 10
-2.0
 20
16.17688872817675
 30
0.0
 41
0.175
 42
0.175
 50
90.0
  0
LINE
  5
14E
330
148
100
AcDbEntity
  8
0
100
AcDbLine
 10
-2.0
 20
15.456924387238951
 30
0.0
 11
-2.0
 21
16.17688872817675
 31
0.0
  0
MTEXT
  5
14F
330
148
100
AcDbEntity
  8
0
100
AcDbMText
 10
-2.225
 20
15.81690655770785
 30
0.0
 40
0.25
 71
5
  1
72
  7
OpenSansCondensed-Light
 50
90.0
 45
1.1
 90
3
 63
1
  0
POINT
  5
150
330
148
100
AcDbEntity
  8
Defpoints
100
AcDbPoint
 10
-2.0
 20
15.456924387238951
 30
0.0
  0
POINT
  5
151
330
148
100
AcDbEntity
  8
Defpoints
100
AcDbPoint
 10
9.197286120047197
 20
15.456924387238951
 30
0.0
  0
POINT
  5
152
330
148
100
AcDbEntity
  8
Defpoints
100
AcDbPoint
 10
7.519627322613271
 20
16.17688872817675
 30
0.0
  0
ENDBLK
  5
14A
330
148
100
AcDbEntity
  8
0
100
AcDbBlockEnd
  0
BLOCK
  5
155
330
154
100
AcDbEntity
  8
0
100
AcDbBlockBegin
  2
*D17
 70
1
 10
0.0
 20
0.0
 30
0.0
  3
*D17
  1

  0
LINE
  5
157
330
154
100
AcDbEntity
  8
0
100
AcDbLine
 10
15.117940710467987
 20
16.842448653841128
 30
0.0
 11
-2.375
 21
16.842448653841128
 31
0.0
  0
INSERT
  5
158
330
154
100
AcDbEntity
  8
0
100
AcDbBlockReference
  2
_ARCHTICK
 10
-2.0
 20
16.842448653841128
 30
0.0
 41
0.175
 42
0.175
 50
90.0
  0
LINE
  5
15A
330
154
100
AcDbEntity
  8
0
100
AcDbLine
 10
-2.0
 20
16.17688872817675
 30
0.0
 11
-2.0
 21
16.842448653841128
 31
0.0
  0
MTEXT
  5
15B
330
154
100
AcDbEntity
  8
0
100
AcDbMText
 10
-2.575
 20
16.50966869100894
 30
0.0
 40
0.25
 71
5
  1
66.56
  7
OpenSansCondensed-Light
 50
90.0
 45
1.1
 90
3
 63
1
  0
POINT
  5
15C
330
154
100
AcDbEntity
  8
Defpoints
100
AcDbPoint
 10
-2.0
 20
16.17688872817675
 30
0.0
  0
POINT
  5
15D
330
154
100
AcDbEntity
  8
Defpoints
100
AcDbPoint
 10
7.519627322613271
 20
16.17688872817675
 30
0.0
  0
POINT
  5
15E
330
154
100
AcDbEntity
  8
Defpoints
100
AcDbPoint
 10
15.242940710467987
 20
16.842448653841128
 30
0.0
  0
ENDBLK
  5
156
330
154
100
AcDbEntity
  8
0
100
AcDbBlockEnd
  0
BLOCK
  5
161
330
160
100
AcDbEntity
  8
0
100
AcDbBlockBegin
  2
*D18
 70
1
 10
0.0
 20
0.0
 30
0.0
  3
*D18
  1

  0
LINE
  5
163
330
160
100
AcDbEntity
  8
0
100
AcDbLine
 10
1.036365775178218
 20
17.43053791696831
 30
0.0
 11
-2.375
 21
17.43053791696831
 31
0.0
  0
INSERT
  5
164
330
160
100
AcDbEntity
  8
0
100
AcDbBlockReference
  2
_ARCHTICK
 10
-2.0
 20
17.43053791696831
 30
0.0
 41
0.175
 42
0.175
 50
90.0
  0
LINE
  5
166
330
160
100
AcDbEntity
  8
0
100
AcDbLine
 10
-2.0
 20
16.842448653841128
 30
0.0
 11
-2.0
 21
17.43053791696831
 31
0.0
  0
MTEXT
  5
167
330
160
100
AcDbEntity
  8
0
100
AcDbMText
 10
-1.5250000000000001
 20
17.13649328540472
 30
0.0
 40
0.25
 71
5
  1
58.81
  7
OpenSansCondensed-Light
 50
90.0
 45
1.1
 90
3
 63
1
  0
POINT
  5
168
330
160
100
AcDbEntity
  8
Defpoints
100
AcDbPoint
 10
-2.0
 20
16.842448653841128
 30
0.0
  0
POINT
  5
169
330
160
100
AcDbEntity
  8
Defpoints
100
AcDbPoint
 10
15.242940710467987
 20
16.842448653841128
 30
0.0
  0
POINT
  5
16A
330
160
100
AcDbEntity
  8
Defpoints
100
AcDbPoint
 10
1.161365775178218
 20
17.43053791696831
 30
0.0
  0
ENDBLK
  5
162
330
160
100
AcDbEntity
  8
0
100
AcDbBlockEnd
  0
BLOCK
  5
16D
330
16C
100
AcDbEntity
  8
0
100
AcDbBlockBegin
  2
*D19
 70
1
 10
0.0
 20
0.0
 30
0.0
  3
*D19
  1

  0
LINE
  5
16F
330
16C
100
AcDbEntity
  8
0
100
AcDbLine
 10
9.278853069105047
 20
3.3326253382663573
 30
0.0
 11
16.570904246630658
 21
-3.9594258392592514
 31
0.0
  0
LINE
  5
170
330
16C
100
AcDbEntity
  8
0
100
AcDbLine
 10
0.6905663180671475
 20
14.401716598425415
 30
0.0
 11
17.811306501191236
 21
-2.719023584698673
 31
0.0
  0
INSERT
  5
176
330
16C
100
AcDbEntity
  8
0
100
AcDbBlockReference
  2
_CLOSED
 10
16.305739203685704
 20
-3.694260796314296
 30
0.0
 41
0.175
 42
0.175
 50
225.0
  0
INSERT
  5
178
330
16C
100
AcDbEntity
  8
0
100
AcDbBlockReference
  2
_CLOSED
 10
17.546141458246282
 20
-2.4538585417537178
 30
0.0
 41
0.175
 42
0.175
 50
45.0
  0
LINE
  5
17A
330
16C
100
AcDbEntity
  8
0
100
AcDbLine
 10
16.42948289039335
 20
-3.5705171096066506
 30
0.0
 11
16.4839985927244
 21
-3.5160014072755987
 31
0.0
  0
LINE
  5
17B
330
16C
100
AcDbEntity
  8
0
100
AcDbLine
 10
17.367882069207585
 20
-2.6321179307924156
 30
0.0
 11
17.422397771538638
 21
-2.5776022284613638
 31
0.0
  0
MTEXT
  5
17C
330
16C
100
AcDbEntity
  8
0
100
AcDbMText
 10
16.925940330965993
 20
-3.074059669034007
 30
0.0
 40
0.25
 71
5
  1
175.5
  7
STANDARD
 50
45.0
 45
1.1
 90
3
 63
1
  0
POINT
  5
17D
330
16C
100
AcDbEntity
  8
Defpoints
100
AcDbPoint
 10
16.305739203685704
 20
-3.694260796314296
 30
0.0
  0
POINT
  5
17E
330
16C
100
AcDbEntity
  8
Defpoints
100
AcDbPoint
 10
9.190464721456728
 20
3.4210136859146756
 30
0.0
  0
POINT
  5
17F
330
16C
100
AcDbEntity
  8
Defpoints
100
AcDbPoint
 10
0.602177970418829
 20
14.490104946073734
 30
0.0
  0
ENDBLK
  5
16E
330
16C
100
AcDbEntity
  8
0
100
AcDbBlockEnd
  0
BLOCK
  5
172
330
171
100
AcDbEntity
  8
0
100
AcDbBlockBegin
  2
_CLOSED
 70
0
 10
0.0
 20
0.0
 30
0.0
  3
_CLOSED
  1

  0
LWPOLYLINE
  5
174
330
171
100
AcDbEntity
  8
0
  6
BYBLOCK
 62
0
100
AcDbPolyline
 90
3
 70
1
 10
-1.0
 20
0.1643989837240255
 10
0.0
 20
0.0
 10
-1.0
 20
-0.1643989837240255
  0
LINE
  5
175
330
171
100
AcDbEntity
  8
0
  6
BYBLOCK
 62
0
100
AcDbLine
 10
0.0
 20
0.0
 30
0.0
 11
-1.0
 21
0.0
 31
0.0
  0
ENDBLK
  5
173
330
171
100
AcDbEntity
  8
0
100
AcDbBlockEnd
  0
BLOCK
  5
182
330
181
100
AcDbEntity
  8
0
100
AcDbBlockBegin
  2
*D20
 70
1
 10
0.0
 20
0.0
 30
0.0
  3
*D20
  1

  0
LINE
  5
184
330
181
100
AcDbEntity
  8
0
100
AcDbLine
 10
1.2497541228265365
 20
17.34214956931999
 30
0.0
 11
19.56111688901822
 21
-0.96921319687169
 31
0.0
  0
INSERT
  5
185
330
181
100
AcDbEntity
  8
0
100
AcDbBlockReference
  2
_CLOSED
 10
17.546141458246282
 20
-2.4538585417537178
 30
0.0
 41
0.175
 42
0.175
 50
225.0
  0
INSERT
  5
187
330
181
100
AcDbEntity
  8
0
100
AcDbBlockReference
  2
_CLOSED
 10
19.295951846073265
 20
-0.7040481539267347
 30
0.0
 41
0.175
 42
0.175
 50
45.0
  0
LINE
  5
189
330
181
100
AcDbEntity
  8
0
100
AcDbLine
 10
17.669885144953927
 20
-2.330114855046072
 30
0.0
 11
17.97910491391818
 21
-2.0208950860818184
 31
0.0
  0
LINE
  5
18A
330
181
100
AcDbEntity
  8
0
100
AcDbLine
 10
18.862988390401366
 20
-1.1370116095986345
 30
0.0
 11
19.17220815936562
 21
-0.8277918406343805
 31
0.0
  0
MTEXT
  5
18B
330
181
100
AcDbEntity
  8
0
100
AcDbMText
 10
18.421046652159774
 20
-1.5789533478402262
 30
0.0
 40
0.25
 71
5
  1
247.5
  7
STANDARD
 50
45.0
 45
1.1
 90
3
 63
1
  0
POINT
  5
18C
330
181
100
AcDbEntity
  8
Defpoints
100
AcDbPoint
 10
17.546141458246282
 20
-2.4538585417537178
 30
0.0
  0
POINT
  5
18D
330
181
100
AcDbEntity
  8
Defpoints
100
AcDbPoint
 10
0.602177970418829
 20
14.490104946073734
 30
0.0
  0
POINT
  5
18E
330
181
100
AcDbEntity
  8
Defpoints
100
AcDbPoint
 10
1.161365775178218
 20
17.43053791696831
 30
0.0
  0
ENDBLK
  5
183
330
181
100
AcDbEntity
  8
0
100
AcDbBlockEnd
  0
BLOCK
  5
191
330
190
100
AcDbEntity
  8
0
100
AcDbBlockBegin
  2
*D21
 70
1
 10
0.0
 20
0.0
 30
0.0
  3
*D21
  1

  0
LINE
  5
193
330
190
100
AcDbEntity
  8
0
100
AcDbLine
 10
9.709561531415133
 20
11.819567917786356
 30
0.0
 11
21.0297297675457
 21
0.49939968165579035
 31
0.0
  0
INSERT
  5
194
330
190
100
AcDbEntity
  8
0
100
AcDbBlockReference
  2
_CLOSED
 10
19.295951846073265
 20
-0.7040481539267347
 30
0.0
 41
0.175
 42
0.175
 50
225.0
  0
INSERT
  5
196
330
190
100
AcDbEntity
  8
0
100
AcDbBlockReference
  2
_CLOSED
 10
20.764564724600746
 20
0.7645647246007456
 30
0.0
 41
0.175
 42
0.175
 50
45.0
  0
LINE
  5
198
330
190
100
AcDbEntity
  8
0
100
AcDbLine
 10
19.41969553278091
 20
-0.5803044672190889
 30
0.0
 11
19.588316547095413
 21
-0.4116834529045863
 31
0.0
  0
LINE
  5
199
330
190
100
AcDbEntity
  8
0
100
AcDbLine
 10
20.472200023578598
 20
0.47220002357859725
 30
0.0
 11
20.6408210378931
 21
0.6408210378930999
 31
0.0
  0
MTEXT
  5
19A
330
190
100
AcDbEntity
  8
0
100
AcDbMText
 10
20.030258285337005
 20
0.030258285337005475
 30
0.0
 40
0.25
 71
5
  1
207.5
  7
STANDARD
 50
45.0
 45
1.1
 90
3
 63
1
  0
POINT
  5
19B
330
190
100
AcDbEntity
  8
Defpoints
100
AcDbPoint
 10
19.295951846073265
 20
-0.7040481539267347
 30
0.0
  0
POINT
  5
19C
330
190
100
AcDbEntity
  8
Defpoints
100
AcDbPoint
 10
1.161365775178218
 20
17.43053791696831
 30
0.0
  0
POINT
  5
19D
330
190
100
AcDbEntity
  8
Defpoints
100
AcDbPoint
 10
9.621173183766814
 20
11.907956265434676
 30
0.0
  0
ENDBLK
  5
192
330
190
100
AcDbEntity
  8
0
100
AcDbBlockEnd
  0
BLOCK
  5
1A0
330
19F
100
AcDbEntity
  8
0
100
AcDbBlockBegin
  2
*D22
 70
1
 10
0.0
 20
0.0
 30
0.0
  3
*D22
  1

  0
LINE
  5
1A2
330
19F
100
AcDbEntity
  8
0
100
AcDbLine
 10
12.16489292188268
 20
9.670455361712342
 30
0.0
 11
21.182839184742466
 21
0.652509098852557
 31
0.0
  0
INSERT
  5
1A3
330
19F
100
AcDbEntity
  8
0
100
AcDbBlockReference
  2
_CLOSED
 10
20.764564724600746
 20
0.7645647246007456
 30
0.0
 41
0.175
 42
0.175
 50
45.0
  0
INSERT
  5
1A5
330
19F
100
AcDbEntity
  8
0
100
AcDbBlockReference
  2
_CLOSED
 10
20.917674141797512
 20
0.9176741417975123
 30
0.0
 41
0.175
 42
0.175
 50
225.0
  0
LINE
  5
1A7
330
19F
100
AcDbEntity
  8
0
100
AcDbLine
 10
20.6408210378931
 20
0.6408210378930999
 30
0.0
 11
20.517077351185453
 21
0.5170773511854541
 31
0.0
  0
LINE
  5
1A8
330
19F
100
AcDbEntity
  8
0
100
AcDbLine
 10
21.041417828505157
 20
1.041417828505158
 30
0.0
 11
21.165161515212805
 21
1.1651615152128039
 31
0.0
  0
LINE
  5
1A9
330
19F
100
AcDbEntity
  8
0
100
AcDbLine
 10
20.764564724600746
 20
0.7645647246007456
 30
0.0
 11
20.917674141797512
 21
0.9176741417975123
 31
0.0
  0
MTEXT
  5
1AA
330
19F
100
AcDbEntity
  8
0
100
AcDbMText
 10
20.593632059783836
 20
1.0886068066144206
 30
0.0
 40
0.25
 71
5
  1
21.5
  7
STANDARD
 50
45.0
 45
1.1
 90
3
 63
1
  0
POINT
  5
1AB
330
19F
100
AcDbEntity
  8
Defpoints
100
AcDbPoint
 10
20.764564724600746
 20
0.7645647246007456
 30
0.0
  0
POINT
  5
1AC
330
19F
100
AcDbEntity
  8
Defpoints
100
AcDbPoint
 10
9.621173183766814
 20
11.907956265434676
 30
0.0
  0
POINT
  5
1AD
330
19F
100
AcDbEntity
  8
Defpoints
100
AcDbPoint
 10
12.076504574234361
 20
9.758843709360661
 30
0.0
  0
ENDBLK
  5
1A1
330
19F
100
AcDbEntity
  8
0
100
AcDbBlockEnd
  0
BLOCK
  5
1B0
330
1AF
100
AcDbEntity
  8
0
100
AcDbBlockBegin
  2
*D23
 70
1
 10
0.0
 20
0.0
 30
0.0
  3
*D23
  1

  0
LINE
  5
1B2
330
1AF
100
AcDbEntity
  8
0
100
AcDbLine
 10
10.294166490898368
 20
13.203568209243569
 30
0.0
 11
22.014032393015924
 21
1.483702307126015
 31
0.0
  0
INSERT
  5
1B3
330
1AF
100
AcDbEntity
  8
0
100
AcDbBlockReference
  2
_CLOSED
 10
20.917674141797512
 20
0.9176741417975123
 30
0.0
 41
0.175
 42
0.175
 50
225.0
  0
INSERT
  5
1B5
330
1AF
100
AcDbEntity
  8
0
100
AcDbBlockReference
  2
_CLOSED
 10
21.74886735007097
 20
1.7488673500709702
 30
0.0
 41
0.175
 42
0.175
 50
45.0
  0
LINE
  5
1B7
330
1AF
100
AcDbEntity
  8
0
100
AcDbLine
 10
21.041417828505157
 20
1.041417828505158
 30
0.0
 11
21.625123663363325
 21
1.6251236633633244
 31
0.0
  0
MTEXT
  5
1B8
330
1AF
100
AcDbEntity
  8
0
100
AcDbMText
 10
21.580758119349536
 20
1.0857833725189496
 30
0.0
 40
0.25
 71
5
  1
117.5
  7
STANDARD
 50
45.0
 45
1.1
 90
3
 63
1
  0
POINT
  5
1B9
330
1AF
100
AcDbEntity
  8
Defpoints
100
AcDbPoint
 10
20.917674141797512
 20
0.9176741417975123
 30
0.0
  0
POINT
  5
1BA
330
1AF
100
AcDbEntity
  8
Defpoints
100
AcDbPoint
 10
12.076504574234361
 20
9.758843709360661
 30
0.0
  0
POINT
  5
1BB
330
1AF
100
AcDbEntity
  8
Defpoints
100
AcDbPoint
 10
10.205778143250049
 20
13.291956556891888
 30
0.0
  0
ENDBLK
  5
1B1
330
1AF
100
AcDbEntity
  8
0
100
AcDbBlockEnd
  0
BLOCK
  5
1BE
330
1BD
100
AcDbEntity
  8
0
100
AcDbBlockBegin
  2
*D24
 70
1
 10
0.0
 20
0.0
 30
0.0
  3
*D24
  1

  0
LINE
  5
1C0
330
1BD
100
AcDbEntity
  8
0
100
AcDbLine
 10
7.608015670261589
 20
16.08850038052843
 30
0.0
 11
22.113423068339966
 21
1.5830929824500566
 31
0.0
  0
INSERT
  5
1C1
330
1BD
100
AcDbEntity
  8
0
100
AcDbBlockReference
  2
_CLOSED
 10
21.74886735007097
 20
1.7488673500709702
 30
0.0
 41
0.175
 42
0.175
 50
45.0
  0
INSERT
  5
1C3
330
1BD
100
AcDbEntity
  8
0
100
AcDbBlockReference
  2
_CLOSED
 10
21.848258025395012
 20
1.8482580253950118
 30
0.0
 41
0.175
 42
0.175
 50
225.0
  0
LINE
  5
1C5
330
1BD
100
AcDbEntity
  8
0
100
AcDbLine
 10
21.625123663363325
 20
1.6251236633633244
 30
0.0
 11
21.501379976655677
 21
1.5013799766556786
 31
0.0
  0
LINE
  5
1C6
330
1BD
100
AcDbEntity
  8
0
100
AcDbLine
 10
21.972001712102657
 20
1.9720017121026576
 30
0.0
 11
22.095745398810305
 21
2.0957453988103034
 31
0.0
  0
LINE
  5
1C7
330
1BD
100
AcDbEntity
  8
0
100
AcDbLine
 10
21.74886735007097
 20
1.7488673500709702
 30
0.0
 11
21.848258025395012
 21
1.8482580253950118
 31
0.0
  0
MTEXT
  5
1C8
330
1BD
100
AcDbEntity
  8
0
100
AcDbMText
 10
21.551075314317696
 20
2.0460500611482826
 30
0.0
 40
0.25
 71
5
  1
14
  7
STANDARD
 50
45.0
 45
1.1
 90
3
 63
1
  0
POINT
  5
1C9
330
1BD
100
AcDbEntity
  8
Defpoints
100
AcDbPoint
 10
21.74886735007097
 20
1.7488673500709702
 30
0.0
  0
POINT
  5
1CA
330
1BD
100
AcDbEntity
  8
Defpoints
100
AcDbPoint
 10
10.205778143250049
 20
13.291956556891888
 30
0.0
  0
POINT
  5
1CB
330
1BD
100
AcDbEntity
  8
Defpoints
100
AcDbPoint
 10
7.519627322613271
 20
16.17688872817675
 30
0.0
  0
ENDBLK
  5
1BF
330
1BD
100
AcDbEntity
  8
0
100
AcDbBlockEnd
  0
BLOCK
  5
1CE
330
1CD
100
AcDbEntity
  8
0
100
AcDbBlockBegin
  2
*D25
 70
1
 10
0.0
 20
0.0
 30
0.0
  3
*D25
  1

  0
LINE
  5
1D0
330
1CD
100
AcDbEntity
  8
0
100
AcDbLine
 10
9.285674467695516
 20
15.368536039590632
 30
0.0
 11
22.59227029658803
 21
2.0619402106981206
 31
0.0
  0
INSERT
  5
1D1
330
1CD
100
AcDbEntity
  8
0
100
AcDbBlockReference
  2
_CLOSED
 10
21.848258025395012
 20
1.8482580253950118
 30
0.0
 41
0.175
 42
0.175
 50
225.0
  0
INSERT
  5
1D3
330
1CD
100
AcDbEntity
  8
0
100
AcDbBlockReference
  2
_CLOSED
 10
22.327105253643076
 20
2.327105253643076
 30
0.0
 41
0.175
 42
0.175
 50
45.0
  0
LINE
  5
1D5
330
1CD
100
AcDbEntity
  8
0
100
AcDbLine
 10
21.972001712102657
 20
1.9720017121026576
 30
0.0
 11
22.20336156693543
 21
2.20336156693543
 31
0.0
  0
MTEXT
  5
1D6
330
1CD
100
AcDbEntity
  8
0
100
AcDbMText
 10
22.335169012934337
 20
1.8401942661037523
 30
0.0
 40
0.25
 71
5
  1
67.5
  7
STANDARD
 50
45.0
 45
1.1
 90
3
 63
1
  0
POINT
  5
1D7
330
1CD
100
AcDbEntity
  8
Defpoints
100
AcDbPoint
 10
21.848258025395012
 20
1.8482580253950118
 30
0.0
  0
POINT
  5
1D8
330
1CD
100
AcDbEntity
  8
Defpoints
100
AcDbPoint
 10
7.519627322613271
 20
16.17688872817675
 30
0.0
  0
POINT
  5
1D9
330
1CD
100
AcDbEntity
  8
Defpoints
100
AcDbPoint
 10
9.197286120047197
 20
15.456924387238951
 30
0.0
  0
ENDBLK
  5
1CF
330
1CD
100
AcDbEntity
  8
0
100
AcDbBlockEnd
  0
BLOCK
  5
1DC
330
1DB
100
AcDbEntity
  8
0
100
AcDbBlockBegin
  2
*D26
 70
1
 10
0.0
 20
0.0
 30
0.0
  3
*D26
  1

  0
LINE
  5
1DE
330
1DB
100
AcDbEntity
  8
0
100
AcDbLine
 10
17.423707222739548
 20
12.707444092097457
 30
0.0
 11
25.33074070036346
 21
4.800410614473551
 31
0.0
  0
INSERT
  5
1DF
330
1DB
100
AcDbEntity
  8
0
100
AcDbBlockReference
  2
_CLOSED
 10
22.327105253643076
 20
2.327105253643076
 30
0.0
 41
0.175
 42
0.175
 50
225.0
  0
INSERT
  5
1E1
330
1DB
100
AcDbEntity
  8
0
100
AcDbBlockReference
  2
_CLOSED
 10
25.065575657418506
 20
5.065575657418506
 30
0.0
 41
0.175
 42
0.175
 50
45.0
  0
LINE
  5
1E3
330
1DB
100
AcDbEntity
  8
0
100
AcDbLine
 10
22.45084894035072
 20
2.4508489403507214
 30
0.0
 11
23.2543987172892
 21
3.254398717289199
 31
0.0
  0
LINE
  5
1E4
330
1DB
100
AcDbEntity
  8
0
100
AcDbLine
 10
24.138282193772383
 20
4.138282193772383
 30
0.0
 11
24.94183197071086
 21
4.941831970710861
 31
0.0
  0
MTEXT
  5
1E5
330
1DB
100
AcDbEntity
  8
0
100
AcDbMText
 10
23.69634045553079
 20
3.696340455530791
 30
0.0
 40
0.25
 71
5
  1
387.5
  7
STANDARD
 50
45.0
 45
1.1
 90
3
 63
1
  0
POINT
  5
1E6
330
1DB
100
AcDbEntity
  8
Defpoints
100
AcDbPoint
 10
22.327105253643076
 20
2.327105253643076
 30
0.0
  0
POINT
  5
1E7
330
1DB
100
AcDbEntity
  8
Defpoints
100
AcDbPoint
 10
9.197286120047197
 20
15.456924387238951
 30
0.0
  0
POINT
  5
1E8
330
1DB
100
AcDbEntity
  8
Defpoints
100
AcDbPoint
 10
17.33531887509123
 20
12.795832439745777
 30
0.0
  0
ENDBLK
  5
1DD
330
1DB
100
AcDbEntity
  8
0
100
AcDbBlockEnd
  0
BLOCK
  5
1EB
330
1EA
100
AcDbEntity
  8
0
100
AcDbBlockBegin
  2
*D27
 70
1
 10
0.0
 20
0.0
 30
0.0
  3
*D27
  1

  0
LINE
  5
1ED
330
1EA
100
AcDbEntity
  8
0
100
AcDbLine
 10
15.331329058116307
 20
16.75406030619281
 30
0.0
 11
26.307859725099515
 21
5.777529639209606
 31
0.0
  0
INSERT
  5
1EE
330
1EA
100
AcDbEntity
  8
0
100
AcDbBlockReference
  2
_CLOSED
 10
25.065575657418506
 20
5.065575657418506
 30
0.0
 41
0.175
 42
0.175
 50
225.0
  0
INSERT
  5
1F0
330
1EA
100
AcDbEntity
  8
0
100
AcDbBlockReference
  2
_CLOSED
 10
26.04269468215456
 20
6.042694682154561
 30
0.0
 41
0.175
 42
0.175
 50
45.0
  0
LINE
  5
1F2
330
1EA
100
AcDbEntity
  8
0
100
AcDbLine
 10
25.18931934412615
 20
5.189319344126152
 30
0.0
 11
25.28897012684158
 21
5.288970126841579
 31
0.0
  0
LINE
  5
1F3
330
1EA
100
AcDbEntity
  8
0
100
AcDbLine
 10
25.819300212731488
 20
5.819300212731489
 30
0.0
 11
25.918950995446917
 21
5.918950995446916
 31
0.0
  0
MTEXT
  5
1F4
330
1EA
100
AcDbEntity
  8
0
100
AcDbMText
 10
25.554135169786534
 20
5.554135169786534
 30
0.0
 40
0.25
 71
5
  1
138
  7
STANDARD
 50
45.0
 45
1.1
 90
3
 63
1
  0
POINT
  5
1F5
330
1EA
100
AcDbEntity
  8
Defpoints
100
AcDbPoint
 10
25.065575657418506
 20
5.065575657418506
 30
0.0
  0
POINT
  5
1F6
330
1EA
100
AcDbEntity
  8
Defpoints
100
AcDbPoint
 10
17.33531887509123
 20
12.795832439745777
 30
0.0
  0
POINT
  5
1F7
330
1EA
100
AcDbEntity
  8
Defpoints
100
AcDbPoint
 10
15.242940710467987
 20
16.842448653841128
 30
0.0
  0
ENDBLK
  5
1EC
330
1EA
100
AcDbEntity
  8
0
100
AcDbBlockEnd
  0
ENDSEC
  0
SECTION
  2
ENTITIES
  0
LWPOLYLINE
  5
8A
330
17
100
AcDbEntity
  8
0
 62
1
100
AcDbPolyline
 90
10
 70
0
 10
15.242940710467987
 20
16.842448653841128
 10
0.602177970418829
 20
14.490104946073734
 10
10.205778143250049
 20
13.291956556891888
 10
1.161365775178218
 20
17.43053791696831
 10
17.33531887509123
 20
12.795832439745777
 10
9.190464721456728
 20
3.4210136859146756
 10
9.621173183766814
 20
11.907956265434676
 10
9.197286120047197
 20
15.456924387238951
 10
12.076504574234361
 20
9.758843709360661
 10
7.519627322613271
 20
16.17688872817675
  0
DIMENSION
  5
8D
330
17
100
AcDbEntity
  8
0
100
AcDbDimension
  2
*D1
  3
WITHTFILL
 10
0.602177970418829
 20
22.0
 30
0.0
 11
0.8817718727985235
 21
22.575000000000003
 31
0.0
 70
160
 71
5
  1
<>
100
AcDbAlignedDimension
 13
0.602177970418829
 23
14.490104946073734
 33
0.0
 14
1.161365775178218
 24
17.43053791696831
 34
0.0
 50
0.0
100
AcDbRotatedDimension
1001
ACAD
1000
DSTYLE
1002
{
1070
174
1070
1
1070
145
1040
0.0
1070
279
1070
2
1002
}
  0
DIMENSION
  5
9C
330
17
100
AcDbEntity
  8
0
100
AcDbDimension
  2
*D2
  3
WITHTFILL
 10
1.161365775178218
 20
22.0
 30
0.0
 11
4.340496548895745
 21
22.225
 31
0.0
 70
32
 71
5
  1
<>
100
AcDbAlignedDimension
 13
1.161365775178218
 23
17.43053791696831
 33
0.0
 14
7.519627322613271
 24
16.17688872817675
 34
0.0
 50
0.0
100
AcDbRotatedDimension
1001
ACAD
1000
DSTYLE
1002
{
1070
174
1070
1
1070
145
1040
0.0
1070
75
1070
1
1002
}
  0
DIMENSION
  5
A8
330
17
100
AcDbEntity
  8
0
100
AcDbDimension
  2
*D3
  3
WITHTFILL
 10
7.519627322613271
 20
22.0
 30
0.0
 11
8.355046022035
 21
22.225
 31
0.0
 70
32
 71
5
  1
<>
100
AcDbAlignedDimension
 13
7.519627322613271
 23
16.17688872817675
 33
0.0
 14
9.190464721456728
 24
3.4210136859146756
 34
0.0
 50
0.0
100
AcDbRotatedDimension
1001
ACAD
1000
DSTYLE
1002
{
1070
174
1070
1
1070
145
1040
0.0
1070
75
1070
1
1002
}
  0
DIMENSION
  5
B4
330
17
100
AcDbEntity
  8
0
100
AcDbDimension
  2
*D4
  3
WITHTFILL
 10
9.190464721456728
 20
22.0
 30
0.0
 11
9.193875420751962
 21
22.575000000000003
 31
0.0
 70
160
 71
5
  1
<>
100
AcDbAlignedDimension
 13
9.190464721456728
 23
3.4210136859146756
 33
0.0
 14
9.197286120047197
 24
15.456924387238951
 34
0.0
 50
0.0
100
AcDbRotatedDimension
1001
ACAD
1000
DSTYLE
1002
{
1070
174
1070
1
1070
145
1040
0.0
1070
75
1070
1
1070
279
1070
2
1002
}
  0
DIMENSION
  5
C0
330
17
100
AcDbEntity
  8
0
100
AcDbDimension
  2
*D5
  3
WITHTFILL
 10
9.197286120047197
 20
22.0
 30
0.0
 11
9.409229651907005
 21
21.525000000000002
 31
0.0
 70
160
 71
5
  1
<>
100
AcDbAlignedDimension
 13
9.197286120047197
 23
15.456924387238951
 33
0.0
 14
9.621173183766814
 24
11.907956265434676
 34
0.0
 50
0.0
100
AcDbRotatedDimension
1001
ACAD
1000
DSTYLE
1002
{
1070
174
1070
1
1070
145
1040
0.0
1070
75
1070
1
1070
279
1070
2
1002
}
  0
DIMENSION
  5
CC
330
17
100
AcDbEntity
  8
0
100
AcDbDimension
  2
*D6
  3
WITHTFILL
 10
9.621173183766814
 20
22.0
 30
0.0
 11
9.913475663508432
 21
22.575000000000003
 31
0.0
 70
160
 71
5
  1
<>
100
AcDbAlignedDimension
 13
9.621173183766814
 23
11.907956265434676
 33
0.0
 14
10.205778143250049
 24
13.291956556891888
 34
0.0
 50
0.0
100
AcDbRotatedDimension
1001
ACAD
1000
DSTYLE
1002
{
1070
174
1070
1
1070
145
1040
0.0
1070
75
1070
1
1070
279
1070
2
1002
}
  0
DIMENSION
  5
D8
330
17
100
AcDbEntity
  8
0
100
AcDbDimension
  2
*D7
  3
WITHTFILL
 10
10.205778143250049
 20
22.0
 30
0.0
 11
11.141141358742205
 21
22.225
 31
0.0
 70
32
 71
5
  1
<>
100
AcDbAlignedDimension
 13
10.205778143250049
 23
13.291956556891888
 33
0.0
 14
12.076504574234361
 24
9.758843709360661
 34
0.0
 50
0.0
100
AcDbRotatedDimension
1001
ACAD
1000
DSTYLE
1002
{
1070
174
1070
1
1070
145
1040
0.0
1070
75
1070
1
1002
}
  0
DIMENSION
  5
E4
330
17
100
AcDbEntity
  8
0
100
AcDbDimension
  2
*D8
  3
WITHTFILL
 10
12.076504574234361
 20
22.0
 30
0.0
 11
13.659722642351174
 21
22.225
 31
0.0
 70
32
 71
5
  1
<>
100
AcDbAlignedDimension
 13
12.076504574234361
 23
9.758843709360661
 33
0.0
 14
15.242940710467987
 24
16.842448653841128
 34
0.0
 50
0.0
100
AcDbRotatedDimension
1001
ACAD
1000
DSTYLE
1002
{
1070
174
1070
1
1070
145
1040
0.0
1070
75
1070
1
1002
}
  0
DIMENSION
  5
F0
330
17
100
AcDbEntity
  8
0
100
AcDbDimension
  2
*D9
  3
WITHTFILL
 10
15.242940710467987
 20
22.0
 30
0.0
 11
16.289129792779608
 21
22.225
 31
0.0
 70
32
 71
5
  1
<>
100
AcDbAlignedDimension
 13
15.242940710467987
 23
16.842448653841128
 33
0.0
 14
17.33531887509123
 24
12.795832439745777
 34
0.0
 50
0.0
100
AcDbRotatedDimension
1001
ACAD
1000
DSTYLE
1002
{
1070
174
1070
1
1070
145
1040
0.0
1070
75
1070
1
1002
}
  0
DIMENSION
  5
FC
330
17
100
AcDbEntity
  8
0
100
AcDbDimension
  2
*D10
  3
WITHTFILL
 10
-2.0
 20
3.4210136859146756
 30
0.0
 11
-2.225
 21
6.589928697637669
 31
0.0
 70
32
 71
5
  1
<>
100
AcDbAlignedDimension
 13
9.190464721456728
 23
3.4210136859146756
 33
0.0
 14
12.076504574234361
 24
9.758843709360661
 34
0.0
 50
90.0
100
AcDbRotatedDimension
1001
ACAD
1000
DSTYLE
1002
{
1070
174
1070
1
1070
145
1040
0.0
1002
}
  0
DIMENSION
  5
10B
330
17
100
AcDbEntity
  8
0
100
AcDbDimension
  2
*D11
  3
WITHTFILL
 10
-2.0
 20
9.758843709360661
 30
0.0
 11
-2.225
 21
10.83339998739767
 31
0.0
 70
32
 71
5
  1
<>
100
AcDbAlignedDimension
 13
12.076504574234361
 23
9.758843709360661
 33
0.0
 14
9.621173183766814
 24
11.907956265434676
 34
0.0
 50
90.0
100
AcDbRotatedDimension
1001
ACAD
1000
DSTYLE
1002
{
1070
174
1070
1
1070
145
1040
0.0
1070
75
1070
1
1002
}
  0
DIMENSION
  5
117
330
17
100
AcDbEntity
  8
0
100
AcDbDimension
  2
*D12
  3
WITHTFILL
 10
-2.0
 20
11.907956265434676
 30
0.0
 11
-2.575
 21
12.351894352590225
 31
0.0
 70
160
 71
5
  1
<>
100
AcDbAlignedDimension
 13
9.621173183766814
 23
11.907956265434676
 33
0.0
 14
17.33531887509123
 24
12.795832439745777
 34
0.0
 50
90.0
100
AcDbRotatedDimension
1001
ACAD
1000
DSTYLE
1002
{
1070
174
1070
1
1070
145
1040
0.0
1070
75
1070
1
1070
279
1070
2
1002
}
  0
DIMENSION
  5
123
330
17
100
AcDbEntity
  8
0
100
AcDbDimension
  2
*D13
  3
WITHTFILL
 10
-2.0
 20
12.795832439745777
 30
0.0
 11
-1.5250000000000001
 21
13.043894498318831
 31
0.0
 70
160
 71
5
  1
<>
100
AcDbAlignedDimension
 13
17.33531887509123
 23
12.795832439745777
 33
0.0
 14
10.205778143250049
 24
13.291956556891888
 34
0.0
 50
90.0
100
AcDbRotatedDimension
1001
ACAD
1000
DSTYLE
1002
{
1070
174
1070
1
1070
145
1040
0.0
1070
75
1070
1
1070
279
1070
2
1002
}
  0
DIMENSION
  5
12F
330
17
100
AcDbEntity
  8
0
100
AcDbDimension
  2
*D14
  3
WITHTFILL
 10
-2.0
 20
13.291956556891888
 30
0.0
 11
-2.575
 21
13.89103075148281
 31
0.0
 70
160
 71
5
  1
<>
100
AcDbAlignedDimension
 13
10.205778143250049
 23
13.291956556891888
 33
0.0
 14
0.602177970418829
 24
14.490104946073734
 34
0.0
 50
90.0
100
AcDbRotatedDimension
1001
ACAD
1000
DSTYLE
1002
{
1070
174
1070
1
1070
145
1040
0.0
1070
75
1070
1
1070
279
1070
2
1002
}
  0
DIMENSION
  5
13B
330
17
100
AcDbEntity
  8
0
100
AcDbDimension
  2
*D15
  3
WITHTFILL
 10
-2.0
 20
14.490104946073734
 30
0.0
 11
-1.5250000000000001
 21
14.973514666656342
 31
0.0
 70
160
 71
5
  1
<>
100
AcDbAlignedDimension
 13
0.602177970418829
 23
14.490104946073734
 33
0.0
 14
9.197286120047197
 24
15.456924387238951
 34
0.0
 50
90.0
100
AcDbRotatedDimension
1001
ACAD
1000
DSTYLE
1002
{
1070
174
1070
1
1070
145
1040
0.0
1070
75
1070
1
1070
279
1070
2
1002
}
  0
DIMENSION
  5
147
330
17
100
AcDbEntity
  8
0
100
AcDbDimension
  2
*D16
  3
WITHTFILL
 10
-2.0
 20
15.456924387238951
 30
0.0
 11
-2.225
 21
15.81690655770785
 31
0.0
 70
32
 71
5
  1
<>
100
AcDbAlignedDimension
 13
9.197286120047197
 23
15.456924387238951
 33
0.0
 14
7.519627322613271
 24
16.17688872817675
 34
0.0
 50
90.0
100
AcDbRotatedDimension
1001
ACAD
1000
DSTYLE
1002
{
1070
174
1070
1
1070
145
1040
0.0
1070
75
1070
1
1002
}
  0
DIMENSION
  5
153
330
17
100
AcDbEntity
  8
0
100
AcDbDimension
  2
*D17
  3
WITHTFILL
 10
-2.0
 20
16.17688872817675
 30
0.0
 11
-2.575
 21
16.50966869100894
 31
0.0
 70
160
 71
5
  1
<>
100
AcDbAlignedDimension
 13
7.519627322613271
 23
16.17688872817675
 33
0.0
 14
15.242940710467987
 24
16.842448653841128
 34
0.0
 50
90.0
100
AcDbRotatedDimension
1001
ACAD
1000
DSTYLE
1002
{
1070
174
1070
1
1070
145
1040
0.0
1070
75
1070
1
1070
279
1070
2
1002
}
  0
DIMENSION
  5
15F
330
17
100
AcDbEntity
  8
0
100
AcDbDimension
  2
*D18
  3
WITHTFILL
 10
-2.0
 20
16.842448653841128
 30
0.0
 11
-1.5250000000000001
 21
17.13649328540472
 31
0.0
 70
160
 71
5
  1
<>
100
AcDbAlignedDimension
 13
15.242940710467987
 23
16.842448653841128
 33
0.0
 14
1.161365775178218
 24
17.43053791696831
 34
0.0
 50
90.0
100
AcDbRotatedDimension
1001
ACAD
1000
DSTYLE
1002
{
1070
174
1070
1
1070
145
1040
0.0
1070
75
1070
1
1070
279
1070
2
1002
}
  0
DIMENSION
  5
16B
330
17
100
AcDbEntity
  8
0
100
AcDbDimension
  2
*D19
  3
WITHTXT
 10
16.305739203685704
 20
-3.694260796314296
 30
0.0
 11
16.925940330965993
 21
-3.074059669034007
 31
0.0
 70
32
 71
5
  1
<>
100
AcDbAlignedDimension
 13
9.190464721456728
 23
3.4210136859146756
 33
0.0
 14
0.602177970418829
 24
14.490104946073734
 34
0.0
 50
45.0
100
AcDbRotatedDimension
1001
ACAD
1000
DSTYLE
1002
{
1070
174
1070
1
1070
145
1040
0.0
1002
}
  0
DIMENSION
  5
180
330
17
100
AcDbEntity
  8
0
100
AcDbDimension
  2
*D20
  3
WITHTXT
 10
17.546141458246282
 20
-2.4538585417537178
 30
0.0
 11
18.421046652159774
 21
-1.5789533478402262
 31
0.0
 70
32
 71
5
  1
<>
100
AcDbAlignedDimension
 13
0.602177970418829
 23
14.490104946073734
 33
0.0
 14
1.161365775178218
 24
17.43053791696831
 34
0.0
 50
45.0
100
AcDbRotatedDimension
1001
ACAD
1000
DSTYLE
1002
{
1070
174
1070
1
1070
145
1040
0.0
1070
75
1070
1
1002
}
  0
DIMENSION
  5
18F
330
17
100
AcDbEntity
  8
0
100
AcDbDimension
  2
*D21
  3
WITHTXT
 10
19.295951846073265
 20
-0.7040481539267347
 30
0.0
 11
20.030258285337005
 21
0.030258285337005475
 31
0.0
 70
32
 71
5
  1
<>
100
AcDbAlignedDimension
 13
1.161365775178218
 23
17.43053791696831
 33
0.0
 14
9.621173183766814
 24
11.907956265434676
 34
0.0
 50
45.0
100
AcDbRotatedDimension
1001
ACAD
1000
DSTYLE
1002
{
1070
174
1070
1
1070
145
1040
0.0
1070
75
1070
1
1002
}
  0
DIMENSION
  5
19E
330
17
100
AcDbEntity
  8
0
100
AcDbDimension
  2
*D22
  3
WITHTXT
 10
20.764564724600746
 20
0.7645647246007456
 30
0.0
 11
20.593632059783836
 21
1.0886068066144206
 31
0.0
 70
160
 71
5
  1
<>
100
AcDbAlignedDimension
 13
9.621173183766814
 23
11.907956265434676
 33
0.0
 14
12.076504574234361
 24
9.758843709360661
 34
0.0
 50
45.0
100
AcDbRotatedDimension
1001
ACAD
1000
DSTYLE
1002
{
1070
174
1070
1
1070
145
1040
0.0
1070
75
1070
1
1070
279
1070
2
1002
}
  0
DIMENSION
  5
1AE
330
17
100
AcDbEntity
  8
0
100
AcDbDimension
  2
*D23
  3
WITHTXT
 10
20.917674141797512
 20
0.9176741417975123
 30
0.0
 11
21.580758119349536
 21
1.0857833725189496
 31
0.0
 70
160
 71
5
  1
<>
100
AcDbAlignedDimension
 13
12.076504574234361
 23
9.758843709360661
 33
0.0
 14
10.205778143250049
 24
13.291956556891888
 34
0.0
 50
45.0
100
AcDbRotatedDimension
1001
ACAD
1000
DSTYLE
1002
{
1070
174
1070
1
1070
145
1040
0.0
1070
75
1070
1
1070
279
1070
2
1002
}
  0
DIMENSION
  5
1BC
330
17
100
AcDbEntity
  8
0
100
AcDbDimension
  2
*D24
  3
WITHTXT
 10
21.74886735007097
 20
1.7488673500709702
 30
0.0
 11
21.551075314317696
 21
2.0460500611482826
 31
0.0
 70
160
 71
5
  1
<>
100
AcDbAlignedDimension
 13
10.205778143250049
 23
13.291956556891888
 33
0.0
 14
7.519627322613271
 24
16.17688872817675
 34
0.0
 50
45.0
100
AcDbRotatedDimension
1001
ACAD
1000
DSTYLE
1002
{
1070
174
1070
1
1070
145
1040
0.0
1070
75
1070
1
1070
279
1070
2
1002
}
  0
DIMENSION
  5
1CC
330
17
100
AcDbEntity
  8
0
100
AcDbDimension
  2
*D25
  3
WITHTXT
 10
21.848258025395012
 20
1.8482580253950118
 30
0.0
 11
22.335169012934337
 21
1.8401942661037523
 31
0.0
 70
160
 71
5
  1
<>
100
AcDbAlignedDimension
 13
7.519627322613271
 23
16.17688872817675
 33
0.0
 14
9.197286120047197
 24
15.456924387238951
 34
0.0
 50
45.0
100
AcDbRotatedDimension
1001
ACAD
1000
DSTYLE
1002
{
1070
174
1070
1
1070
145
1040
0.0
1070
75
1070
1
1070
279
1070
2
1002
}
  0
DIMENSION
  5
1DA
330
17
100
AcDbEntity
  8
0
100
AcDbDimension
  2
*D26
  3
WITHTXT
 10
22.327105253643076
 20
2.327105253643076
 30
0.0
 11
23.69634045553079
 21
3.696340455530791
 31
0.0
 70
32
 71
5
  1
<>
100
AcDbAlignedDimension
 13
9.197286120047197
 23
15.456924387238951
 33
0.0
 14
17.33531887509123
 24
12.795832439745777
 34
0.0
 50
45.0
100
AcDbRotatedDimension
1001
ACAD
1000
DSTYLE
1002
{
1070
174
1070
1
1070
145
1040
0.0
1070
75
1070
1
1002
}
  0
DIMENSION
  5
1E9
330
17
100
AcDbEntity
  8
0
100
AcDbDimension
  2
*D27
  3
WITHTXT
 10
25.065575657418506
 20
5.065575657418506
 30
0.0
 11
25.554135169786534
 21
5.554135169786534
 31
0.0
 70
32
 71
5
  1
<>
100
AcDbAlignedDimension
 13
17.33531887509123
 23
12.795832439745777
 33
0.0
 14
15.242940710467987
 24
16.842448653841128
 34
0.0
 50
45.0
100
AcDbRotatedDimension
1001
ACAD
1000
DSTYLE
1002
{
1070
174
1070
1
1070
145
1040
0.0
1070
75
1070
1
1002
}
  0
ENDSEC
  0
SECTION
  2
OBJECTS
  0
DICTIONARY
  5
A
330
0
100
AcDbDictionary
280
0
281
1
  3
ACAD_COLOR
350
B
  3
ACAD_GROUP
350
C
  3
ACAD_LAYOUT
350
D
  3
ACAD_MATERIAL
350
E
  3
ACAD_MLEADERSTYLE
350
F
  3
ACAD_MLINESTYLE
350
10
  3
ACAD_PLOTSETTINGS
350
11
  3
ACAD_PLOTSTYLENAME
350
12
  3
ACAD_SCALELIST
350
14
  3
ACAD_TABLESTYLE
350
15
  3
ACAD_VISUALSTYLE
350
16
  3
EZDXF_META
350
2D
  0
DICTIONARY
  5
B
330
A
100
AcDbDictionary
280
0
281
1
  0
DICTIONARY
  5
C
330
A
100
AcDbDictionary
280
0
281
1
  0
DICTIONARY
  5
D
330
A
100
AcDbDictionary
280
0
281
1
  3
Model
350
1A
  3
Layout1
350
1E
  0
DICTIONARY
  5
E
330
A
100
AcDbDictionary
280
0
281
1
  3
ByBlock
350
1F
  3
ByLayer
350
20
  3
Global
350
21
  0
DICTIONARY
  5
F
330
A
100
AcDbDictionary
280
0
281
1
  3
Standard
350
2C
  0
DICTIONARY
  5
10
330
A
100
AcDbDictionary
280
0
281
1
  3
Standard
350
22
  0
DICTIONARY
  5
11
330
A
100
AcDbDictionary
280
0
281
1
  0
ACDBDICTIONARYWDFLT
  5
12
330
A
100
AcDbDictionary
280
0
281
1
  3
Normal
350
13
100
AcDbDictionaryWithDefault
340
13
  0
ACDBPLACEHOLDER
  5
13
330
12
  0
DICTIONARY
  5
14
330
A
100
AcDbDictionary
280
0
281
1
  0
DICTIONARY
  5
15
330
A
100
AcDbDictionary
280
0
281
1
  0
DICTIONARY
  5
16
330
A
100
AcDbDictionary
280
0
281
1
  3
2dWireframe
350
5A
  3
Basic
350
5B
  3
Brighten
350
5C
  3
ColorChange
350
5D
  3
Conceptual
350
5E
  3
Dim
350
5F
  3
EdgeColorOff
350
60
  3
Facepattern
350
61
  3
Flat
350
62
  3
FlatWithEdges
350
63
  3
Gouraud
350
64
  3
GouraudWithEdges
350
65
  3
Hidden
350
66
  3
JitterOff
350
67
  3
Linepattern
350
68
  3
Modeling
350
69
  3
OverhangOff
350
6A
  3
Realistic
350
6B
  3
Shaded
350
6C
  3
Shaded with edges
350
6D
  3
Shades of Gray
350
6E
  3
Sketchy
350
6F
  3
Thicken
350
70
  3
Wireframe
350
71
  3
X-Ray
350
72
  0
LAYOUT
  5
1A
330
D
100
AcDbPlotSettings
  1

  2
Adobe PDF
  4
A3
  6

 40
7.5
 41
20.0
 42
7.5
 43
20.0
 44
420.0
 45
297.0
 46
0.0
 47
0.0
 48
0.0
 49
0.0
140
0.0
141
0.0
142
1.0
143
1.0
 70
1024
 72
1
 73
0
 74
5
  7

 75
16
 76
0
 77
2
 78
300
147
1.0
148
0.0
149
0.0
100
AcDbLayout
  1
Model
 70
1
 71
0
 10
0.0
 20
0.0
 11
420.0
 21
297.0
 12
0.0
 22
0.0
 32
0.0
 14
1e+20
 24
1e+20
 34
1e+20
 15
-1e+20
 25
-1e+20
 35
-1e+20
146
0.0
 13
0.0
 23
0.0
 33
0.0
 16
1.0
 26
0.0
 36
0.0
 17
0.0
 27
1.0
 37
0.0
 76
1
330
17
  0
LAYOUT
  5
1E
330
D
100
AcDbPlotSettings
  1

  2
Adobe PDF
  4
A3
  6

 40
7.5
 41
20.0
 42
7.5
 43
20.0
 44
420.0
 45
297.0
 46
0.0
 47
0.0
 48
0.0
 49
0.0
140
0.0
141
0.0
142
1.0
143
1.0
 70
0
 72
1
 73
0
 74
5
  7

 75
16
 76
0
 77
2
 78
300
147
1.0
148
0.0
149
0.0
100
AcDbLayout
  1
Layout1
 70
1
 71
1
 10
0.0
 20
0.0
 11
420.0
 21
297.0
 12
0.0
 22
0.0
 32
0.0
 14
1e+20
 24
1e+20
 34
1e+20
 15
-1e+20
 25
-1e+20
 35
-1e+20
146
0.0
 13
0.0
 23
0.0
 33
0.0
 16
1.0
 26
0.0
 36
0.0
 17
0.0
 27
1.0
 37
0.0
 76
1
330
1B
  0
MATERIAL
  5
1F
102
{ACAD_REACTORS
330
E
102
}
330
E
100
AcDbMaterial
  1
ByBlock
  2

 70
0
 40
1.0
 71
1
 41
1.0
 91
-1023410177
 42
1.0
 72
1
  3

 73
1
 74
1
 75
1
 44
0.5
 73
0
 45
1.0
 46
1.0
 77
1
  4

 78
1
 79
1
170
1
 48
1.0
171
1
  6

172
1
173
1
174
1
140
1.0
141
1.0
175
1
  7

176
1
177
1
178
1
143
1.0
179
1
  8

270
1
271
1
272
1
145
1.0
146
1.0
273
1
  9

274
1
275
1
276
1
 42
1.0
 72
1
  3

 73
1
 74
1
 75
1
 94
63
  0
MATERIAL
  5
20
102
{ACAD_REACTORS
330
E
102
}
330
E
100
AcDbMaterial
  1
ByLayer
  2

 70
0
 40
1.0
 71
1
 41
1.0
 91
-1023410177
 42
1.0
 72
1
  3

 73
1
 74
1
 75
1
 44
0.5
 73
0
 45
1.0
 46
1.0
 77
1
  4

 78
1
 79
1
170
1
 48
1.0
171
1
  6

172
1
173
1
174
1
140
1.0
141
1.0
175
1
  7

176
1
177
1
178
1
143
1.0
179
1
  8

270
1
271
1
272
1
145
1.0
146
1.0
273
1
  9

274
1
275
1
276
1
 42
1.0
 72
1
  3

 73
1
 74
1
 75
1
 94
63
  0
MATERIAL
  5
21
102
{ACAD_REACTORS
330
E
102
}
330
E
100
AcDbMaterial
  1
Global
  2

 70
0
 40
1.0
 71
1
 41
1.0
 91
-1023410177
 42
1.0
 72
1
  3

 73
1
 74
1
 75
1
 44
0.5
 73
0
 45
1.0
 46
1.0
 77
1
  4

 78
1
 79
1
170
1
 48
1.0
171
1
  6

172
1
173
1
174
1
140
1.0
141
1.0
175
1
  7

176
1
177
1
178
1
143
1.0
179
1
  8

270
1
271
1
272
1
145
1.0
146
1.0
273
1
  9

274
1
275
1
276
1
 42
1.0
 72
1
  3

 73
1
 74
1
 75
1
 94
63
  0
MLINESTYLE
  5
22
102
{ACAD_REACTORS
330
10
102
}
330
10
100
AcDbMlineStyle
  2
Standard
 70
0
  3

 62
256
 51
90.0
 52
90.0
 71
2
 49
0.5
 62
256
  6
BYLAYER
 49
-0.5
 62
256
  6
BYLAYER
  0
MLEADERSTYLE
  5
2C
102
{ACAD_REACTORS
330
F
102
}
330
F
100
AcDbMLeaderStyle
179
2
170
2
171
1
172
0
 90
2
 40
0.0
 41
0.0
173
1
 91
-1056964608
 92
-2
290
1
 42
2.0
291
1
 43
8.0
  3
Standard
 44
4.0
300

342
29
174
1
175
1
176
0
178
1
 93
-1056964608
 45
4.0
292
0
297
0
 46
4.0
 94
-1056964608
 47
1.0
 49
1.0
140
1.0
294
1
141
0.0
177
0
142
1.0
295
0
296
0
143
3.75
271
0
272
9
273
9
  0
DICTIONARY
  5
2D
330
A
100
AcDbDictionary
281
1
  3
CREATED_BY_EZDXF
350
2E
  3
WRITTEN_BY_EZDXF
350
1FA
  0
DICTIONARYVAR
  5
2E
330
2D
100
DictionaryVariables
280
0
  1
1.1.3 @ 2023-12-07T06:11:34.827927+00:00
  0
VISUALSTYLE
  5
5A
102
{ACAD_REACTORS
330
16
102
}
330
16
100
AcDbVisualStyle
  2
2dWireframe
 70
4
 90
0
 40
0.6
 62
7
290
0
291
0
  0
VISUALSTYLE
  5
5B
102
{ACAD_REACTORS
330
16
102
}
330
16
100
AcDbVisualStyle
  2
Basic
 70
7
 90
1
 40
0.6
 62
7
290
0
291
1
  0
VISUALSTYLE
  5
5C
102
{ACAD_REACTORS
330
16
102
}
330
16
100
AcDbVisualStyle
  2
Brighten
 70
12
 90
2
 40
0.6
 62
7
290
0
291
1
  0
VISUALSTYLE
  5
5D
102
{ACAD_REACTORS
330
16
102
}
330
16
100
AcDbVisualStyle
  2
ColorChange
 70
16
 90
2
 40
0.6
 62
8
290
0
291
1
  0
VISUALSTYLE
  5
5E
102
{ACAD_REACTORS
330
16
102
}
330
16
100
AcDbVisualStyle
  2
Conceptual
 70
9
 90
3
 40
0.6
 62
7
290
0
291
0
  0
VISUALSTYLE
  5
5F
102
{ACAD_REACTORS
330
16
102
}
330
16
100
AcDbVisualStyle
  2
Dim
 70
11
 90
2
 40
0.6
 62
7
290
0
291
1
  0
VISUALSTYLE
  5
60
102
{ACAD_REACTORS
330
16
102
}
330
16
100
AcDbVisualStyle
  2
EdgeColorOff
 70
22
 90
2
 40
0.6
 62
7
290
0
291
1
  0
VISUALSTYLE
  5
61
102
{ACAD_REACTORS
330
16
102
}
330
16
100
AcDbVisualStyle
  2
Facepattern
 70
15
 90
2
 40
0.6
 62
7
290
0
291
1
  0
VISUALSTYLE
  5
62
102
{ACAD_REACTORS
330
16
102
}
330
16
100
AcDbVisualStyle
  2
Flat
 70
0
 90
2
 40
0.6
 62
7
290
0
291
1
  0
VISUALSTYLE
  5
63
102
{ACAD_REACTORS
330
16
102
}
330
16
100
AcDbVisualStyle
  2
FlatWithEdges
 70
1
 90
2
 40
0.6
 62
7
290
0
291
1
  0
VISUALSTYLE
  5
64
102
{ACAD_REACTORS
330
16
102
}
330
16
100
AcDbVisualStyle
  2
Gouraud
 70
2
 90
2
 40
0.6
 62
7
290
0
291
1
  0
VISUALSTYLE
  5
65
102
{ACAD_REACTORS
330
16
102
}
330
16
100
AcDbVisualStyle
  2
GouraudWithEdges
 70
3
 90
2
 40
0.6
 62
7
290
0
291
1
  0
VISUALSTYLE
  5
66
102
{ACAD_REACTORS
330
16
102
}
330
16
100
AcDbVisualStyle
  2
Hidden
 70
6
 90
1
 40
0.6
 62
7
290
0
291
0
  0
VISUALSTYLE
  5
67
102
{ACAD_REACTORS
330
16
102
}
330
16
100
AcDbVisualStyle
  2
JitterOff
 70
20
 90
2
 40
0.6
 62
7
290
0
291
1
  0
VISUALSTYLE
  5
68
102
{ACAD_REACTORS
330
16
102
}
330
16
100
AcDbVisualStyle
  2
Linepattern
 70
14
 90
2
 40
0.6
 62
7
290
0
291
1
  0
VISUALSTYLE
  5
69
102
{ACAD_REACTORS
330
16
102
}
330
16
100
AcDbVisualStyle
  2
Modeling
 70
10
 90
2
 40
0.6
 62
7
290
0
291
0
  0
VISUALSTYLE
  5
6A
102
{ACAD_REACTORS
330
16
102
}
330
16
100
AcDbVisualStyle
  2
OverhangOff
 70
21
 90
2
 40
0.6
 62
7
290
0
291
1
  0
VISUALSTYLE
  5
6B
102
{ACAD_REACTORS
330
16
102
}
330
16
100
AcDbVisualStyle
  2
Realistic
 70
8
 90
2
 40
0.6
 62
7
290
0
291
0
  0
VISUALSTYLE
  5
6C
102
{ACAD_REACTORS
330
16
102
}
330
16
100
AcDbVisualStyle
  2
Shaded
 70
27
 90
2
 40
0.6
 62
7
290
0
291
0
  0
VISUALSTYLE
  5
6D
102
{ACAD_REACTORS
330
16
102
}
330
16
100
AcDbVisualStyle
  2
Shaded with edges
 70
26
 90
2
 40
0.6
 62
7
290
0
291
0
  0
VISUALSTYLE
  5
6E
102
{ACAD_REACTORS
330
16
102
}
330
16
100
AcDbVisualStyle
  2
Shades of Gray
 70
23
 90
2
 40
0.6
 62
7
290
0
291
0
  0
VISUALSTYLE
  5
6F
102
{ACAD_REACTORS
330
16
102
}
330
16
100
AcDbVisualStyle
  2
Sketchy
 70
24
 90
1
 40
0.6
 62
7
290
0
291
0
  0
VISUALSTYLE
  5
70
102
{ACAD_REACTORS
330
16
102
}
330
16
100
AcDbVisualStyle
  2
Thicken
 70
13
 90
2
 40
0.6
 62
7
290
0
291
1
  0
VISUALSTYLE
  5
71
102
{ACAD_REACTORS
330
16
102
}
330
16
100
AcDbVisualStyle
  2
Wireframe
 70
5
 90
0
 40
0.6
 62
7
290
0
291
0
  0
VISUALSTYLE
  5
72
102
{ACAD_REACTORS
330
16
102
}
330
16
100
AcDbVisualStyle
  2
X-Ray
 70
25
 90
2
 40
0.5
 62
7
290
0
291
0
  0
DICTIONARYVAR
  5
1FA
330
2D
100
DictionaryVariables
280
0
  1
1.1.3 @ 2023-12-07T06:11:34.848149+00:00
  0
ENDSEC
  0
EOF
